# Blender 4.2.1 LTS
# www.blender.org
mtllib cube.mtl
o cube1
v 1.242370 -0.096018 0.167378
v 1.242370 -0.096018 1.244533
v 0.703792 -1.028862 0.167378
v 0.703792 -1.028862 1.244533
vn 0.8660 -0.5000 -0.0000
vt 1.000000 0.000000
vt 1.000000 1.000000
vt 0.000000 1.000000
vt 0.000000 0.000000
s 0
usemtl cube1
f 1/1/1 2/2/1 4/3/1 3/4/1
o cube2
v 0.545647 -1.114670 0.167378
v 0.545647 -1.114670 1.244533
v -0.531509 -1.114670 0.167378
v -0.531509 -1.114670 1.244533
vn -0.0000 -1.0000 -0.0000
vt 1.000000 0.000000
vt 1.000000 1.000000
vt 0.000000 1.000000
vt 0.000000 0.000000
s 0
usemtl cube2
f 5/5/2 6/6/2 8/7/2 7/8/2
o cube3
v -0.674076 -1.043383 0.167378
v -0.674076 -1.043383 1.244533
v -1.212654 -0.110539 0.167378
v -1.212654 -0.110539 1.244533
vn -0.8660 -0.5000 -0.0000
vt 1.000000 0.000000
vt 1.000000 1.000000
vt 0.000000 1.000000
vt 0.000000 0.000000
s 0
usemtl cube3
f 9/9/3 10/10/3 12/11/3 11/12/3
o cube4
v -0.673548 1.059918 0.167378
v -0.673548 1.059918 1.244533
v -1.212126 0.127074 0.167378
v -1.212126 0.127074 1.244533
vn -0.8660 0.5000 -0.0000
vt 1.000000 0.000000
vt 1.000000 1.000000
vt -0.000000 1.000000
vt 0.000000 0.000000
s 0
usemtl cube4
f 15/13/4 16/14/4 14/15/4 13/16/4
o cube5
v -0.531508 1.116950 0.167378
v -0.531508 1.116950 1.244533
v 0.545648 1.116950 0.167378
v 0.545648 1.116950 1.244533
vn -0.0000 1.0000 -0.0000
vt 1.000000 0.000000
vt 1.000000 1.000000
vt 0.000000 1.000000
vt 0.000000 0.000000
s 0
usemtl cube5
f 17/17/5 18/18/5 20/19/5 19/20/5
o cube6
v 0.706696 1.034309 0.167378
v 0.706696 1.034309 1.244533
v 1.245274 0.101465 0.167378
v 1.245274 0.101465 1.244533
vn 0.8660 0.5000 -0.0000
vt 1.000000 0.000000
vt 1.000000 1.000000
vt 0.000000 1.000000
vt 0.000000 0.000000
s 0
usemtl cube6
f 21/21/6 22/22/6 24/23/6 23/24/6
o cube_invert4
o cube3_invert
v -0.674076 -1.043383 -1.218736
v -0.674076 -1.043383 -0.141581
v -1.212654 -0.110539 -1.218736
v -1.212654 -0.110539 -0.141581
vn -0.8660 -0.5000 -0.0000
vt 1.000000 1.000000
vt 1.000000 0.000000
vt 0.000000 0.000000
vt 0.000000 1.000000
s 0
usemtl cube_invert3
f 25/25/7 26/26/7 28/27/7 27/28/7
o cube4_invert
v -0.673548 1.059918 -1.218736
v -0.673548 1.059918 -0.141581
v -1.212126 0.127074 -1.218736
v -1.212126 0.127074 -0.141581
vn -0.8660 0.5000 -0.0000
vt 1.000000 1.000000
vt 1.000000 0.000000
vt 0.000000 0.000000
vt 0.000000 1.000000
s 0
usemtl cube_invert4
f 31/29/8 32/30/8 30/31/8 29/32/8
o cube5_invert
v -0.531508 1.116950 -1.218736
v -0.531508 1.116950 -0.141581
v 0.545648 1.116950 -1.218736
v 0.545648 1.116950 -0.141581
vn -0.0000 1.0000 -0.0000
vt 1.000000 1.000000
vt 1.000000 0.000000
vt 0.000000 0.000000
vt 0.000000 1.000000
s 0
usemtl cube_invert5
f 33/33/9 34/34/9 36/35/9 35/36/9
o cube6_invert
v 0.706696 1.034309 -1.218736
v 0.706696 1.034309 -0.141581
v 1.245274 0.101465 -1.218736
v 1.245274 0.101465 -0.141581
vn 0.8660 0.5000 -0.0000
vt 1.000000 1.000000
vt 1.000000 0.000000
vt 0.000000 0.000000
vt 0.000000 1.000000
s 0
usemtl cube_invert6
f 37/37/10 38/38/10 40/39/10 39/40/10
o cube1_invert
v 1.242370 -0.096018 -1.218736
v 1.242370 -0.096018 -0.141581
v 0.703792 -1.028862 -1.218736
v 0.703792 -1.028862 -0.141581
vn 0.8660 -0.5000 -0.0000
vt 1.000000 1.000000
vt 1.000000 0.000000
vt 0.000000 0.000000
vt 0.000000 1.000000
s 0
usemtl cube_invert1
f 41/41/11 42/42/11 44/43/11 43/44/11
o cube2_invert
v 0.545647 -1.114670 -1.255371
v 0.545647 -1.114670 -0.178216
v -0.531509 -1.114670 -1.255371
v -0.531509 -1.114670 -0.178216
vn -0.0000 -1.0000 -0.0000
vt 1.000000 1.000000
vt 1.000000 0.000000
vt 0.000000 0.000000
vt 0.000000 1.000000
s 0
usemtl cube_invert2
f 45/45/12 46/46/12 48/47/12 47/48/12
