# Blender 4.2.1 LTS
# www.blender.org
mtllib prism_test.mtl
o prism1
v -0.631205 -0.076334 -0.960301
v -0.631205 -1.084772 -0.960301
v -1.148958 -0.076334 -0.063523
v -1.148960 -1.084773 -0.063523
vn -0.8660 -0.0000 -0.5000
vt 1.000000 0.000000
vt 1.000000 1.000000
vt 0.000000 1.000000
vt 0.000000 0.000000
s 0
usemtl prism1
f 1/1/1 2/2/1 4/3/1 3/4/1
o prism0
v 0.521448 -0.076334 -1.031942
v 0.521448 -1.084772 -1.031942
v -0.514062 -0.076334 -1.031942
v -0.514062 -1.084772 -1.031942
vn -0.0000 -0.0000 -1.0000
vt 1.000000 0.000000
vt 1.000000 1.000000
vt 0.000000 1.000000
vt 0.000000 0.000000
s 0
usemtl prism0
f 5/5/2 6/6/2 8/7/2 7/8/2
o prism4
v 0.642463 -0.076334 0.974601
v 0.642463 -1.084773 0.974601
v 1.160218 -0.076334 0.077823
v 1.160218 -1.084773 0.077823
vn 0.8660 -0.0000 0.5000
vt 1.000000 0.000000
vt 1.000000 1.000000
vt 0.000000 1.000000
vt 0.000000 0.000000
s 0
usemtl prism4
f 9/9/3 10/10/3 12/11/3 11/12/3
o prism5
v 1.161186 -0.076334 -0.060618
v 1.161186 -1.084773 -0.060619
v 0.643431 -0.076334 -0.957397
v 0.643431 -1.084773 -0.957397
vn 0.8660 -0.0000 -0.5000
vt 1.000000 0.000000
vt 1.000000 1.000000
vt 0.000000 1.000000
vt 0.000000 0.000000
s 0
usemtl æè´¨
f 13/13/4 14/14/4 16/15/4 15/16/4
o prism3
v -0.516764 -0.076334 1.047210
v -0.516764 -1.084773 1.047210
v 0.518746 -0.076334 1.047210
v 0.518746 -1.084773 1.047210
vn -0.0000 -0.0000 1.0000
vt 1.000000 0.000000
vt 1.000000 1.000000
vt 0.000000 1.000000
vt 0.000000 0.000000
s 0
usemtl prism3
f 17/17/5 18/18/5 20/19/5 19/20/5
o prism2
v -0.631205 -0.076334 0.974601
v -0.631205 -1.084773 0.974601
v -1.148958 -0.076334 0.077823
v -1.148958 -1.084773 0.077823
vn -0.8660 -0.0000 0.5000
vt 1.000000 0.000000
vt 1.000000 1.000000
vt -0.000000 1.000000
vt 0.000000 0.000000
s 0
usemtl prism2
f 23/21/6 24/22/6 22/23/6 21/24/6
o prism1_convert
v -0.622801 1.051763 -0.955634
v -0.622801 0.043324 -0.955634
v -1.140554 1.051763 -0.058856
v -1.140554 0.043324 -0.058856
vn -0.8660 -0.0000 -0.5000
vt 1.000000 1.000000
vt 1.000000 0.000000
vt 0.000000 0.000000
vt 0.000000 1.000000
s 0
usemtl convert1
f 25/25/7 26/26/7 28/27/7 27/28/7
o prism0_convert
v 0.521414 1.051763 -1.027275
v 0.521414 0.043324 -1.027275
v -0.514096 1.051763 -1.027275
v -0.514096 0.043324 -1.027275
vn -0.0000 -0.0000 -1.0000
vt 1.000000 1.000000
vt 1.000000 0.000000
vt 0.000000 0.000000
vt 0.000000 1.000000
s 0
usemtl convert0
f 29/29/8 30/30/8 32/31/8 31/32/8
o prism4_convert
v 0.642430 1.051763 0.979268
v 0.642430 0.043324 0.979268
v 1.160185 1.051763 0.082490
v 1.160185 0.043324 0.082490
vn 0.8660 -0.0000 0.5000
vt 1.000000 1.000000
vt 1.000000 0.000000
vt 0.000000 0.000000
vt 0.000000 1.000000
s 0
usemtl convert4
f 33/33/9 34/34/9 36/35/9 35/36/9
o prism5_convert
v 1.161153 1.051763 -0.055951
v 1.161153 0.043324 -0.055951
v 0.643398 1.051763 -0.952729
v 0.643398 0.043324 -0.952729
vn 0.8660 -0.0000 -0.5000
vt 1.000000 1.000000
vt 1.000000 0.000000
vt 0.000000 0.000000
vt 0.000000 1.000000
s 0
usemtl convert5
f 37/37/10 38/38/10 40/39/10 39/40/10
o prism3_convert
v -0.516797 1.051763 1.051877
v -0.516797 0.043324 1.051877
v 0.518712 1.051763 1.051877
v 0.518712 0.043324 1.051877
vn -0.0000 -0.0000 1.0000
vt 1.000000 1.000000
vt 1.000000 0.000000
vt 0.000000 0.000000
vt 0.000000 1.000000
s 0
usemtl convert3.001
f 41/41/11 42/42/11 44/43/11 43/44/11
o prism2_convert
v -0.622801 1.051763 0.979268
v -0.622801 0.043324 0.979268
v -1.140554 1.051763 0.082490
v -1.140554 0.043324 0.082490
vn -0.8660 -0.0000 0.5000
vt 1.000000 1.000000
vt 1.000000 0.000000
vt 0.000000 0.000000
vt 0.000000 1.000000
s 0
usemtl conver2
f 47/45/12 48/46/12 46/47/12 45/48/12
