<?xml version="1.0" encoding="UTF-8" standalone="no"?>
<svg
   width="454"
   height="300"
   viewBox="0 0 454 300"
   version="1.1"
   id="svg2"
   sodipodi:version="0.32"
   inkscape:version="1.1.1 (3bf5ae0d25, 2021-09-20)"
   sodipodi:docname="fish.svg"
   inkscape:output_extension="org.inkscape.output.svg.inkscape"
   xmlns:inkscape="http://www.inkscape.org/namespaces/inkscape"
   xmlns:sodipodi="http://sodipodi.sourceforge.net/DTD/sodipodi-0.dtd"
   xmlns:xlink="http://www.w3.org/1999/xlink"
   xmlns="http://www.w3.org/2000/svg"
   xmlns:svg="http://www.w3.org/2000/svg">
  <sodipodi:namedview
     id="namedview49"
     pagecolor="#ffffff"
     bordercolor="#666666"
     borderopacity="1.0"
     inkscape:pageshadow="2"
     inkscape:pageopacity="0.0"
     inkscape:pagecheckerboard="0"
     showgrid="false"
     inkscape:zoom="0.6925"
     inkscape:cx="131.40794"
     inkscape:cy="301.80505"
     inkscape:window-width="1920"
     inkscape:window-height="1017"
     inkscape:window-x="1912"
     inkscape:window-y="-8"
     inkscape:window-maximized="1"
     inkscape:current-layer="g4" />
  <defs
     id="defs23">
    <linearGradient
       id="gradient-body"
       gradientUnits="userSpaceOnUse"
       x1="220"
       y1="0"
       x2="710"
       y2="0">
      <stop
         offset="0"
         stop-color="#ff0000"
         id="stop26" />
      <stop
         offset="0.2"
         stop-color="#00ff00"
         id="stop28" />
      <stop
         offset="0.4"
         stop-color="#0000ff"
         id="stop30" />
      <stop
         offset="0.6"
         stop-color="#ffff00"
         id="stop32" />
      <stop
         offset="0.8"
         stop-color="#00ffff"
         id="stop34" />
      <stop
         offset="1"
         stop-color="#ff00ff"
         id="stop36" />
    </linearGradient>
    <linearGradient
       inkscape:collect="always"
       xlink:href="#gradient-body"
       id="linearGradient1079"
       gradientUnits="userSpaceOnUse"
       x1="220"
       y1="0"
       x2="710"
       y2="0"
       gradientTransform="matrix(0.69294756,0,0,0.79424675,-53.330917,220.2736)" />
    <linearGradient
       inkscape:collect="always"
       xlink:href="#gradient-body"
       id="linearGradient1081"
       gradientUnits="userSpaceOnUse"
       x1="220"
       y1="0"
       x2="710"
       y2="0"
       gradientTransform="matrix(0.69294756,0,0,0.79424675,-53.330917,220.2736)" />
    <linearGradient
       inkscape:collect="always"
       xlink:href="#gradient-body"
       id="linearGradient1083"
       gradientUnits="userSpaceOnUse"
       x1="220"
       y1="0"
       x2="710"
       y2="0"
       gradientTransform="matrix(0.69294756,0,0,0.79424675,-53.330917,220.2736)" />
    <linearGradient
       inkscape:collect="always"
       xlink:href="#gradient-body"
       id="linearGradient1085"
       gradientUnits="userSpaceOnUse"
       x1="220"
       y1="0"
       x2="710"
       y2="0"
       gradientTransform="matrix(0.69294756,0,0,0.79424675,-53.330917,220.2736)" />
    <linearGradient
       inkscape:collect="always"
       xlink:href="#gradient-body"
       id="linearGradient1087"
       gradientUnits="userSpaceOnUse"
       x1="220"
       y1="0"
       x2="710"
       y2="0"
       gradientTransform="matrix(0.69294756,0,0,0.79424675,-53.330917,220.2736)" />
  </defs>
  <g
     transform="matrix(1,0,0,-1,0,600)"
     id="g4">
    <path
       d="m 7.3020625,522.80227 c -2.4946107,-3.57411 -3.8112116,-7.3865 -3.8112116,-11.35773 l 1.7323692,-7.62477 c 2.2867266,-4.05066 5.7514649,-6.19513 10.3942129,-6.51282 4.573454,-0.3177 7.830307,1.11194 9.631972,4.13008 1.732371,3.09756 2.633204,7.46592 2.633204,13.18449 0,6.35398 -1.247313,10.72234 -3.880507,13.26393 -2.148135,2.22389 -4.919931,2.77986 -8.315374,1.58849 -3.256854,-1.11195 -6.0286438,-3.33584 -8.3846655,-6.67167 z"
       id="path7"
       style="stroke-width:0.74187" />
    <path
       d="m 23.44767,514.1449 c 0,9.21326 -2.563903,12.15197 -7.76101,8.81614 -1.940253,-1.19137 -3.672622,-2.93872 -5.335696,-5.32146 -1.5937798,-2.38274 -2.4946115,-4.36835 -2.5639065,-6.19512 -0.2078842,-1.74734 0.6236524,-4.13008 2.3560215,-6.90995 1.732369,-2.77986 4.573454,-3.25641 8.73114,-1.58849 1.45519,0.71482 2.563906,2.54159 3.464737,5.4803 0.69295,2.70044 1.108714,4.60663 1.108714,5.71858 z"
       id="path9"
       fill="#ffffff"
       style="stroke-width:0.74187" />
    <path
       d="m 54.630381,544.8029 c 1.663077,3.97124 2.425322,9.68981 2.425322,17.31458 0,6.1157 -1.801665,10.72233 -5.47429,13.89932 -3.25685,2.77986 -7.275945,3.89181 -12.057284,3.25641 -4.781339,-0.6354 -8.869728,-2.70044 -12.126589,-6.4334 -3.672624,-4.05066 -5.474279,-9.21326 -5.474279,-15.32896 0,-2.46217 1.178008,-6.7511 3.60332,-13.02565 2.91038,-7.54534 5.959348,-11.35773 9.146914,-11.35773 9.978443,0 16.630742,3.97124 19.956886,11.67543 z"
       id="path12"
       style="stroke-width:0.74187" />
    <path
       d="m 39.87053,572.04541 c -3.256851,-0.15885 -6.167231,-1.5885 -8.592552,-4.20951 -2.5639,-2.85929 -3.880507,-6.19513 -3.880507,-10.16636 0,-2.14447 0.970127,-5.32145 2.771792,-9.53096 2.21743,-5.08318 4.434869,-7.70419 6.652299,-7.70419 6.236524,0 10.671393,2.14446 13.304587,6.35397 1.524489,2.38274 2.217439,4.92433 2.217439,7.70419 0,6.1157 -1.247303,10.72233 -3.811212,13.8199 -2.286724,2.77986 -5.197104,4.05066 -8.661846,3.73296 z"
       id="path14"
       fill="#ffffff"
       style="stroke-width:0.74187" />
    <path
       d="m 18.181275,594.60217 c -1.593779,1.66792 -3.672622,2.22389 -6.236529,1.66792 -2.3560213,-0.47655 -4.4348637,-1.58849 -6.236527,-3.41526 -1.9402533,-1.82677 -2.91038,-3.73296 -2.91038,-5.4803 0,-2.22389 0.4157683,-4.44778 1.1087158,-6.7511 1.3166009,-3.81238 3.3954433,-5.63915 6.3751172,-5.63915 2.633201,0 4.989223,0.95309 7.206655,2.77986 2.356023,1.98562 3.603328,4.44778 3.603328,7.22765 0,4.5272 -0.970127,7.70419 -2.91038,9.61038 z"
       id="path17"
       style="stroke-width:0.74187" />
    <path
       d="m 14.02359,590.55159 c -0.06929,0.47654 -1.247306,0.31769 -3.464739,-0.47655 -2.5639054,-0.79425 -3.8805053,-1.74734 -3.8805053,-2.70044 0,-1.82677 0.6236524,-3.41526 1.9402523,-4.84491 1.1780109,-1.19137 2.286728,-1.82676 3.326148,-1.82676 1.801665,0 3.18756,0.63539 4.157686,1.82676 0.762243,0.87368 1.108716,1.9062 1.108716,2.93872 0,1.03252 -0.138589,2.06504 -0.554357,3.01813 -0.41577,0.79425 -1.247306,1.5885 -2.633201,2.06505 z"
       id="path19"
       fill="#ffffff"
       style="stroke-width:0.74187" />
    <path
       id="outline"
       d="m 370.12919,577.36686 c 0,9.76923 -3.74191,15.72609 -11.22575,17.94998 -10.04773,2.93871 -26.53989,-0.87368 -49.40716,-11.43716 -4.0191,-1.74734 -13.30459,-8.26016 -27.85649,-19.22077 -12.68095,-9.68981 -20.78843,-14.45529 -24.46105,-14.45529 h -13.09671 c -1.24731,-0.23827 -2.14814,-0.79425 -2.49461,-1.98562 -1.03942,0.15885 -2.14813,0.15885 -3.25686,0.15885 0.48507,0.9531 1.03942,1.9062 1.59378,2.77987 1.87096,3.41526 2.7718,5.71857 2.7718,6.83052 0,6.03627 -2.84109,9.84866 -8.52326,11.43715 -5.19712,1.42965 -11.43364,0.9531 -18.77888,-1.74734 -7.41453,-2.62102 -13.72036,-6.67167 -18.77889,-12.07255 -1.80165,-1.90619 -3.39542,-4.05066 -4.64274,-6.1157 -4.22698,2.30331 -11.91869,5.00375 -23.35232,8.26016 4.91993,5.87743 8.03819,9.92809 9.42409,12.07256 3.18754,5.00375 4.78133,10.3252 4.78133,15.80551 0,6.83052 -1.87096,11.43715 -5.68217,13.58162 -3.39545,1.98561 -7.48383,1.66791 -12.33446,-0.9531 -4.91994,-2.54159 -9.00833,-6.67167 -12.40376,-12.31083 -3.74194,-6.35397 -5.61289,-13.34334 -5.61289,-20.96811 v -1.42964 c -5.2664,1.35022 -10.46351,2.62101 -15.79921,3.81238 -0.55435,0.23827 -1.10869,0.47655 -1.66307,0.6354 0,2.70044 -0.69295,5.24203 -2.21742,7.30707 -1.59379,2.46216 -3.53403,3.25641 -5.82078,2.22389 0,-3.01814 0.2772,-5.87743 0.97015,-8.49844 0.13858,-0.23828 0.20787,-0.55597 0.27717,-0.87367 h -0.13859 c -8.52325,13.81989 -12.75024,16.52033 -12.75024,7.94246 0,-1.42964 1.38589,-4.13008 4.08839,-8.10131 0.76225,-1.11195 1.45519,-1.98562 2.14814,-2.85929 -3.39544,-2.22389 -5.95935,-5.32145 -7.89959,-9.21326 -0.69295,-1.42965 -2.8411,-3.73296 -6.23654,-6.83052 -1.940261,-1.66792 -3.187564,-3.25642 -3.880505,-4.68606 -5.612874,2.62101 -12.403751,3.01814 -20.234078,0.9531 -9.008316,-2.30332 -16.907908,-6.98938 -23.560216,-13.97876 -7.068053,-7.54534 -10.671384,-15.72607 -10.671384,-24.38336 0,-0.0794 0.554373,-1.90619 1.663068,-5.40089 0.06928,-0.31769 0.207902,-0.63539 0.34647,-0.95309 -6.929475,-3.89181 -13.373881,-10.16636 -19.402533,-18.74422 -4.504155,-6.51282 -7.137349,-12.15198 -7.830296,-17.15574 -0.277172,0.15885 -0.554345,0.23828 -0.900818,0.31771 -2.841092,1.03251 -4.850633,1.50907 -5.820781,1.35022 -0.06929,-0.15885 -0.06929,-0.31771 -0.138575,-0.47656 v -0.87366 c 0,-0.39712 1.247298,-1.50908 3.672615,-3.17699 0.900845,-0.6354 1.732369,-1.11195 2.494611,-1.58849 h -0.20787 c -2.009569,-1.19137 -3.326162,-2.30333 -3.811211,-3.41526 0.20787,-0.23828 0.554343,-0.55598 1.177997,-0.87368 0.762242,-0.39713 1.45519,-0.47654 2.078842,-0.47654 0.554372,0 1.385895,0.23826 2.28674,0.79424 0,-10.80175 -0.138603,-27.32209 -0.2772,-49.561 0,-3.49468 1.663095,-8.02189 4.850634,-13.74047 4.365585,-7.70419 10.602109,-14.69355 18.709583,-21.04752 4.504163,-3.57411 9.493394,-6.7511 14.89837,-9.68983 -0.970117,-1.27079 -1.455165,-2.30331 -1.455165,-3.17699 0,-0.39712 0.06928,-0.79424 0.277176,-1.19137 0.34647,-0.63538 0.970117,-1.0325 1.87094,-1.0325 0.485068,0 1.593793,1.11194 3.464742,3.33582 7.137367,-3.49469 15.036968,-6.43341 23.560216,-8.73672 -0.138578,-0.47655 -0.34648,-0.95308 -0.485048,-1.3502 -0.554372,-1.58849 -0.900853,-2.85929 -0.900853,-3.57411 0,-1.11197 0,-1.66793 0.138598,-1.74736 0.277177,-0.23826 0.554353,-0.39712 0.762255,-0.63538 0.138568,-0.0794 0.554342,-0.15886 1.108715,-0.15886 1.247293,0 2.148115,1.19137 2.91037,3.73297 0.277176,0.87365 0.485068,1.82675 0.623646,2.621 0.692951,-0.15886 1.385891,-0.31769 2.078842,-0.47655 0,-0.47655 0.34647,-1.66792 0.970146,-3.65354 0.692951,-2.30331 1.316593,-3.57411 1.870945,-3.81238 1.108715,0.0794 1.663068,0.95311 1.663068,2.54161 0,1.50906 -0.138578,2.77986 -0.277177,3.97123 14.829071,-3.09758 31.529111,-4.60665 50.030821,-4.60665 3.04896,0 7.20664,0.47655 12.61163,1.35023 0.34648,-1.19137 0.76225,-2.62103 1.24732,-4.36836 1.94025,-6.03628 4.08838,-11.59601 6.44441,-16.67918 7.27594,-16.04379 14.89838,-24.14509 22.93656,-24.14509 0.0693,0 1.94026,1.19137 5.54358,3.57411 1.10873,-0.39712 2.21743,-0.71485 3.53404,-0.71485 2.07884,0 3.67262,1.35023 4.71204,3.97124 0.41577,0.87368 0.69295,1.74735 0.90083,2.70046 6.92947,0 10.87928,0.31769 11.64152,0.95308 0.48506,0.39712 0.69295,1.11194 0.69295,2.30331 -0.0693,1.58849 -0.13859,3.09758 -0.13859,4.36836 -0.76225,4.36835 -1.66307,8.65731 -2.77178,12.8668 -0.97013,3.65354 -1.94027,6.51284 -2.8411,8.49846 1.66308,0.15883 3.11826,0.31769 4.29628,0.47652 1.52449,-8.89555 2.84108,-14.61413 4.0191,-17.0763 1.17801,-2.54158 5.05851,-6.43338 11.71081,-11.75485 6.09794,-2.621 10.11703,-3.57411 12.19587,-2.85929 1.94026,0.79425 3.25686,1.50906 3.88052,2.14448 0.62365,0.71481 1.80166,0.87368 3.60332,0.39712 6.23652,-3.8124 11.50293,-5.08317 15.72991,-3.8124 2.21744,2.46217 3.39545,4.60665 3.46474,6.59226 0.0693,1.98562 1.03942,2.9387 2.77179,3.01813 1.80167,0.0794 3.39544,0.39713 4.78134,0.95311 2.14814,2.46217 3.18756,5.63916 3.04897,9.53096 -0.0693,3.81238 -0.69295,7.70418 -1.59378,11.67541 10.87927,0.71485 24.59963,6.35397 41.23038,16.83804 0.27717,0.23827 0.62365,0.47656 0.97012,0.71482 0.27718,0.15886 0.69295,0.39713 0.97013,0.63542 6.16723,3.97123 12.12658,8.26015 17.94734,12.86678 4.64275,3.65353 7.27595,5.95685 7.9689,6.75109 2.42532,-0.79424 12.12658,-6.11568 29.24239,-15.88493 17.32368,-9.29267 28.89591,-13.97875 34.78596,-13.97875 1.73238,0 3.04897,0.31772 3.81122,0.9531 0.97012,0.71482 1.3859,1.98562 1.3859,3.81238 -2.91039,8.81615 -5.89006,18.02941 -8.80045,27.87807 -5.95934,19.53847 -8.86972,32.96125 -8.86972,40.26832 0,5.32145 3.81122,17.39399 11.57222,36.3765 8.24608,19.22077 12.88882,30.49907 13.92825,33.67606 1.87096,6.19512 7.41455,19.69732 16.42286,40.50658 8.24608,18.9825 12.40376,28.99001 12.40376,30.02253 0,6.35398 -3.74192,8.73672 -11.15646,7.30707 -5.75146,-1.19137 -13.99754,-4.76548 -24.87682,-10.80175 -3.18755,-1.74735 -6.99876,-4.60664 -11.50293,-8.41902 -4.71203,-4.36836 -7.83031,-7.14822 -9.28549,-8.41902 -5.405,-4.68605 -10.32492,-10.9606 -14.75978,-18.74423 -4.36558,-8.81613 -7.69172,-15.1701 -9.90915,-19.06192 -2.07885,4.92434 -6.92949,11.67544 -14.5519,20.33273 -6.6523,7.46591 -12.40377,12.39025 -17.32369,14.53471 4.22697,4.05066 9.77056,10.40463 16.35356,18.9825 9.56268,12.39025 14.34401,19.69732 14.34401,21.92121 z"
       style="stroke-width:0.74187" />
    <path
       id="ear-right"
       d="m 155.38489,576.81096 c -0.62435,-2.38274 -1.03942,-4.68605 -1.38519,-7.06879 v 0 c -0.07,-0.87368 -0.2086,-1.74733 -0.27787,-2.70043 v 0 c 0.27787,0.87447 0.55435,1.74655 0.83152,2.621 v 0 c 2.70248,7.54534 5.82075,11.51658 9.42409,11.67544 v 0 c 0,-0.15886 0.1379,-0.39712 0.41577,-0.79425 v 0 c 0.27718,-0.47655 0.41577,-1.35023 0.41577,-2.5416 v 0 c -2.07884,-7.62475 -4.15768,-13.5022 -6.02865,-17.47343 v 0 c 1.2473,-0.39712 2.21675,-0.63538 2.84109,-0.79425 v 0 c 1.94024,1.74736 3.74192,3.8124 5.33568,6.11572 v 0 c 1.59379,2.30331 2.63392,3.81237 3.11826,4.36836 v 0 c 4.43489,5.79798 6.65231,10.88118 6.65231,15.24954 v 0 c 0,2.38274 -0.13928,3.97124 -0.55435,4.68685 v 0 c -0.90084,1.74653 -2.91039,2.62021 -5.95935,2.62021 v 0 c -7.20666,0 -12.12659,-5.32224 -14.82908,-15.96437 z"
       fill="url(#gradient-body)"
       style="fill:url(#linearGradient1079);stroke-width:0.74187" />
    <path
       id="paw-right"
       d="m 175.54967,323.84338 c 3.46404,-6.59225 6.3058,-10.88118 8.38464,-13.1845 v 0 c 0,0.79345 -0.20786,2.30332 -0.55434,4.36756 v 0 c -0.34647,2.06584 -0.55505,3.73376 -0.55505,4.8457 v 0 c 0,1.35022 0,2.14448 0.07,2.38275 v 0 c 0,0.31769 0.13861,0.79425 0.2079,1.42964 v 0 l 0.83152,0.71483 c 0.55508,0.63459 1.3859,0.87366 2.49463,0.87366 v 0 c 1.80166,0 3.39543,-1.66791 4.98992,-5.08318 v 0 c 2.00886,-4.13008 3.18617,-6.27455 3.60262,-6.67167 v 0 c 0,2.77986 0.1386,5.40088 0.2765,7.94247 v 0 c 0.07,0 0.41644,0.15884 0.90152,0.63619 v 0 c 0.55435,0.47575 1.3859,0.6346 2.42532,0.6346 v 0 c 1.10871,0 2.49461,-0.71481 4.15768,-1.98562 v 0 c 2.07884,-1.66792 3.81122,-2.85929 5.2664,-3.41525 v 0 c 0,-0.23828 0.0693,-0.39712 0.13858,-0.39712 v 0 c 0.13861,0 0.13861,0.71481 0.13861,1.98561 v 0 c 0,0.3185 -1.87098,6.82973 -5.54359,19.53847 v 0 0.47655 c -16.0764,0.0794 -27.99507,1.11115 -35.8254,2.93871 v 0 c -0.0693,0.0794 -0.13858,0.0794 -0.20787,0.0794 v 0 l -0.55435,0.15886 c 2.21741,-4.36836 5.33568,-10.48407 9.35479,-18.26768 z"
       fill="url(#gradient-body)"
       style="fill:url(#linearGradient1081);stroke-width:0.74187" />
    <path
       id="back"
       d="m 327.44376,584.3563 c -8.38465,-3.41524 -17.87804,-8.89555 -28.54942,-16.36146 v 0 c -11.22576,-8.41902 -19.26396,-14.1376 -23.90669,-17.39402 v 0 c -7.9696,-5.32144 -13.99755,-8.02187 -18.15524,-8.02187 v 0 c -2.28742,0 -4.64276,0.0794 -7.06807,0.31849 v 0 c -1.2473,-0.95391 -2.90967,-1.66872 -4.91991,-2.22471 v 0 c -1.6631,-0.39712 -3.04899,-0.63538 -4.08841,-0.63538 v 0 c -3.46474,0 -6.09793,0.23826 -7.9689,0.63538 v 0 c -0.13857,-0.0794 -0.20787,-0.23826 -0.34647,-0.31769 v 0 c -8.17677,-9.68979 -16.28428,-14.61413 -24.39175,-14.61413 v 0 c -2.35601,0.15805 -3.67263,0.9523 -3.8805,2.46216 v 0 1.03252 c 0,0.79424 1.66307,2.3033 5.0585,4.44779 v 0 c 2.00957,1.42962 5.68219,3.81236 11.15646,7.14822 v 0 c 10.80999,7.14822 16.21497,12.70794 16.21497,16.99687 v 0 c 0,1.42966 -0.41575,2.5416 -1.38589,3.41528 v 0 c -0.83083,0.63539 -1.73237,1.03251 -2.77179,1.03251 v 0 c -14.2747,0 -23.90669,-2.30332 -28.75732,-6.90996 v 0 c -1.59378,-1.42963 -2.7718,-3.17699 -3.32614,-5.16261 v 0 c -0.34648,-1.0325 -1.80167,-4.60661 -4.36556,-10.88036 v 0 c -0.0693,-0.0802 -0.1386,-0.23909 -0.1386,-0.47735 v 0 c -1.73237,-3.41525 -3.11826,-5.4803 -4.22699,-5.95685 v 0 c -1.45519,-0.55599 -2.35602,-0.63539 -2.77179,-0.15887 v 0 c -0.48575,0.63542 -0.76225,1.74736 -0.76225,3.17699 v 0 c 0,2.77986 0.41578,5.40089 1.24732,7.94247 v 0 c -5.19711,0.55599 -15.31414,3.17699 -30.48969,7.94247 v 0 c -16.63075,5.32146 -27.7179,7.94246 -33.12291,7.94246 v 0 c -3.60262,0 -8.45395,-2.85926 -14.55188,-8.65728 v 0 c -0.41578,-0.47655 -2.56392,-2.621 -6.44442,-6.59224 v 0 c -1.10872,-1.03254 -2.00955,-1.82678 -2.70249,-2.5416 v 0 c 6.58299,-5.08317 9.83985,-13.66102 9.83985,-25.73358 v 0 c 0,-2.14449 -0.55435,-5.16261 -1.59377,-9.13384 v 0 c -1.45521,-5.40167 -3.39546,-10.24578 -5.89006,-14.69357 v 0 c -0.96944,-1.82676 -2.07885,-3.49468 -3.18756,-5.00454 v 0 c 2.14814,-1.19057 4.29627,-2.30254 6.6523,-3.09679 v 0 c 1.03942,-0.39712 1.94025,-0.71481 2.91037,-1.0325 v 0 c 1.24731,5.48029 3.9498,10.6429 8.17678,15.48781 v 0 c 5.40499,6.35397 11.91871,10.6429 19.67971,13.10507 v 0 c 7.76103,2.38274 14.41333,2.14447 19.6797,-0.95311 v 0 c 6.02867,-3.41525 9.00832,-9.6898 9.00832,-18.98249 v 0 c 0,-4.52799 -0.97012,-8.97418 -2.91036,-13.42276 v 0 c 2.77179,0 5.68215,-0.15887 8.66185,-0.3177 v 0 c 0.76224,-0.0794 1.52447,-0.23829 2.35601,-0.55598 v 0 c 7.13735,-2.70043 12.47306,-6.51281 15.7992,-11.27829 v 0 c 0.48507,-0.63541 1.03942,-1.27 1.59379,-1.90622 v 0 c 0.55435,-0.63538 1.10872,-1.27077 1.59377,-1.98561 v 0 c 4.36559,-5.63913 6.23653,-12.86679 5.61288,-21.84179 v 0 c -0.1386,-2.54157 -0.41577,-5.08317 -0.69294,-7.62555 v 0 c -0.13861,-0.79344 -0.27719,-1.66712 -0.55435,-2.62023 v 0 c -2.56392,-7.78361 -6.16726,-14.61413 -10.94859,-20.49156 v 0 c -0.55435,-0.71482 -0.97012,-1.50907 -1.38589,-2.30332 v 0 c -2.70249,-6.19512 -4.78133,-12.5491 -6.23654,-19.22076 v 0 c -0.69294,-3.17699 -0.13857,-5.32145 1.66307,-6.43341 v 0 c 0.48508,-0.23827 0.83156,-0.63539 1.03942,-1.19137 v 0 c 2.35534,-5.40088 6.02866,-9.37131 11.08717,-11.9137 v 0 c 0.83155,-0.39712 1.73236,-0.95309 2.63321,-1.42964 v 0 c 2.42531,-1.42964 4.98921,-2.54159 7.48383,-3.33584 v 0 c 2.70249,-0.79425 5.3364,-1.58849 8.0382,-2.38274 v 0 c 0.62365,14.13681 1.10941,25.25705 1.45518,33.19952 v 0 l 0.55436,0.39712 c 0.41577,0.39712 1.10872,0.55597 2.21814,0.55597 v 0 c 2.49391,0 3.60261,-6.51282 3.32544,-19.45904 v 0 c -0.0693,-5.40088 -0.41577,-10.88118 -0.83153,-16.52034 v 0 c -0.1386,-1.11273 -0.1386,-2.14446 -0.27719,-3.2564 v 0 c 0,-1.9062 0.55437,-6.67089 1.73237,-14.21703 v 0 c 0.83155,-5.40087 1.5245,-9.3721 2.14814,-12.07255 v 0 c 0.97012,-1.27078 2.14814,-3.01813 3.46473,-5.08317 v 0 c 0.41578,-0.31691 2.07885,-2.30332 5.12781,-5.7988 v 0 c 3.39546,-3.41447 6.583,-5.08239 9.56339,-5.16181 v 0 c 3.04827,-0.0786 4.57207,0.71562 4.64203,2.30332 v 0 c 0,1.5885 0,2.62101 -0.20787,3.09756 v 0 c -0.1386,0.23827 -0.27717,0.63539 -0.41577,0.87368 v 0 c -1.80167,3.89181 -2.77179,6.19511 -2.77179,6.67167 v 0 c 0,2.70043 1.31659,4.13007 3.88051,4.13007 v 0 c 3.11826,0 5.19711,-2.62101 6.23653,-8.02189 v 0 c 1.10942,-5.32145 3.11827,-8.33879 6.16723,-9.13304 v 0 c 1.03942,-0.31849 1.93957,-0.55677 2.70248,-0.55677 v 0 c 1.3859,0.3177 2.07885,1.11195 2.07885,2.46217 v 0 c 0,0.95309 -0.97012,3.01813 -2.7718,6.19513 v 0 c -1.87094,3.17699 -2.77179,5.24202 -2.77179,6.19591 v 0 1.90541 c 0.13861,0.23827 0.13861,0.55596 0.2765,0.95308 v 0 l 0.69366,0.63541 c 0.41574,0.39712 1.24729,0.6354 2.28671,0.6354 v 0 c 1.59377,0 3.32614,-1.82677 5.12781,-5.48031 v 0 c 1.80167,-3.65353 4.22699,-4.68605 7.34525,-3.25641 v 0 c 0.34647,0.9531 0.41577,2.14447 0.34647,3.65353 v 0 c -0.1386,1.58849 -1.73236,6.98937 -4.85063,16.28206 v 0 c -3.04827,9.37211 -4.64276,14.93105 -4.64276,16.75861 v 0 1.74655 c -0.07,4.13087 -0.41575,9.85024 -1.03942,17.15653 v 0 c -0.76223,8.57785 -1.1087,13.02563 -1.1087,13.5014 v 0 c 0,4.84569 0.90082,7.06958 2.91037,6.67246 v 0 c 1.94026,-0.3177 3.18757,-3.17699 3.74191,-8.57787 v 0 c 1.4552,-8.89556 2.21744,-15.88493 2.21744,-20.96811 v 0 c 0,-2.22389 0.20787,-4.76548 0.69295,-7.62477 v 0 c 1.24729,0.0794 2.42532,0.0794 3.67261,0 v 0 c 1.52449,0 2.98039,0 4.50416,0.15885 v 0 c 4.78136,0.3177 9.56269,0.63539 14.34403,0.79424 v 0 c 6.02865,0.39713 11.50293,-0.55597 16.49216,-2.70044 v 0 c 2.42531,1.03253 4.15768,1.9062 5.47426,2.70044 v 0 c 0.27792,0.15886 2.14816,1.42965 5.40502,3.97124 v 0 c 0.34648,0.23827 0.62363,0.47655 0.90083,0.71483 v 0 c -0.34715,-0.15965 -0.69295,-0.23828 -1.03942,-0.23828 v 0 l -2.28672,0.6354 c -0.27648,0.15806 -0.48508,0.31769 -0.55439,0.31769 v 0 c -0.13856,0.15885 -0.27716,0.79425 -0.27716,2.06505 v 0 c 0,1.27158 0.69227,2.85928 1.87097,4.76548 v 0 c 1.17798,1.90619 1.73237,3.17699 1.73237,3.81239 v 0 c 0,0.39712 -0.20792,0.79424 -0.83155,1.27078 v 0 c -1.80169,1.35102 -3.46474,2.70045 -4.91995,3.97124 v 0 c 4.71208,2.93871 7.83035,2.54159 9.42411,-1.03252 v 0 c 0.69295,-1.74735 1.03942,-4.52721 1.03942,-8.3396 v 0 c 0,-1.90619 -0.55434,-3.65352 -1.87097,-5.24202 v 0 l 0.1386,-0.23828 c 2.07884,1.5885 4.43485,3.49469 7.20596,5.55973 v 0 c 9.56339,7.46671 14.55257,11.19889 14.76049,11.19889 v 0 c 3.81121,0 12.81953,-4.13009 26.95564,-12.23141 v 0 c 4.0884,-2.38274 7.83029,-4.36836 11.15648,-6.27454 v 0 l 0.62363,1.50906 c -7.89958,5.95685 -12.05727,9.13384 -12.40374,9.37211 v 0 c 1.93957,2.77986 6.51368,1.90619 13.78963,-2.70043 v 0 c 3.74126,-2.30332 9.28551,-6.27456 16.63074,-11.75485 v 0 c -2.00952,6.27454 -3.60333,11.59599 -4.91991,16.04377 v 0 h -0.2772 c -3.46474,0 -7.96889,2.30411 -13.23528,6.83053 v 0 c -4.91995,4.2095 -8.03821,8.02189 -9.42478,11.27831 v 0 c 1.17869,-0.63619 4.9899,-2.70045 11.29575,-6.35398 v 0 c 3.04894,-1.74734 5.82073,-3.33583 8.52324,-4.76548 v 0 l 0.48508,1.11194 0.13855,0.39712 c -1.31657,4.76548 -2.35667,9.29269 -3.11826,13.74047 v 0 c -2.91035,0.3177 -5.75145,0.87368 -8.52325,1.74735 v 0 c -4.85063,1.42964 -8.03818,3.33663 -9.70126,5.55972 v 0 c 1.66308,0.6354 5.26642,0.23828 11.01788,-1.27078 v 0 c 2.35531,-0.55598 4.57344,-1.27081 6.65228,-1.98562 v 0 c -0.69295,4.52721 -1.03942,8.89556 -1.03942,13.10507 v 0 c 0,0.39712 0.2772,1.43045 0.69295,2.85928 v 0 c -3.46474,-0.15885 -8.66185,-0.23827 -15.59132,-0.31769 v 0 c -0.13928,-0.3169 -0.34648,-0.47656 -0.41576,-0.47656 v 0 c -0.27719,-0.0794 -0.41646,0.6354 -0.41646,1.90619 v 0 c 0,2.38274 1.38657,3.73297 4.29695,3.97123 v 0 c 2.42532,0.23829 6.79088,-0.15883 13.16601,-1.27157 v 0 c 1.31661,4.13087 3.39545,10.00829 6.23652,17.79192 v 0 c -2.84107,-1.50906 -8.31536,-3.17699 -16.56141,-5.08317 v 0 c 1.24729,1.98562 4.50415,4.36755 9.77054,7.14822 v 0 c 3.60333,1.82676 6.4444,2.9387 8.73044,3.33582 v 0 c 2.07952,5.87742 4.57416,12.62852 7.41523,20.25329 v 0 c -2.00953,-1.351 -5.19711,-3.41525 -9.63194,-5.95685 v 0 c -5.26644,-3.01813 -8.03822,-4.44779 -8.45465,-4.44779 v 0 c -1.10807,0 -1.66242,0.0794 -1.80169,0.23829 v 0 c -0.2072,0.39713 -0.48435,0.55596 -0.69296,0.71482 v 0 c -0.13787,-0.31769 -0.20719,-0.47655 -0.27647,-0.47655 v 0 c -0.20787,-0.0794 -0.27719,0.63541 -0.27719,1.90618 v 0 c 0,1.74736 3.04831,3.89103 9.07764,6.6709 v 0 c 6.02861,2.54237 10.04773,3.65431 12.26513,3.33662 v 0 l 0.48507,-0.23827 c 0.62367,1.5885 1.17802,3.25642 1.8017,4.92432 v 0 c 2.70246,7.06802 5.33566,14.05818 7.83029,20.65041 v 0 c -1.66309,-1.58849 -5.96005,-4.44775 -12.88885,-8.81611 v 0 c -8.59252,-5.32146 -13.44315,-8.49845 -14.4133,-9.53096 v 0 c -0.69294,0.15883 -1.03942,0.31849 -1.24658,0.55595 v 0 c -0.27791,0.23829 -0.48579,1.11194 -0.48579,2.46218 v 0 c 0,2.77986 4.08841,6.51283 12.19591,11.27831 v 0 c 8.10744,4.68605 13.78963,6.27454 17.18508,4.84488 v 0 c 3.53402,9.37213 6.92948,18.18827 10.18635,26.44843 v 0 c -3.60334,-3.25641 -8.3847,-7.22764 -14.20543,-11.67543 v 0 c -9.14759,-7.06879 -14.62122,-11.35772 -16.42287,-12.94541 v 0 c 0,0.0786 -0.0693,0.31689 -0.1386,0.55515 v 0 c -0.1386,0.23909 -0.1386,1.03254 -0.1386,2.30334 v 0 c 0,2.46214 4.71204,7.38649 14.06684,14.77297 v 0 c 8.10749,6.51283 14.20542,10.00751 18.15523,10.3252 v 0 c 2.49464,6.51284 4.91995,12.54912 7.27595,18.42654 v 0 c -6.09793,-4.36835 -12.54234,-9.45153 -19.47249,-15.24955 v 0 c -10.39353,-8.97497 -17.94668,-15.32895 -22.52012,-19.06192 v 0 l -1.10942,0.63541 c 6.02934,8.65729 13.02813,16.67999 21.06703,23.98624 v 0 c 8.86899,7.86226 16.76861,12.62854 23.76736,14.13841 v 0 c 0.48579,1.19057 0.97015,2.30251 1.3859,3.49388 v 0 l -0.0693,0.87367 C 427.5054,552.7453 416.834,548.77406 408.8651,543.21434 v 0 c -6.99876,-4.92435 -12.33375,-11.43716 -15.9378,-19.37962 v 0 c -1.66305,-3.49468 -5.40499,-10.5635 -11.22643,-21.04754 v 0 c -5.82007,-10.32521 -8.79972,-15.48781 -9.00764,-15.48781 v 0 c -3.39543,0 -6.30581,2.78066 -8.86972,8.18073 v 0 c -3.67262,8.10213 -6.51368,13.26393 -8.59252,15.64667 v 0 c -1.9403,2.14445 -5.89006,5.95685 -11.91872,11.27829 v 0 c -8.24608,7.06801 -12.68092,10.96062 -13.37387,11.59601 v 0 2.85929 c 0.13856,0 0.55434,0.15886 1.10942,0.39713 v 0 c 1.59305,1.98561 7.6903,9.13383 18.22379,21.52408 v 0 c 10.53353,12.31083 15.38344,20.2533 14.48262,23.82741 v 0 c -0.97014,3.49468 -3.25686,5.87742 -6.99948,6.90993 v 0 c -1.35057,0.10326 -2.7108,0.15568 -4.08007,0.15568 v 0 c -8.04096,0 -16.40827,-1.78943 -25.23092,-5.31829 z"
       fill="url(#gradient-body)"
       style="fill:url(#linearGradient1083);stroke-width:0.74187" />
    <path
       id="tail-bottom"
       d="m 393.5503,363.23801 c 5.82142,-3.2564 9.84054,-5.32224 12.12726,-6.19433 v 0 c -0.41579,1.27 -0.83154,2.62022 -1.2473,3.81159 v 0 H 403.668 c -2.356,0 -5.54359,1.19137 -9.77055,3.41527 v 0 z"
       fill="url(#gradient-body)"
       style="fill:url(#linearGradient1085);stroke-width:0.74187" />
    <path
       id="tail-middle"
       d="m 384.68126,368.08293 c 3.25613,-1.82678 6.16721,-3.4947 8.80039,-4.84492 v 0 l 0.4158,1.03253 c -2.49464,1.35021 -5.40498,3.09756 -8.59256,5.32145 v 0 z"
       fill="url(#gradient-body)"
       style="fill:url(#linearGradient1087);stroke-width:0.74187" />
    <path
       style="fill:#f2bc29;stroke-width:0.74187"
       id="path36"
       d="m 96.900038,490.23791 c 1.524479,1.82677 2.841076,3.89181 4.019092,6.27455 3.18756,6.35397 4.85064,12.78737 4.85064,19.37962 0,10.64291 -2.91038,17.79113 -8.731144,21.44466 -4.989217,3.33584 -11.433634,3.65354 -19.125353,1.11195 -7.345239,-2.38274 -13.651068,-6.67167 -19.125348,-12.70795 -5.82076,-6.35397 -8.731149,-12.78737 -8.731149,-19.37962 0,-6.03627 3.048978,-11.75485 9.216208,-16.91746 6.929475,-5.95685 15.036968,-8.18074 24.322461,-6.90994 5.266397,0.79424 9.701262,3.33583 13.304593,7.70419 z" />
    <path
       id="pupil-right"
       d="m 75.834441,516.76575 c -3.741918,-0.47655 -6.860181,-1.66792 -9.562678,-3.41526 -2.841086,-2.06504 -4.296271,-4.36836 -4.296271,-6.98937 0,-2.30332 0.277176,-3.97123 0.831528,-4.8449 1.247313,-2.06505 4.019105,-3.09757 8.315376,-3.09757 4.919927,0 9.285492,1.11195 13.027411,3.17699 3.741919,2.06504 5.543584,4.44778 5.543584,6.98937 0,3.25641 -1.455195,5.4803 -4.296271,6.98937 -2.56391,1.2708 -5.82076,1.66792 -9.562679,1.19137 z"
       inkscape:label="#path38"
       style="stroke-width:0.74187" />
    <path
       style="fill:#f9eab6;stroke-width:0.74187"
       id="path40"
       d="m 83.803337,533.52444 c 2.078841,0.95309 3.118262,1.90619 3.118262,2.77986 0,1.90619 -1.593783,2.62102 -4.781339,2.14447 -2.771792,-0.39712 -6.305819,-1.58849 -10.394208,-3.65354 -4.157692,-2.06504 -7.622425,-4.28893 -10.532805,-6.67167 -3.118262,-2.77986 -4.712045,-5.08318 -4.712045,-6.90995 0,-0.31769 0.207882,-1.11194 0.69295,-2.38274 0.485059,-1.27079 0.900833,-2.14446 1.247303,-2.62101 3.603331,5.63915 9.562679,10.32521 17.808751,13.97874 1.940253,0.9531 4.504163,2.06504 7.553131,3.33584 z" />
    <path
       style="fill:#f9eab6;stroke-width:0.74187"
       id="path42"
       d="m 97.108059,494.84485 -0.138588,-0.3177 c -1.247303,-0.23827 -3.880503,-1.66791 -7.691716,-4.05065 -3.60332,-2.30332 -6.097936,-3.49469 -7.553121,-3.49469 -0.277186,0 -0.831538,0.0794 -1.455195,0.23827 -0.34647,0.0794 -0.554352,0 -0.69294,-0.23827 l 0.138588,-0.47655 c 0.207882,-0.15885 0.69294,-0.55597 1.247303,-1.11194 0.623656,-0.47655 1.178008,-0.71483 1.732371,-0.71483 1.870959,0 4.781339,1.19137 8.592552,3.41526 3.949796,2.38275 5.959344,4.28894 5.959344,5.71858 0,0.71482 -0.06928,1.03252 -0.138598,1.03252 z" />
    <path
       id="tooth-left"
       d="m 125.58827,434.08498 c 0,-0.0794 0.69295,-1.19137 2.14814,-3.33584 2.14813,-3.17699 4.98922,-4.76548 8.66184,-4.76548 3.39544,0 5.68218,2.06504 6.79089,6.1157 0.27718,2.38274 0.48506,4.05066 0.69295,5.1626 -7.62242,-0.95309 -13.78966,-1.90619 -18.36311,-2.85929 z"
       fill="#ffffff"
       style="stroke-width:0.74187" />
    <path
       id="tooth-right"
       d="m 119.42076,432.81411 c -1.10872,-0.3177 -2.14814,-0.71482 -2.84108,-1.11195 -2.00955,-1.03252 -5.89006,-2.22389 -11.91871,-3.65353 0.83154,-3.49469 1.87096,-5.24203 3.04898,-5.24203 2.77178,0 5.75147,2.14447 8.86973,6.35397 1.10871,1.42965 2.07884,2.70044 2.84108,3.65354 z"
       fill="#ffffff"
       style="stroke-width:0.74187" />
    <path
       id="nose"
       d="m 85.951542,458.38862 c 0.415774,0.23827 0.623656,0.71482 0.623656,1.42964 0,3.09756 -5.47429,5.87743 -16.353565,8.33959 -4.434869,0.9531 -8.176778,1.42965 -11.29505,1.35022 -3.326144,-0.0794 -5.058516,-0.9531 -5.058516,-2.46216 0,-2.54159 2.148136,-4.60664 6.375123,-6.27455 5.058515,-2.06504 12.403754,-3.01814 22.035727,-3.01814 1.801665,0 3.048968,0.15885 3.672625,0.6354 z"
       fill="#ffffff"
       style="stroke-width:0.74187" />
    <path
       id="path49"
       d="m 158.29526,510.88849 c -5.26639,3.09756 -11.91869,3.33583 -19.67971,0.95309 -7.76101,-2.46216 -14.27472,-6.7511 -19.67971,-13.10507 -4.22698,-4.8449 -6.92947,-10.00751 -8.17678,-15.48781 -0.55436,-2.38274 -0.83153,-4.84491 -0.83153,-7.3865 0,-0.79424 -0.0693,-2.38274 -0.27719,-4.76548 0.0693,-2.30331 0.69295,-4.13008 1.73237,-5.798 2.97968,-4.60663 10.46351,-6.90994 22.38221,-6.90994 11.98799,0 21.0656,4.68605 27.16355,13.97874 1.38589,1.98562 2.4946,4.05066 3.46473,6.1157 1.94025,4.44778 2.91038,8.89556 2.91038,13.42277 0,9.29269 -2.97967,15.56723 -9.00832,18.9825 z"
       style="stroke-width:0.74187" />
    <path
       style="fill:#f2bc29;stroke-width:0.74187"
       id="path51"
       d="m 121.77679,490.07906 c -0.27718,0 -0.41577,0.3177 -0.41577,0.9531 0,1.03252 0.48507,2.14446 1.3166,3.25641 -0.41577,-0.3177 -0.76224,-0.71482 -1.10872,-1.11195 -3.67261,-4.13008 -6.02864,-8.33959 -7.06806,-12.70794 -0.34647,-1.74735 -0.62365,-3.41526 -0.62365,-5.08318 0,-4.44778 1.3166,-7.46592 3.74191,-8.89557 2.7025,-1.66791 8.24608,-2.46216 16.56145,-2.46216 10.74068,0 18.77888,4.28893 23.90669,12.94622 0.13859,0.15885 0.27718,0.39712 0.41577,0.47655 2.97967,5.1626 4.50416,10.08693 4.50416,14.69356 0,7.14822 -2.6332,11.75486 -7.69172,13.74047 -4.50416,1.82677 -10.11703,1.42965 -16.83862,-1.11194 -4.71205,-1.82677 -8.93902,-4.28894 -12.61165,-7.54535 1.59377,1.2708 3.67263,2.54159 6.23652,3.97124 7.06807,3.73296 12.61165,5.32145 16.56145,4.68605 0.20788,-0.15885 0.27718,-0.55597 0.27718,-1.19137 0,-1.03252 -2.5639,-2.30331 -7.62242,-4.05066 -1.59378,-0.55597 -4.57345,-1.35022 -8.73114,-2.54159 -1.52449,-0.39712 -3.25686,-1.82676 -5.2664,-4.13008 -1.80166,-2.22389 -3.53403,-3.49468 -5.12781,-3.73296 -0.13859,-0.0794 -0.27718,-0.15885 -0.41577,-0.15885 z" />
    <path
       id="pupil-left"
       d="m 149.28688,492.06499 c -2.28674,0.47655 -5.19712,0.23827 -8.52326,-0.79425 -3.39544,-1.11194 -6.23652,-2.62101 -8.59255,-4.60663 -2.6332,-2.14447 -3.9498,-4.36836 -3.9498,-6.51282 0,-0.79425 0.0693,-1.50907 0.20788,-2.06504 0.0693,-0.6354 0.20789,-1.19137 0.34648,-1.66792 1.03942,-2.14447 2.97967,-3.33584 5.82076,-3.33584 3.04897,0 6.23652,1.19137 9.63197,3.57411 0.97013,0.71482 1.94026,1.5885 2.97968,2.38274 4.01909,3.57411 6.02864,6.35398 6.02864,8.41902 0,2.46216 -1.31661,3.97123 -3.9498,4.60663 z"
       inkscape:label="#path53"
       style="stroke-width:0.74187" />
    <path
       style="fill:#f9eab6;stroke-width:0.74187"
       id="path55"
       d="m 150.67277,470.85845 c 1.87096,2.06504 3.04897,3.65353 3.39545,4.60663 -0.69295,0.0794 -2.63321,-0.9531 -5.89006,-3.33584 -3.81121,-2.62101 -6.30582,-4.2095 -7.69172,-4.68605 0.20789,-0.23828 0.62365,-0.39713 1.17801,-0.6354 0.62366,-0.15885 1.24731,-0.15885 1.94026,-0.15885 2.14813,0 4.57345,1.35022 7.06806,4.20951 z" />
    <path
       style="fill:#f9eab6;stroke:none;stroke-width:0.74187"
       id="path57"
       d="m 121.36123,491.03224 c 0,-0.6354 0.13858,-0.9531 0.41577,-0.9531 0.13859,0 0.27718,0.0794 0.41576,0.15885 1.59379,0.23827 3.32615,1.50907 5.12781,3.73296 2.00955,2.30332 3.74192,3.73296 5.26641,4.13008 4.15768,1.19137 7.13736,1.98562 8.73114,2.54159 5.05852,1.74735 7.62242,3.01814 7.62242,4.05066 0,0.6354 -0.0693,1.03252 -0.13859,1.03252 -0.0693,0 -0.0693,0 -0.13859,0.15885 -3.9498,0.6354 -9.49338,-0.95309 -16.56145,-4.68605 -2.5639,-1.42965 -4.64275,-2.70044 -6.23652,-3.97124 -1.17801,-0.87367 -2.21743,-1.90619 -3.18756,-2.93871 -0.83154,-1.11195 -1.3166,-2.22389 -1.3166,-3.25641 z" />
    <path
       d="m 194.39783,462.43935 c -0.48507,0.71483 -1.03942,1.35022 -1.59378,1.98562 -0.55435,0.6354 -1.10872,1.2708 -1.59377,1.90619 -3.32616,4.76548 -8.66185,8.57787 -15.79922,11.27831 -0.83152,0.3177 -1.59377,0.47655 -2.35601,0.55597 -2.97968,0.15885 -5.89006,0.3177 -8.66185,0.3177 -0.97013,-2.06504 -2.07884,-4.13008 -3.46473,-6.1157 -6.09795,-9.29269 -15.17556,-13.97874 -27.16355,-13.97874 -11.91871,0 -19.40253,2.30331 -22.38221,6.90994 -1.03942,1.66792 -1.66307,3.49469 -1.73237,5.798 0.20789,2.38274 0.27719,3.97124 0.27719,4.76548 0,2.54159 0.27717,5.00376 0.83153,7.3865 -0.97013,0.3177 -1.87095,0.6354 -2.91038,1.03252 -2.35602,0.79425 -4.50417,1.90619 -6.65229,3.09756 -7.068075,-9.76923 -16.630739,-14.69356 -28.410848,-14.69356 h -1.732371 c 0.554353,-0.0794 1.039421,-0.3177 1.593773,-0.47655 7.553132,-2.38274 15.244851,-4.28893 23.075145,-5.71858 2.979674,-0.55597 4.919941,-1.03252 5.751471,-1.58849 0.97013,-0.71482 1.52448,-2.06504 1.52448,-3.97123 0,-4.05066 -2.35601,-8.49844 -6.929471,-13.34335 -5.404982,-5.63915 -12.057281,-8.73671 -20.09548,-9.45154 0.34648,-0.87367 0.623666,-1.90619 0.831548,-2.85928 0.277176,-1.19137 0.623647,-2.70044 0.970127,-4.52721 2.979674,0.6354 6.444406,1.42964 10.394207,2.38274 14.967669,3.49468 24.183869,5.798 27.579319,6.83052 13.72035,4.13008 28.27225,6.98937 43.5171,8.57787 16.63074,1.74734 24.94611,0.71482 24.94611,-3.01814 0,-2.54159 -9.42408,-4.76548 -28.41085,-6.83052 -1.10872,-0.15885 -2.14814,-0.23828 -3.18756,-0.39713 v -0.23827 c 0,-3.17699 -1.17801,-6.98937 -3.53403,-11.43715 -3.18756,-5.95685 -7.13736,-8.89557 -11.98799,-8.89557 -4.29628,0 -7.76102,1.11195 -10.53281,3.33584 -1.94025,2.22389 -2.97967,3.49468 -3.04897,3.65353 -0.27718,-0.15885 -2.00955,-1.82676 -5.1971,-4.8449 -3.74192,-2.85929 -7.06806,-4.36836 -10.04774,-4.36836 -3.74192,0 -6.44442,1.58849 -8.315375,4.68606 -1.108714,3.25641 -1.732361,5.1626 -1.940253,5.4803 l -0.138588,0.79425 c -8.10748,-1.82677 -18.709579,-3.81239 -31.737,-6.19513 -10.463501,0 -17.80874,1.11195 -22.174325,3.17699 -1.385891,0.71482 -2.771782,1.66792 -4.088379,2.85929 -1.732371,1.58849 -2.771792,2.54159 -3.118262,2.85929 -0.138589,-1.11195 -0.277187,-0.6354 -0.277187,1.42964 0,1.42964 0.692951,2.30332 2.148146,2.70044 0.69294,0.15885 2.148135,0.3177 4.226977,0.3177 2.841076,0 4.781339,-0.3177 5.682172,-0.9531 0.207882,-0.15885 0.69295,-0.79425 1.524479,-1.90619 1.247313,-1.90619 6.097946,-2.85929 14.413312,-2.85929 0.485068,0 2.771792,0.47655 6.860171,1.42964 -0.692941,2.70044 -1.039421,4.68606 -1.039421,5.87743 0.06928,1.03252 0.138598,2.06504 0.415784,2.93871 -7.137367,0.79425 -13.858959,5.63916 -20.164788,14.45529 -2.356008,3.33584 -4.365565,6.83053 -6.097936,10.48406 -1.455185,3.09756 -2.148136,4.92433 -2.148136,5.798 0,3.73296 1.385901,6.4334 4.157693,8.18074 3.464733,2.06505 8.453954,1.9062 15.106253,-0.79424 -4.088399,2.85929 -7.830308,7.38649 -11.225756,13.50219 -0.900823,1.50907 -1.663067,3.09757 -2.494606,4.76548 -0.34647,-0.47654 -0.831538,-0.95309 -1.385891,-1.50907 -1.524489,-1.42964 -4.434869,-3.97123 -8.592562,-7.46592 -8.315365,-7.62476 -12.473048,-15.24953 -12.473048,-22.8743 0,-23.66855 0.69294,-43.52472 2.217429,-59.56852 0.138598,-2.14445 1.801665,-5.40087 4.850634,-9.6898 4.296281,-6.1157 10.117031,-11.67543 17.46228,-16.7586 7.622425,-5.32147 16.492153,-9.68982 26.332008,-13.1845 -2.286724,2.77986 -3.464733,5.40088 -3.464733,8.02189 0,2.70044 0.554353,4.05066 1.663068,3.97123 0.762244,-0.0794 2.286733,-1.03252 4.434869,-2.93872 6.028642,-5.24202 10.671393,-7.86303 13.858949,-7.86303 5.959335,0 10.117032,0.71481 12.334452,1.98562 2.8411,1.74734 5.75147,2.93871 8.86974,3.57411 0.48506,0 0.69294,-0.6354 0.69294,-1.9062 0,-2.14447 -2.28672,-4.52721 -6.92947,-7.14822 -3.04897,-1.74734 -6.09795,-2.85929 -9.146906,-3.57411 13.373896,-2.46217 28.202966,-3.73296 44.625816,-3.73296 2.07885,0 6.86019,0.63539 14.41331,1.9062 7.55313,1.27079 12.33447,1.90618 14.41332,1.90618 2.91038,0 4.91992,-0.63539 6.16723,-1.90618 0.69295,-0.71483 1.03942,-1.66793 1.03942,-2.8593 0,-1.42964 -2.42532,-2.85928 -7.27595,-4.36836 8.52326,-1.27078 22.24362,-2.14446 41.23038,-2.621 -0.83154,5.40087 -1.2473,8.81613 -1.2473,10.3252 0.0693,1.82676 0.13859,3.65353 0.20788,5.40088 -2.7025,0.79425 -5.33569,1.58849 -8.03819,2.38274 -2.49462,0.79425 -5.05852,1.90619 -7.48384,3.33583 -0.90083,0.47656 -1.80166,1.03253 -2.6332,1.42965 -5.05852,2.54158 -8.73113,6.51282 -11.08716,11.9137 -0.20788,0.55597 -0.55435,0.95309 -1.03942,1.19137 -1.80167,1.11195 -2.35602,3.25642 -1.66308,6.4334 1.4552,6.67168 3.53404,13.02565 6.23654,19.22077 0.41576,0.79425 0.83154,1.5885 1.38589,2.30331 4.78134,5.87744 8.38467,12.70796 10.94857,20.49158 0.27718,0.95309 0.41577,1.82676 0.55436,2.62101 0.27718,2.54159 0.55435,5.08318 0.69295,7.62477 0.62365,8.97499 -1.24731,16.20263 -5.61288,21.84178 z"
       id="path60"
       fill="#d1c1ad"
       style="stroke-width:0.74187" />
    <path
       d="m 275.05686,362.44377 c -1.24731,0.0794 -2.42532,0.0794 -3.67263,0 0.69295,-4.13009 1.87096,-8.89557 3.60333,-14.29644 0.20788,-0.55598 0.41578,-1.19137 0.55436,-1.74735 2.84109,1.5885 7.13736,3.33584 12.81953,5.48031 9.77056,3.57411 17.1851,6.51282 22.03573,8.81613 -4.98922,2.14447 -10.4635,3.09757 -16.49214,2.70044 -4.78134,-0.15885 -9.56268,-0.47654 -14.34402,-0.79424 -1.52449,-0.15885 -2.97968,-0.15885 -4.50416,-0.15885 z"
       id="path62"
       fill="#d1c1ad"
       style="stroke-width:0.74187" />
    <path
       d="m 327.51313,547.90038 c -0.55436,-2.30331 -0.69295,-3.57411 -0.41578,-3.65353 0.0693,-0.0794 0.27719,0 0.41578,0.23827 2.07884,1.98562 4.36556,5.00376 6.6523,9.05442 l 5.82076,10.00751 c -1.17802,1.50906 -3.46475,-0.15885 -6.7216,-5.00376 -3.32615,-4.76548 -5.19711,-8.33959 -5.75146,-10.64291 z"
       id="path65"
       style="stroke-width:0.74187" />
    <path
       d="m 304.85361,560.68784 c -14.5519,-10.56349 -22.17433,-16.91746 -22.93657,-19.06193 -0.83154,-2.06504 -1.38589,-3.17698 -1.80167,-3.33583 -0.34647,-0.15885 -0.20788,-0.3177 0.48507,-0.47655 4.15768,3.49469 12.95812,9.84866 26.4706,19.14135 13.58177,9.29268 21.96644,15.24953 25.15399,18.0294 -3.81121,1.19137 -12.88883,-3.57411 -27.37142,-14.29644 z"
       id="path67"
       style="stroke-width:0.74187" />
    <path
       d="m 299.10228,515.89239 c -2.7025,-0.3177 -4.0191,-1.66792 -4.0191,-4.13008 0,-1.2708 0.0693,-2.06504 0.41577,-2.22389 l 0.34647,-0.3177 c 8.17679,-1.2708 13.65107,-2.70044 16.42286,-4.44778 2.35603,-1.50907 3.60333,-3.65354 3.60333,-6.67168 0,-4.44778 -3.25685,-8.73671 -9.56268,-13.02564 -3.18756,-1.98562 -5.40499,-3.33584 -6.583,-4.28894 -2.00955,-1.42964 -3.04897,-2.85928 -3.04897,-4.13008 0,-1.35022 0.34648,-2.38274 0.90083,-2.93871 0.20788,-0.23828 1.03942,-0.3177 2.35603,-0.23828 3.8805,0.47655 8.38466,3.89181 13.37388,10.16636 5.05852,6.19513 7.48384,11.11946 7.48384,14.61414 0,3.25641 -1.3166,6.27455 -4.0191,9.29269 -2.28672,2.70044 -5.1971,4.84491 -8.80043,6.4334 -3.46475,1.50907 -6.44442,2.14447 -8.86973,1.90619 z"
       id="path69"
       style="stroke-width:0.74187" />
    <path
       d="m 294.45939,533.04781 c 7.13736,4.84491 14.89837,11.04003 23.35233,18.42653 8.17678,7.06879 14.6212,13.34334 19.40254,18.74422 -4.91993,-0.39712 -12.47306,-5.32145 -22.5208,-14.85241 -8.45396,-7.94247 -15.24485,-15.32897 -20.23407,-22.31834 z"
       id="path71"
       style="stroke-width:0.74187" />
    <path
       d="m 220.52209,554.9691 -0.55436,0.3177 c -8.17678,-4.68606 -12.88883,-7.46592 -14.06684,-8.26017 -4.50416,-3.01813 -7.27595,-5.95685 -8.38467,-8.57786 -0.41576,-0.79425 -0.55435,-1.74734 -0.55435,-2.54159 0,-1.42965 0.27718,-2.30332 0.83154,-2.77986 0.34647,-0.23828 1.03942,-0.47655 1.94025,-0.71483 1.87095,1.66792 6.09794,5.16261 12.75024,10.40464 5.75145,4.76548 8.59254,8.10131 8.59254,9.92808 0,1.2708 -0.13859,1.98562 -0.55435,2.22389 z"
       id="path75"
       style="stroke-width:0.74187" />
    <path
       d="m 217.7503,502.54882 c 0,-2.06505 0.62365,-3.73296 1.80166,-5.24203 0.76225,-1.03252 2.14814,-2.77987 4.29627,-5.24203 -2.00955,-1.42965 -3.25685,-3.01814 -3.8805,-4.76548 -0.34647,-0.9531 -0.55436,-2.38274 -0.55436,-4.28893 0,-2.38274 0.83154,-5.71858 2.49461,-10.00751 -2.35602,-0.71483 -4.22698,-1.9062 -5.54358,-3.81239 -0.90083,-1.27079 -1.3859,-2.30331 -1.3859,-3.17699 0,-1.19137 0.55437,-2.62101 1.66308,-4.44778 0.69295,-0.95309 1.59377,-2.38274 2.77179,-4.13008 -3.67262,-3.73296 -6.02864,-6.27456 -7.20666,-7.62477 -1.80166,-2.14447 -2.42531,-4.13008 -1.94025,-6.03627 0,-2.5416 -1.10872,-5.24203 -3.46473,-8.3396 -2.28674,-3.09756 -3.46475,-5.40087 -3.46475,-6.90995 0,-1.11194 0.41578,-2.70043 1.24732,-5.08317 0.83153,-2.22389 1.2473,-3.89181 1.2473,-4.92433 0,-1.11195 -2.35603,-4.68606 -7.20666,-10.64292 -4.85063,-5.87741 -7.20665,-8.97498 -7.20665,-9.21325 0,-0.23828 0.20788,-0.47656 0.62365,-0.87368 0.27718,-0.23827 1.38589,-1.11194 3.25685,-2.62101 4.71205,3.81238 7.76102,6.51283 9.2162,8.0219 3.25686,3.41526 5.405,6.98937 6.58301,10.72233 0.41577,1.50906 0.55436,3.25641 0.20788,5.48029 -0.55435,2.38274 -0.90083,4.05067 -1.03942,5.00376 -0.55435,2.54159 0.34648,4.5272 2.77179,5.87743 2.56391,1.42964 3.88051,3.09756 3.88051,4.92433 -0.41577,2.46216 -0.62365,4.36836 -0.90084,5.71858 -0.41576,2.62101 -0.20788,4.5272 0.62366,5.71857 1.80167,2.85929 4.0191,4.92433 6.51371,6.19513 1.52448,0.79425 2.35602,2.22389 2.35602,3.97123 0,1.11195 -0.48507,2.54159 -1.4552,4.20951 -1.2473,1.82677 -2.14813,3.25641 -2.70248,4.36836 3.11826,0.23827 5.1971,1.19137 5.95934,2.85929 0.27718,0.47654 0.41577,1.58849 0.41577,3.17698 0,1.2708 -0.55435,3.17699 -1.66308,5.71858 -1.10871,2.54159 -1.66307,4.44778 -1.66307,5.71858 0,1.58849 0.90084,2.77986 2.63321,3.49468 1.73236,0.71482 2.63319,1.90619 2.63319,3.65354 0,2.06504 -1.2473,5.00375 -3.74192,8.73671 -2.00954,2.93871 -4.08839,5.55973 -6.23652,7.62477 0,-0.23827 -0.55436,-0.3177 -1.66308,-0.3177 -0.13859,-0.55597 -0.13859,-0.95309 -0.27717,-1.11194 z"
       id="path77"
       style="stroke-width:0.74187" />
    <path
       d="m 247.68543,469.34946 c -0.20789,3.57411 -0.83154,7.0688 -1.80167,10.48406 -2.07884,6.75109 -5.33569,10.08693 -9.56267,10.00751 l -0.27718,-2.06505 c 0,-0.95309 1.03942,-4.2095 3.04896,-9.53096 2.14815,-5.95685 3.32616,-8.97498 3.32616,-9.05441 -4.08839,-0.9531 -6.6523,-2.06504 -7.55313,-3.49469 -0.34647,-0.55597 -0.48506,-1.90619 -0.48506,-4.13008 0,-0.95309 0.48506,-2.38274 1.52448,-4.28893 1.03942,-1.90619 1.52449,-3.49469 1.52449,-4.76548 0,-0.87367 -0.34648,-1.66792 -1.03942,-2.22389 -0.90084,-0.6354 -1.52449,-1.11195 -2.00955,-1.5885 -1.59378,-1.90619 -1.73237,-5.87742 -0.27719,-11.9137 -4.15768,-1.03252 -6.37511,-3.25641 -6.5137,-6.90994 -0.0693,-0.79425 0,-2.22389 0.27718,-4.28894 0.0693,-1.66791 0.0693,-2.77986 -0.13859,-3.41526 0,-0.3177 -1.52449,-2.70044 -4.43487,-6.98938 -2.77179,-4.28892 -4.15768,-6.98936 -4.15768,-8.10131 0,-1.42965 0.27717,-2.38274 0.76224,-3.01814 0.20789,-0.15884 0.90084,-0.47654 2.00955,-0.95309 1.10872,0.47655 3.39544,3.25641 7.13736,8.26017 3.74192,5.1626 5.61288,8.18074 5.61288,9.37211 0,1.11194 -0.13859,2.54159 -0.41577,3.97123 -0.27719,1.5885 -0.41577,2.62102 -0.41577,3.17699 0.48507,0.6354 2.07884,2.22389 4.71204,4.76548 1.3166,1.19137 1.94026,2.22389 1.94026,3.17699 0.0693,1.58849 0.62365,4.28893 1.66307,8.10131 1.10872,3.73296 1.66307,6.59225 1.66307,8.57787 0,1.58849 -0.13859,3.01814 -0.48506,4.13008 -0.41577,1.2708 -1.03942,2.54159 -2.00955,3.97124 3.39544,1.50906 5.3357,2.85928 5.95935,4.05065 0.20788,0.47655 0.41577,2.06505 0.41577,4.68606 z"
       id="path79"
       style="stroke-width:0.74187" />
    <path
       d="m 350.58814,417.4849 c -2.14814,2.70044 -5.61287,3.89181 -10.39421,3.73296 0.0693,-2.46216 1.38589,-4.52721 3.81121,-6.1157 2.42531,-1.66792 3.74191,-3.25641 3.74191,-5.00375 0,-2.14447 -1.87095,-4.92433 -5.54357,-8.57787 -3.74192,-3.57411 -5.54359,-5.71858 -5.54359,-6.35397 0,-1.35022 0.20789,-2.30332 0.76225,-2.70044 4.08839,1.11194 7.13736,3.73296 11.22574,7.14822 3.11828,3.09756 4.64276,6.03627 4.64276,9.05441 0,3.73296 -0.90084,6.67167 -2.7025,8.81614 z"
       id="path81"
       style="stroke-width:0.74187" />
    <path
       d="m 333.61093,432.97272 c 2.77179,3.97123 4.15768,7.46592 4.15768,10.48406 0,4.28893 -0.55435,7.78362 -1.73236,10.32521 -1.03943,2.54158 -3.94981,5.00375 -8.59255,7.30707 -5.75147,1.50906 -6.86019,-0.0794 -3.32616,-4.84491 0.76225,-1.03252 1.94025,-2.06504 3.53404,-3.09756 3.18755,-2.38274 4.85063,-4.28893 4.85063,-6.03628 0,-3.01814 -1.87096,-6.35397 -5.40499,-10.00751 -3.60333,-3.65353 -5.47428,-6.03627 -5.47428,-6.98937 0,-1.19137 0.13858,-1.98561 0.34647,-2.30331 0.13858,-0.3177 0.20788,-0.39713 0.20788,-0.55598 l 3.39545,-0.63539 c 2.4946,0 5.1971,2.06504 8.03819,6.35397 z"
       id="path83"
       style="stroke-width:0.74187" />
    <path
       d="m 290.92526,445.99868 c 1.59379,-4.05066 3.88051,-7.54535 6.79089,-10.32521 1.94025,-1.98562 2.91038,-4.28893 2.91038,-6.98937 0,-2.62102 -2.21743,-4.92433 -6.5137,-6.98937 -4.36558,-2.06505 -6.58301,-3.81239 -6.58301,-5.24203 0,-1.2708 0.13859,-2.06504 0.34647,-2.30332 0.13859,-0.23827 0.27719,-0.39712 0.27719,-0.55597 l 2.97968,-0.6354 c 2.77178,0 5.1971,0.9531 7.41453,2.85929 1.3859,-1.90619 2.77179,-3.65353 4.01909,-5.24203 0.69295,-1.19137 1.03942,-2.70044 1.03942,-4.60663 0,-3.65353 -1.31659,-7.78362 -3.9498,-12.31082 -2.70248,-3.81239 -4.01909,-5.87743 -4.01909,-6.1157 0,-1.2708 0,-2.06505 0.20788,-2.30332 0.1386,-0.15885 0.41577,-0.3177 0.83154,-0.55597 l 2.28673,-0.6354 c 2.97968,0 5.47428,3.41526 7.41454,10.16636 1.52448,4.92433 2.28672,9.05441 2.28672,12.39025 0,4.60663 -0.27718,7.38649 -0.83153,8.41901 -0.97013,1.9062 -3.11827,3.01814 -6.44442,3.49469 h -0.48505 c 0.13858,0.23827 0.34647,0.47655 0.48505,0.79425 2.42533,3.49468 3.60333,6.67167 3.60333,9.53096 0,3.25641 -1.66307,7.14822 -5.05851,11.75485 -3.60333,4.92433 -6.58301,6.67167 -9.00833,5.40088 z"
       id="path85"
       style="stroke-width:0.74187" />
  </g>
</svg>
