<?xml version="1.0" encoding="UTF-8" standalone="no"?>
<!-- Created with Inkscape (http://www.inkscape.org/) -->

<svg
   width="100"
   height="100"
   viewBox="0 0 100 100"
   version="1.1"
   id="svg5"
   sodipodi:docname="activity.svg"
   inkscape:version="1.1.1 (3bf5ae0d25, 2021-09-20)"
   xmlns:inkscape="http://www.inkscape.org/namespaces/inkscape"
   xmlns:sodipodi="http://sodipodi.sourceforge.net/DTD/sodipodi-0.dtd"
   xmlns="http://www.w3.org/2000/svg"
   xmlns:svg="http://www.w3.org/2000/svg">
  <sodipodi:namedview
     id="namedview16"
     pagecolor="#ffffff"
     bordercolor="#666666"
     borderopacity="1.0"
     inkscape:pageshadow="2"
     inkscape:pageopacity="0.0"
     inkscape:pagecheckerboard="0"
     inkscape:document-units="px"
     showgrid="false"
     inkscape:zoom="2.9611953"
     inkscape:cx="85.776172"
     inkscape:cy="41.199579"
     inkscape:window-width="1920"
     inkscape:window-height="1017"
     inkscape:window-x="1912"
     inkscape:window-y="-8"
     inkscape:window-maximized="1"
     inkscape:current-layer="svg5"
     units="px" />
  <defs
     id="defs2" />
  <g
     id="layer1"
     style="display:inline"
     transform="matrix(2.9073289,0,0,2.9073286,-168.72664,-198.34044)">
    <path
       style="fill:#80e456;fill-opacity:1;stroke:#0000ff;stroke-width:0;stroke-linecap:square;stroke-linejoin:round"
       id="path846"
       d="M 92.430765,85.41877 A 17.197916,17.197916 0 0 1 75.233074,102.61669 17.197916,17.197916 0 0 1 58.034933,85.41922 17.197916,17.197916 0 0 1 75.232174,68.220854 17.197916,17.197916 0 0 1 92.430765,85.417869" />
    <path
       style="fill:#ffffff;fill-opacity:1;stroke:#0000ff;stroke-width:0;stroke-linecap:square;stroke-linejoin:round"
       id="path4624"
       d="m 81.873689,76.922379 a 1.5914321,1.5282519 0 0 1 -1.591411,1.528251 1.5914321,1.5282519 0 0 1 -1.591453,-1.528211 1.5914321,1.5282519 0 0 1 1.59137,-1.528292 1.5914321,1.5282519 0 0 1 1.591494,1.528172" />
    <rect
       style="fill:#ffffff;fill-opacity:1;stroke:#0000ff;stroke-width:0;stroke-linecap:square;stroke-linejoin:round;stroke-miterlimit:4;stroke-dasharray:none"
       id="rect5013"
       width="10.045698"
       height="2.7754922"
       x="-44.173405"
       y="109.77852"
       ry="1.3877461"
       transform="matrix(0.56157424,-0.82742635,0.88802307,0.45979889,0,0)" />
    <rect
       style="fill:#ffffff;fill-opacity:1;stroke:#0000ff;stroke-width:0;stroke-linecap:square;stroke-linejoin:round;stroke-miterlimit:4;stroke-dasharray:none"
       id="rect5117"
       width="1.5840971"
       height="4.6986861"
       x="5.7865334"
       y="112.85196"
       ry="0.83905107"
       transform="matrix(0.71267977,-0.70148952,0.65827937,0.75277372,0,0)" />
    <rect
       style="fill:#ffffff;fill-opacity:1;stroke:#0000ff;stroke-width:0;stroke-linecap:square;stroke-linejoin:round;stroke-miterlimit:4;stroke-dasharray:none"
       id="rect5221"
       width="4.6753287"
       height="1.4847327"
       x="33.823326"
       y="110.69385"
       ry="0.65119916"
       transform="rotate(-27.298955)" />
    <rect
       style="fill:#ffffff;fill-opacity:1;stroke:#0000ff;stroke-width:0;stroke-linecap:square;stroke-linejoin:round;stroke-miterlimit:4;stroke-dasharray:none"
       id="rect5325"
       width="6.002111"
       height="1.6110933"
       x="73.19416"
       y="79.196274"
       ry="0.58372992" />
    <rect
       style="fill:#ffffff;fill-opacity:1;stroke:#0000ff;stroke-width:0;stroke-linecap:square;stroke-linejoin:round;stroke-miterlimit:4;stroke-dasharray:none"
       id="rect5429"
       width="1.5795031"
       height="6.0337014"
       x="108.01842"
       y="-5.4905491"
       ry="0.78975153"
       transform="rotate(49.755833)" />
    <rect
       style="fill:#ffffff;fill-opacity:1;stroke:#0000ff;stroke-width:0;stroke-linecap:square;stroke-linejoin:round;stroke-miterlimit:4;stroke-dasharray:none"
       id="rect5533"
       width="6.999948"
       height="1.999999"
       x="74.254463"
       y="85.988144"
       ry="0.87719327"
       transform="skewX(-0.01186821)" />
    <rect
       style="fill:#ffffff;fill-opacity:1;stroke:#0000ff;stroke-width:0;stroke-linecap:square;stroke-linejoin:round;stroke-miterlimit:4;stroke-dasharray:none"
       id="rect5637"
       width="2.0350232"
       height="6.4210196"
       x="36.267506"
       y="127.28375"
       ry="0.96702176"
       transform="matrix(0.66497951,-0.7468616,0.43524924,0.90031,0,0)" />
    <rect
       style="fill:#ffffff;fill-opacity:1;stroke:#0000ff;stroke-width:0;stroke-linecap:square;stroke-linejoin:round;stroke-miterlimit:4;stroke-dasharray:none"
       id="rect5821"
       width="1.8763539"
       height="5.7184114"
       x="113.55237"
       y="3.3013222"
       ry="0.78975213"
       transform="rotate(47.529484)" />
    <rect
       style="fill:#ffffff;fill-opacity:1;stroke:#0000ff;stroke-width:0;stroke-linecap:square;stroke-linejoin:round;stroke-miterlimit:4;stroke-dasharray:none"
       id="rect6005"
       width="5.4503613"
       height="1.8316787"
       x="66.320175"
       y="89.260826"
       ry="0.78975213" />
  </g>
</svg>
