# Blender 4.2.3 LTS
# www.blender.org
mtllib rect.mtl
o Cube.001
v 0.000000 2.000000 0.000000
v 0.000000 0.000000 0.000000
v 0.000000 2.000000 2.000000
v 0.000000 0.000000 2.000000
vn 1.0000 -0.0000 -0.0000
vt 0.996293 -0.002978
vt 0.999443 1.000402
vt -0.000553 1.003552
vt -0.003703 -0.002978
s 0
usemtl Material.001
f 2/1/1 1/2/1 3/3/1 4/4/1
o Cube.002
v 0.000000 2.000000 -2.000000
v 0.000000 0.000000 -2.000000
v 0.000000 2.000000 0.000000
v 0.000000 0.000000 0.000000
vn 1.0000 -0.0000 -0.0000
vt 0.996293 -0.002978
vt 0.999443 1.000402
vt -0.000553 1.003552
vt -0.003703 -0.002978
s 0
usemtl Material.009
f 6/5/2 5/6/2 7/7/2 8/8/2
o Cube.003
v 0.000000 0.000000 0.000000
v 0.000000 -2.000000 0.000000
v 0.000000 0.000000 2.000000
v 0.000000 -2.000000 2.000000
vn 1.0000 -0.0000 -0.0000
vt 0.996293 -0.002978
vt 0.999443 1.000402
vt -0.000553 1.003552
vt -0.003703 -0.002978
s 0
usemtl Material.011
f 10/9/3 9/10/3 11/11/3 12/12/3
o Cube.004
v 0.000000 0.000000 -2.000000
v 0.000000 -2.000000 -2.000000
v 0.000000 0.000000 0.000000
v 0.000000 -2.000000 0.000000
vn 1.0000 -0.0000 -0.0000
vt 0.996293 -0.002978
vt 0.999443 1.000402
vt -0.000553 1.003552
vt -0.003703 -0.002978
s 0
usemtl Material.013
f 14/13/4 13/14/4 15/15/4 16/16/4
