# Blender 4.2.3 LTS
# www.blender.org
mtllib butterfly.mtl
o 平面
v 0.100000 0.000000 0.000000
v 2.900000 0.000000 0.000000
v 0.100000 -2.000000 -0.000000
v 2.900000 -2.000000 -0.000000
v -0.100000 0.000000 0.000000
v -2.900000 0.000000 0.000000
v -0.100000 -2.000000 -0.000000
v -2.900000 -2.000000 -0.000000
vn -0.0000 -0.0000 -1.0000
vt 0.000000 0.000000
vt 1.000000 0.000000
vt 1.000000 1.000000
vt 0.000000 1.000000
s 0
usemtl 材质
f 1/1/1 2/2/1 4/3/1 3/4/1
f 5/1/1 7/4/1 8/3/1 6/2/1
o 平面.001
v 0.100000 2.000000 0.000000
v 2.900000 2.000000 0.000000
v 0.100000 0.000000 0.000000
v 2.900000 0.000000 0.000000
v -0.100000 2.000000 0.000000
v -2.900000 2.000000 0.000000
v -0.100000 0.000000 0.000000
v -2.900000 0.000000 0.000000
vn -0.0000 -0.0000 -1.0000
vt 0.000000 0.000000
vt 1.000000 0.000000
vt 1.000000 1.000000
vt 0.000000 1.000000
s 0
usemtl 材质.001
f 9/5/2 10/6/2 12/7/2 11/8/2
f 13/5/2 15/8/2 16/7/2 14/6/2
o 平面.002
v -0.097000 1.332000 0.000000
v 0.017000 1.332000 0.000000
v -0.097000 -0.532000 -0.000000
v 0.017000 -0.532000 -0.000000
v 0.097000 1.332000 0.000000
v -0.017000 1.332000 0.000000
v 0.097000 -0.532000 -0.000000
v -0.017000 -0.532000 -0.000000
vn -0.0000 -0.0000 -1.0000
vt 0.000000 0.000000
vt 1.000000 0.000000
vt 1.000000 1.000000
vt 0.000000 1.000000
s 0
usemtl 材质.002
f 17/9/3 18/10/3 20/11/3 19/12/3
f 21/9/3 23/12/3 24/11/3 22/10/3
o 平面.004
v -0.390000 -0.512000 -0.005599
v 0.010000 -0.512000 -0.005599
v -0.390000 -1.328000 -0.005599
v 0.010000 -1.328000 -0.005599
v 0.390000 -0.512000 -0.005599
v -0.010000 -0.512000 -0.005599
v 0.390000 -1.328000 -0.005599
v -0.010000 -1.328000 -0.005599
vn -0.0000 -0.0000 -1.0000
vt 0.000000 0.000000
vt 1.000000 0.000000
vt 1.000000 1.000000
vt 0.000000 1.000000
s 0
usemtl 材质.003
f 25/13/4 26/14/4 28/15/4 27/16/4
f 29/13/4 31/16/4 32/15/4 30/14/4
