# Blender 4.2.3 LTS
# www.blender.org
mtllib koi0.mtl
o face1
v -1.500000 -5.371709 0.000000
v 1.500000 -5.371709 0.000000
v -1.500000 -2.621709 0.000000
v 1.500000 -2.621709 0.000000
vn -0.0000 -0.0000 -1.0000
vt 0.000000 1.000000
vt 0.000000 0.000000
vt 1.000000 0.000000
vt 1.000000 1.000000
s 0
usemtl head
f 1/1/1 3/2/1 4/3/1 2/4/1
o face2
v -1.500000 -4.158113 0.000000
v 1.500000 -4.158113 0.000000
v -1.500000 -0.408113 0.000000
v 1.500000 -0.408113 0.000000
vn -0.0000 -0.0000 -1.0000
vt 0.000000 1.000000
vt 0.000000 0.000000
vt 1.000000 0.000000
vt 1.000000 1.000000
s 0
usemtl body1
f 5/5/2 7/6/2 8/7/2 6/8/2
o face3
v -1.500000 -1.902306 0.000000
v 1.500000 -1.902306 0.000000
v -1.500000 1.847694 0.000000
v 1.500000 1.847694 0.000000
vn -0.0000 -0.0000 -1.0000
vt 0.000000 1.000000
vt 0.000000 0.000000
vt 1.000000 0.000000
vt 1.000000 1.000000
s 0
usemtl body2
f 9/9/3 11/10/3 12/11/3 10/12/3
o face4
v -1.500000 1.075853 0.000000
v 1.500000 1.075853 0.000000
v -1.500000 3.075853 0.000000
v 1.500000 3.075853 0.000000
vn -0.0000 -0.0000 -1.0000
vt 0.000000 1.000000
vt 0.000000 0.000000
vt 1.000000 0.000000
vt 1.000000 1.000000
s 0
usemtl body3
f 13/13/4 15/14/4 16/15/4 14/16/4
o face5
v -1.500000 2.377440 0.000000
v 1.500000 2.377440 0.000000
v -1.500000 4.377440 0.000000
v 1.500000 4.377440 0.000000
vn -0.0000 -0.0000 -1.0000
vt 0.000000 1.000000
vt 0.000000 0.000000
vt 1.000000 0.000000
vt 1.000000 1.000000
s 0
usemtl tail
f 17/17/5 19/18/5 20/19/5 18/20/5
