# Blender 4.2.3 LTS
# www.blender.org
mtllib koi1.mtl
o face1
v -1.500000 -4.895366 0.000000
v 1.500000 -4.895366 0.000000
v -1.500000 -2.145366 0.000000
v 1.500000 -2.145366 0.000000
vn -0.0000 -0.0000 -1.0000
vt 0.000000 1.000000
vt 0.000000 0.000000
vt 1.000000 0.000000
vt 1.000000 1.000000
s 0
usemtl head
f 1/1/1 3/2/1 4/3/1 2/4/1
o face2
v -1.500000 -3.681770 0.000000
v 1.500000 -3.681770 0.000000
v -1.500000 0.068230 0.000000
v 1.500000 0.068230 0.000000
vn -0.0000 -0.0000 -1.0000
vt 0.000000 1.000000
vt 0.000000 0.000000
vt 1.000000 0.000000
vt 1.000000 1.000000
s 0
usemtl body1
f 5/5/2 7/6/2 8/7/2 6/8/2
o face3
v -1.500000 -1.425962 0.000000
v 1.500000 -1.425962 0.000000
v -1.500000 2.324038 0.000000
v 1.500000 2.324038 0.000000
vn -0.0000 -0.0000 -1.0000
vt 0.000000 1.000000
vt 0.000000 0.000000
vt 1.000000 0.000000
vt 1.000000 1.000000
s 0
usemtl body2
f 9/9/3 11/10/3 12/11/3 10/12/3
o face4
v -1.500000 1.552197 0.000000
v 1.500000 1.552197 0.000000
v -1.500000 3.552197 0.000000
v 1.500000 3.552197 0.000000
vn -0.0000 -0.0000 -1.0000
vt 0.000000 1.000000
vt 0.000000 0.000000
vt 1.000000 0.000000
vt 1.000000 1.000000
s 0
usemtl body3
f 13/13/4 15/14/4 16/15/4 14/16/4
o face5
v -1.500000 2.853784 0.000000
v 1.500000 2.853784 0.000000
v -1.500000 4.853784 0.000000
v 1.500000 4.853784 0.000000
vn -0.0000 -0.0000 -1.0000
vt 0.000000 1.000000
vt 0.000000 0.000000
vt 1.000000 0.000000
vt 1.000000 1.000000
s 0
usemtl tail
f 17/17/5 19/18/5 20/19/5 18/20/5
