<?xml version="1.0" encoding="UTF-8" standalone="no"?>
<!-- Created with Inkscape (http://www.inkscape.org/) -->

<svg
   width="200"
   height="200"
   viewBox="0 0 200 200"
   version="1.1"
   id="svg1058"
   xmlns="http://www.w3.org/2000/svg"
   xmlns:svg="http://www.w3.org/2000/svg">
  <defs
     id="defs1055">
    <clipPath
       id="_clipPath_vqNM4AJIjJAaLANCnGzOyutu5ffCodBq">
      <path
         d="m 238.625,193.125 45.5,5.063 12.875,44.375 v 13.375 l -12.875,10.5 9.125,25.375 v 10.75 l -13.562,17.5 h -42.563 l -8.437,-30.938 -8.188,-18.75 7.063,-11.562 7.687,-19.75 -14.75,-31.25 z"
         fill="#ffffff"
         id="path14" />
    </clipPath>
    <clipPath
       id="_clipPath_gIZL2IhNJ4EEXGKH8eD0D7RDFwfaAoXc">
      <path
         d="m 238.625,193.125 45.5,5.063 V 241 l -3.125,13.5 3.125,11.938 -7.625,22.687 v 13.438 l 3.188,17.5 h -42.563 l -8.437,-30.938 6.562,-15.125 9.5,-15.187 V 244 l -9.5,-26.75 z"
         fill="#ffffff"
         id="path31" />
    </clipPath>
    <clipPath
       id="_clipPath_vqNM4AJIjJAaLANCnGzOyutu5ffCodBq-5">
      <path
         d="m 238.625,193.125 45.5,5.063 12.875,44.375 v 13.375 l -12.875,10.5 9.125,25.375 v 10.75 l -13.562,17.5 h -42.563 l -8.437,-30.938 -8.188,-18.75 7.063,-11.562 7.687,-19.75 -14.75,-31.25 z"
         fill="#ffffff"
         id="path14-0" />
    </clipPath>
    <clipPath
       id="_clipPath_gIZL2IhNJ4EEXGKH8eD0D7RDFwfaAoXc-0">
      <path
         d="m 238.625,193.125 45.5,5.063 V 241 l -3.125,13.5 3.125,11.938 -7.625,22.687 v 13.438 l 3.188,17.5 h -42.563 l -8.437,-30.938 6.562,-15.125 9.5,-15.187 V 244 l -9.5,-26.75 z"
         fill="#ffffff"
         id="path31-3" />
    </clipPath>
    <clipPath
       id="_clipPath_JSW55OWeE9HN2xKwPM1f9KssfnujlzoX">
      <path
         d="M 238.625,183.25 H 281 l 11.5,57.75 1.531,10.496 -1.531,1.504 -5.125,12.5 -7.687,22.25 1.312,11 13.25,1.875 -14.562,19.438 h -42.563 l -6.594,-8.532 -6.531,-12.781 6.531,-28.469 3.375,-12 1.344,-14.812 V 217.25 Z"
         fill="#ffffff"
         id="path65" />
    </clipPath>
    <clipPath
       id="_clipPath_fHyYSK1zTr8GeWqxVPPoPUzpmCaIsXEw">
      <path
         d="M 238.625,183.25 H 281 l 11.5,57.75 2.742,11.07 v 5.203 l -7.867,8.227 -7.687,22.25 1.312,11 13.25,1.875 -14.562,19.438 h -42.563 l -6.594,-8.532 3.281,-16.281 -9.812,-25.438 9.812,-18.316 1.438,-8.027 V 217.25 Z"
         fill="#ffffff"
         id="path82" />
    </clipPath>
    <clipPath
       id="_clipPath_lfJtvafEAvU5j2rwiC0d0Cs6fsiRQgO4">
      <path
         d="M 238.625,183.25 H 281 l 11.5,57.75 -2.625,9.688 v 5.203 l -2.5,9.609 -7.687,22.25 1.312,11 -4.812,5.375 3.5,15.938 h -42.563 l 1.5,-10.688 -4.812,-14.125 -9.813,-25.437 22.75,-7.875 1.125,-18.469 -12.625,-26.219 z"
         fill="#ffffff"
         id="path99" />
    </clipPath>
    <clipPath
       id="_clipPath_zvGKMGIC4Nu97vgbc9W49MeI8vOkZstM">
      <path
         d="M 238.625,183.25 H 281 l 11.5,57.75 2.375,9.688 v 5.203 l -2.5,9.609 -8.5,22.25 1.313,11 -4.813,5.375 -0.687,15.938 h -42.563 l -7.25,-8.25 -4.812,-14.125 L 224,269.813 238.875,260.906 240,242.438 235.25,217.25 Z"
         fill="#ffffff"
         id="path116" />
    </clipPath>
  </defs>
  <g
     id="layer1">
    <g
       id="g131"
       transform="translate(-224,-188.03348)"
       style="isolation:isolate">
      <clipPath
         id="clipPath2275">
        <path
           d="M 238.625,183.25 H 281 l 11.5,57.75 2.375,9.688 v 5.203 l -2.5,9.609 -8.5,22.25 1.313,11 -4.813,5.375 -0.687,15.938 h -42.563 l -7.25,-8.25 -4.812,-14.125 L 224,269.813 238.875,260.906 240,242.438 235.25,217.25 Z"
           fill="#ffffff"
           id="path2273" />
      </clipPath>
      <g
         clip-path="url(#_clipPath_zvGKMGIC4Nu97vgbc9W49MeI8vOkZstM)"
         id="g129">
        <g
           id="g127">
          <g
             id="g121">
            <path
               d="m 30.424,246.384 c -0.103,0.036 0.24,1.754 0.75,3.82 0.511,2.066 0.925,4.361 0.913,5.106 -0.006,0.745 0.193,1.556 0.451,1.808 0.258,0.252 0.955,-0.691 1.55,-2.102 0.594,-1.406 1.465,-4.043 1.94,-5.863 0.474,-1.82 0.865,-4.048 0.871,-4.955 0.006,-0.907 -0.21,-1.652 -0.481,-1.652 -0.276,0 -1.694,0.847 -3.153,1.886 -1.466,1.039 -2.745,1.916 -2.841,1.952 z m 222.996,3.045 0.631,2.974 c 1.123,-5.809 1.369,-7.599 1.273,-7.725 -0.09,-0.126 -0.703,0.222 -1.357,0.775 -1.057,0.895 -1.117,1.303 -0.547,3.976 z m -39.614,-55.94 c 2.685,0.139 5.076,0.655 6.608,1.436 1.321,0.673 3.459,2.271 4.751,3.55 1.291,1.279 3.021,3.808 3.844,5.628 1.256,2.775 1.448,3.929 1.195,7.208 -0.162,2.151 -0.81,4.89 -1.441,6.097 -0.625,1.201 -2.289,3.43 -3.694,4.955 -1.67,1.808 -3.574,3.124 -5.514,3.815 -2.673,0.949 -2.992,1.255 -3.244,3.153 -0.228,1.706 0.018,2.391 1.31,3.616 0.877,0.835 1.97,2.319 2.438,3.304 0.469,0.985 0.967,3.141 1.112,4.793 0.144,1.652 0.474,3.412 0.732,3.904 0.265,0.493 0.913,2.589 1.448,4.656 0.528,2.066 0.973,5.442 0.979,7.508 0.006,2.222 -0.523,5.466 -1.303,7.959 -0.727,2.312 -1.406,4.613 -1.514,5.105 -0.102,0.493 -0.589,1.31 -1.081,1.802 -0.487,0.493 -0.895,1.238 -0.901,1.652 -0.012,0.415 0.534,1.496 1.213,2.403 0.841,1.123 1.129,2.18 0.901,3.303 -0.18,0.907 -0.126,1.652 0.12,1.652 0.246,0 0.517,0.877 0.601,1.952 0.078,1.076 0.306,3.034 0.498,4.355 0.199,1.322 0.763,3.886 1.262,5.706 0.745,2.74 0.763,3.382 0.096,3.743 -0.445,0.246 -1.754,0.438 -2.907,0.426 -1.154,-0.006 -3.316,-0.252 -4.806,-0.54 -1.489,-0.289 -2.769,-0.409 -2.853,-0.271 -0.084,0.132 0.391,1.73 1.051,3.55 0.661,1.82 1.202,4.115 1.202,5.106 0,1.171 -0.367,1.934 -1.051,2.174 -0.667,0.24 -1.983,-0.312 -3.604,-1.501 -1.406,-1.034 -2.667,-1.808 -2.812,-1.724 -0.144,0.084 -0.546,1.297 -1.543,5.255 l 2.252,0.012 c 1.238,0.006 3.304,0.343 4.589,0.751 1.286,0.403 2.992,1.418 3.79,2.241 0.805,0.829 1.37,2.018 1.268,2.643 -0.114,0.72 -1.081,1.453 -2.589,1.976 -1.321,0.456 -5.244,0.991 -8.71,1.189 -3.682,0.21 -8.121,0.078 -10.661,-0.318 -2.397,-0.379 -4.355,-0.955 -4.355,-1.286 0,-0.33 0.793,-2.156 1.76,-4.054 0.967,-1.898 2.288,-4.938 2.937,-6.758 0.649,-1.82 1.58,-4.655 2.078,-6.307 0.493,-1.651 1.075,-3.946 1.286,-5.105 0.216,-1.183 0.072,-2.889 -0.331,-3.904 -0.396,-0.992 -0.805,-2.547 -0.919,-3.454 -0.168,-1.34 0.048,-1.682 1.148,-1.802 1.213,-0.132 1.369,-0.517 1.519,-3.754 0.102,-2.235 -0.162,-4.289 -0.697,-5.406 -0.48,-0.992 -0.943,-2.211 -1.039,-2.703 -0.096,-0.493 0.066,-2.253 0.349,-3.905 0.288,-1.652 0.48,-3.207 0.42,-3.454 -0.054,-0.246 0.168,-0.45 0.499,-0.45 0.33,0 0.558,-0.204 0.504,-0.451 -0.054,-0.246 0.114,-0.991 0.367,-1.651 0.252,-0.661 0.252,-1.61 0.006,-2.103 -0.253,-0.492 -0.529,-1.171 -0.607,-1.501 -0.084,-0.331 0.228,-2.625 0.697,-5.106 0.462,-2.475 0.961,-5.316 1.093,-6.307 0.138,-0.991 0.565,-3.286 0.943,-5.106 0.378,-1.82 0.535,-3.64 0.348,-4.054 -0.192,-0.415 -0.078,-0.883 0.253,-1.051 0.33,-0.168 0.6,-1.045 0.6,-1.952 0.006,-0.907 0.547,-2.529 1.202,-3.604 0.66,-1.076 1.213,-2.559 1.225,-3.304 0.018,-0.745 -0.318,-1.664 -0.751,-2.054 -0.426,-0.385 -1.177,-0.787 -1.676,-0.901 -0.498,-0.108 -1.039,-0.331 -1.201,-0.499 -0.162,-0.168 -1.514,-1.261 -3.003,-2.445 -1.598,-1.261 -3.382,-3.471 -4.361,-5.406 -1.352,-2.661 -1.658,-4.036 -1.64,-7.466 0.012,-2.895 0.391,-5.003 1.207,-6.757 0.655,-1.406 2.337,-3.718 3.743,-5.142 1.483,-1.508 3.934,-3.147 5.856,-3.91 2.577,-1.033 4.229,-1.274 7.508,-1.112 z m -222.245,1.184 c 4.559,0.126 5.826,0.39 8.109,1.712 1.489,0.859 3.58,2.54 4.655,3.736 1.075,1.201 2.39,3.057 2.925,4.132 0.541,1.076 1.117,3.304 1.291,4.956 0.175,1.652 0.006,4.289 -0.372,5.856 -0.378,1.568 -1.436,3.971 -2.343,5.328 -0.907,1.364 -2.865,3.37 -4.354,4.451 -1.49,1.087 -3.484,2.205 -4.445,2.481 -0.955,0.276 -1.971,1.111 -2.253,1.856 -0.372,0.991 -0.108,2.15 0.991,4.355 0.829,1.652 1.502,3.135 1.502,3.303 0,0.169 0.637,1.718 1.411,3.454 0.775,1.736 2.025,5.448 2.776,8.259 1.087,4.067 1.297,6.079 1.045,9.911 -0.174,2.643 -0.721,5.749 -1.214,6.908 -0.624,1.454 -0.78,2.985 -0.51,4.961 0.216,1.574 0.534,2.86 0.697,2.854 0.162,-0.006 0.354,0.6 0.42,1.345 0.066,0.745 -0.474,1.964 -1.201,2.721 -0.727,0.751 -1.928,1.358 -4.025,1.334 l 1.244,1.952 c 0.684,1.075 2.018,3.574 2.967,5.556 0.943,1.982 1.802,4.126 1.91,4.769 0.132,0.835 -0.499,1.556 -2.216,2.517 -1.322,0.739 -3.959,1.634 -5.857,1.988 -3.165,0.583 -3.424,0.751 -3.105,1.988 0.192,0.745 0.318,2.571 0.282,4.055 -0.042,1.483 -0.186,3.111 -0.324,3.604 -0.145,0.522 0.534,1.405 1.621,2.102 1.034,0.661 2.169,1.658 2.523,2.223 0.361,0.558 0.517,1.153 0.355,1.321 -0.163,0.162 -2.259,0.715 -4.656,1.231 -2.396,0.511 -6.451,0.931 -9.01,0.925 -2.558,0 -6.415,-0.288 -8.559,-0.642 -2.144,-0.349 -4.036,-0.745 -4.205,-0.883 -0.168,-0.132 1.226,-2.481 3.088,-5.214 1.862,-2.733 4.09,-6.385 4.955,-8.121 0.859,-1.736 1.562,-3.628 1.556,-4.205 -0.006,-0.576 -0.685,-2.877 -1.502,-5.105 -0.817,-2.229 -1.495,-4.391 -1.501,-4.806 -0.012,-0.516 0.498,-0.624 1.651,-0.342 0.913,0.222 2.073,0.577 2.565,0.781 0.601,0.24 1.045,-0.096 1.334,-1.009 0.24,-0.763 0.294,-2.325 0.12,-3.484 -0.174,-1.159 -0.913,-2.787 -1.634,-3.628 -0.727,-0.835 -1.387,-1.85 -1.472,-2.253 -0.084,-0.396 -0.24,-1.333 -0.348,-2.078 -0.114,-0.745 0.312,-2.973 0.943,-4.955 0.631,-1.983 1.394,-4.079 1.7,-4.656 0.402,-0.756 0.132,-1.898 -0.943,-4.054 -0.925,-1.856 -1.442,-3.808 -1.352,-5.106 0.085,-1.159 0.355,-2.102 0.601,-2.102 0.246,0 0.451,-0.27 0.451,-0.601 0,-0.33 1.123,-2.967 2.498,-5.856 2.001,-4.193 2.469,-5.803 2.331,-7.959 -0.108,-1.61 0.222,-3.556 0.811,-4.805 0.547,-1.154 0.985,-2.439 0.979,-2.853 -0.006,-0.415 -1.093,-1.292 -2.415,-1.953 -1.321,-0.66 -3.514,-2.216 -4.877,-3.453 -1.364,-1.238 -2.949,-3.202 -3.526,-4.355 -0.571,-1.153 -1.363,-3.454 -1.754,-5.106 -0.529,-2.228 -0.547,-3.778 -0.06,-6.006 0.36,-1.652 1.658,-4.451 2.883,-6.217 1.226,-1.766 3.448,-3.965 4.932,-4.884 1.483,-0.919 3.111,-1.832 3.604,-2.03 0.492,-0.198 3.333,-0.288 6.307,-0.204 z m -130.008,53.579 c -0.036,4.187 0.162,7.1 0.408,9.166 0.409,3.37 0.595,3.76 1.808,3.754 1.118,-0.006 1.472,0.493 2.043,2.847 l 0.69,2.854 c 2.619,-5.587 3.809,-8.968 4.331,-11.113 0.541,-2.21 0.877,-5.652 0.775,-7.94 l -0.18,-4.037 z m 242.332,-52.961 c 2.979,0.151 5.081,0.655 7.208,1.73 1.652,0.835 3.928,2.571 5.057,3.851 1.13,1.279 2.547,3.411 3.142,4.733 0.703,1.562 1.093,3.88 1.105,6.607 0.018,3.43 -0.288,4.805 -1.64,7.466 -0.913,1.796 -2.739,4.127 -4.06,5.184 -1.322,1.051 -3.28,2.355 -4.355,2.895 -1.075,0.535 -2.361,0.973 -2.853,0.973 -0.577,0 -1.033,0.817 -1.274,2.253 -0.246,1.514 -0.048,2.895 0.601,4.205 0.535,1.075 1.448,2.138 2.024,2.372 0.577,0.228 1.466,0.841 1.976,1.352 0.511,0.51 2.812,3.033 5.106,5.598 4.007,4.475 4.223,4.625 5.25,3.604 0.589,-0.583 1.057,-1.334 1.039,-1.664 -0.018,-0.33 -0.637,-1.201 -2.709,-3.268 l 1.742,-2.27 c 0.955,-1.249 2.709,-3.142 3.904,-4.199 1.19,-1.063 2.499,-1.94 2.914,-1.952 0.414,-0.012 1.513,0.991 2.444,2.229 0.931,1.237 2.283,3.67 3.004,5.406 0.72,1.735 1.513,4.33 2.21,8.397 l -2.853,1.279 c -1.568,0.709 -3.124,1.154 -3.454,0.985 -0.33,-0.168 -2.222,1.051 -4.205,2.703 -1.982,1.652 -3.94,2.998 -4.354,2.998 -0.415,-0.006 -1.899,-0.679 -3.304,-1.502 -1.406,-0.823 -2.691,-1.496 -2.853,-1.496 -0.162,0 -0.295,1.556 -0.289,3.454 0.006,1.898 -0.522,5.214 -1.177,7.358 -0.655,2.145 -2.15,5.46 -3.316,7.358 -1.171,1.899 -1.922,3.448 -1.675,3.442 0.246,-0.006 -0.06,0.337 -0.679,0.751 -1.063,0.721 -0.949,0.991 1.97,4.667 1.706,2.145 4.673,7.016 6.589,10.812 1.922,3.796 3.604,7.28 3.736,7.737 0.205,0.69 0.811,0.666 3.701,-0.15 1.898,-0.541 4.535,-0.98 5.856,-0.98 1.321,0 2.811,0.133 3.304,0.301 0.492,0.168 0.895,0.775 0.883,1.351 -0.006,0.577 -0.745,1.994 -1.64,3.154 -0.895,1.159 -2.409,2.781 -3.37,3.604 -0.955,0.829 -2.853,2.258 -4.211,3.177 -1.363,0.919 -4.637,2.385 -7.28,3.25 -2.642,0.871 -5.213,1.435 -5.706,1.261 -0.667,-0.24 -1.009,-1.766 -1.327,-5.958 -0.235,-3.1 -0.817,-6.854 -1.298,-8.338 -0.48,-1.483 -1.333,-3.784 -1.892,-5.105 -0.565,-1.322 -1.333,-2.601 -1.706,-2.841 -0.378,-0.247 -0.48,-0.451 -0.234,-0.451 0.246,-0.006 -0.36,-1.231 -1.352,-2.715 -0.991,-1.483 -2.072,-2.703 -2.402,-2.703 -0.331,0 -0.475,-0.204 -0.319,-0.45 0.157,-0.247 -0.516,-1.262 -1.495,-2.253 -0.979,-0.991 -1.862,-1.67 -1.964,-1.501 -0.102,0.168 -0.553,1.111 -1.009,2.102 -0.457,0.991 -0.781,2.006 -0.721,2.252 0.054,0.247 -0.168,0.451 -0.499,0.451 -0.33,0 -0.769,0.607 -0.973,1.351 -0.198,0.745 -0.967,2.163 -1.706,3.154 -0.733,0.991 -2.931,2.673 -4.883,3.736 -1.952,1.063 -3.959,1.946 -4.451,1.958 -0.493,0.018 -1.267,0.228 -1.712,0.475 -0.673,0.366 -0.673,0.805 0,2.691 0.541,1.495 1.394,2.504 2.559,3.003 0.961,0.414 2.252,1.43 2.871,2.252 0.625,0.829 1.117,2.109 1.105,2.854 -0.012,0.871 -0.552,1.567 -1.519,1.952 -0.823,0.33 -2.92,0.6 -4.656,0.594 -1.736,0 -4.096,-0.252 -5.255,-0.558 -1.16,-0.313 -2.511,-1.039 -3.004,-1.616 -0.492,-0.583 -1.231,-2.697 -1.628,-4.697 -0.402,-2 -0.744,-6.067 -0.792,-14.446 l 3.159,-0.499 c 1.742,-0.276 4.926,-1.171 7.07,-1.988 2.144,-0.817 4.403,-1.946 5.015,-2.505 0.613,-0.558 1.82,-2.234 2.685,-3.718 1.376,-2.372 1.574,-3.4 1.616,-8.409 0.048,-5.226 0.228,-6.085 2.169,-10.211 1.165,-2.475 2.558,-6.127 3.099,-8.109 0.547,-2.025 0.925,-5.388 0.733,-11.737 l -1.952,0.312 c -1.076,0.174 -3.574,1.123 -9.16,3.916 v 6.307 c 0,3.803 0.24,6.307 0.6,6.307 0.331,0 1.28,1.484 2.103,3.304 1.375,3.021 1.423,3.418 0.594,4.655 -0.498,0.745 -0.901,2.096 -0.901,3.003 0.006,1.046 -0.486,1.983 -1.345,2.559 -0.745,0.499 -1.958,0.901 -2.703,0.901 -0.745,-0.006 -1.418,-0.3 -1.502,-0.654 -0.084,-0.361 -1.64,-0.925 -3.454,-1.256 -1.814,-0.33 -3.652,-0.919 -4.078,-1.303 -0.433,-0.385 -0.775,-1.238 -0.769,-1.898 0.012,-0.661 0.444,-2.421 0.967,-3.905 0.517,-1.483 1.4,-7.22 1.964,-12.734 0.715,-7.082 1.28,-10.283 1.916,-10.884 0.493,-0.468 4.079,-2.781 7.959,-5.136 3.88,-2.354 8.001,-4.685 9.16,-5.183 1.268,-0.541 2.097,-1.316 2.09,-1.952 0,-0.577 -0.204,-1.334 -0.45,-1.682 -0.24,-0.343 -1.652,-1.322 -3.141,-2.169 -1.49,-0.847 -3.725,-2.727 -4.968,-4.174 -1.243,-1.448 -2.667,-3.857 -3.159,-5.34 -0.493,-1.484 -0.889,-4.055 -0.877,-5.706 0.012,-1.73 0.546,-4.151 1.267,-5.707 0.685,-1.483 1.964,-3.61 2.841,-4.721 0.877,-1.105 2.535,-2.583 3.694,-3.28 1.159,-0.702 3.046,-1.621 4.205,-2.054 1.255,-0.462 3.796,-0.691 6.307,-0.559 z m 204.46,52.961 0.366,12.614 c 2.932,0.264 3.442,0.739 3.917,2.252 0.336,1.076 0.612,2.493 0.612,3.154 0,0.727 0.499,0.126 1.25,-1.502 0.69,-1.483 1.784,-4.186 2.438,-6.006 0.709,-1.995 1.31,-5.623 1.502,-9.16 0.18,-3.22 0.228,-5.851 0.108,-5.839 -0.12,0.012 -2.463,1.027 -5.202,2.253 z M -61.598,201.166 c 1.82,-0.042 4.523,0.318 6.006,0.811 1.484,0.486 4.025,2.042 5.641,3.46 1.609,1.411 3.64,3.79 4.505,5.274 1.327,2.288 1.561,3.393 1.525,7.207 -0.036,3.496 -0.366,5.166 -1.501,7.461 -0.805,1.628 -2.811,4.138 -4.463,5.586 -1.652,1.448 -4.085,2.973 -5.406,3.4 -1.934,0.618 -2.433,1.075 -2.553,2.372 -0.084,0.883 0.186,2.253 0.601,3.04 0.414,0.793 1.97,2.444 3.453,3.676 1.484,1.225 2.836,2.541 3.004,2.919 0.168,0.372 1.652,2.649 3.303,5.058 1.652,2.402 3.208,4.366 3.454,4.354 0.247,-0.012 1.13,-0.835 1.952,-1.826 1.088,-1.303 1.418,-2.258 1.184,-3.453 -0.205,-1.088 0.156,-2.469 1.069,-4.055 0.919,-1.592 1.886,-2.475 2.871,-2.619 0.817,-0.12 2.024,-0.595 2.685,-1.057 0.661,-0.463 1.61,-0.841 2.102,-0.847 0.493,-0.006 1.508,0.673 2.253,1.502 0.745,0.835 1.219,1.79 1.051,2.12 -0.168,0.33 0.649,2.156 1.808,4.055 1.165,1.898 2.12,3.724 2.132,4.054 0.012,0.33 -0.33,0.895 -0.762,1.255 -0.427,0.361 -2.499,1.304 -4.608,2.103 -2.108,0.793 -4.132,1.832 -4.505,2.294 -0.372,0.469 -2.294,2.031 -4.276,3.466 -2.655,1.922 -4.157,2.607 -5.707,2.589 -1.357,-0.012 -2.57,-0.493 -4.739,-2.697 l 0.018,2.403 c 0.012,1.321 -0.703,4.565 -1.592,7.208 -0.883,2.643 -1.994,5.346 -2.456,6.006 -0.469,0.661 -0.847,1.538 -0.847,1.952 0.006,0.415 1.183,2.307 2.625,4.205 1.435,1.898 3.46,4.938 4.493,6.758 1.033,1.82 1.886,3.982 1.904,4.805 0.018,0.829 -0.517,2.721 -1.178,4.204 -0.66,1.484 -1.213,3.04 -1.219,3.454 -0.006,0.415 0.324,0.745 0.739,0.745 0.414,-0.006 2.643,0.589 4.955,1.322 2.313,0.726 4.68,1.814 5.256,2.408 0.577,0.595 0.985,1.388 0.901,1.76 -0.084,0.379 -1.231,1.057 -2.553,1.52 -1.321,0.456 -4.162,0.997 -6.307,1.195 -2.144,0.198 -7.081,0.192 -10.962,-0.012 -6.397,-0.342 -7.021,-0.474 -6.643,-1.429 0.222,-0.577 1.52,-2.811 2.877,-4.956 1.364,-2.144 2.931,-4.919 3.496,-6.157 0.637,-1.405 0.895,-2.985 0.679,-4.204 -0.186,-1.076 -0.661,-2.151 -1.051,-2.391 -0.391,-0.246 -0.505,-0.45 -0.259,-0.45 0.247,-0.006 0.138,-0.619 -0.246,-1.364 -0.378,-0.745 -1.327,-2.228 -2.102,-3.304 -1.178,-1.633 -1.604,-1.856 -2.607,-1.351 -0.661,0.33 -1.183,1.075 -1.165,1.652 0.018,0.576 -0.115,2.402 -0.301,4.054 -0.186,1.652 -0.606,4.289 -1.537,8.71 l -4.806,-0.15 c -3.952,-0.127 -4.799,0.012 -4.769,0.75 0.018,0.493 0.252,2.253 0.523,3.905 0.264,1.652 0.264,3.412 0,3.904 -0.271,0.493 -0.637,1.646 -0.823,2.553 -0.187,0.907 -0.673,1.664 -1.088,1.682 -0.414,0.012 -1.892,-1.135 -3.285,-2.553 -1.394,-1.424 -3.484,-4.475 -4.643,-6.788 -1.154,-2.312 -2.481,-5.688 -2.944,-7.508 -0.462,-1.82 -1.009,-4.451 -1.591,-8.409 l 2.853,0.366 c 1.567,0.198 4.27,0.739 6.006,1.202 1.736,0.456 4.097,0.835 7.359,0.835 l -0.151,-3.604 c -0.084,-1.983 -0.354,-3.604 -0.6,-3.604 -0.247,0 -0.451,-0.541 -0.451,-1.202 0,-0.661 -0.204,-1.315 -0.45,-1.453 -0.247,-0.139 -0.241,-1.965 0.024,-4.055 0.264,-2.156 1.357,-5.754 2.523,-8.307 1.123,-2.475 2.462,-6.265 2.967,-8.409 0.51,-2.145 0.931,-5.731 0.937,-7.959 0,-2.229 -0.264,-4.187 -0.595,-4.355 -0.33,-0.168 -1.207,0.108 -1.952,0.607 -0.745,0.498 -1.76,0.895 -2.252,0.883 -0.493,-0.012 -1.712,0.384 -2.703,0.889 -0.992,0.504 -2.409,0.919 -3.154,0.919 -0.745,0.006 -1.556,0.342 -1.802,0.757 -0.246,0.414 -0.751,3.183 -1.117,6.156 -0.625,5.094 -0.595,5.46 0.516,6.307 1.028,0.781 1.154,1.46 0.937,5.106 -0.144,2.529 -0.648,4.859 -2.288,7.508 l -3.154,-1.111 c -1.735,-0.607 -4.234,-1.802 -5.556,-2.649 -1.321,-0.847 -3.147,-2.24 -4.054,-3.093 -0.907,-0.859 -1.652,-1.826 -1.652,-2.157 0,-0.33 0.444,-1.477 0.991,-2.553 0.541,-1.075 1.556,-2.552 2.253,-3.291 0.69,-0.739 1.597,-1.346 2.012,-1.352 0.414,-0.006 0.919,-1.027 1.123,-2.264 0.204,-1.238 0.949,-4.547 2.931,-12.464 l 7.509,-3.766 c 4.132,-2.072 8.451,-3.916 9.61,-4.097 1.159,-0.18 2.469,-0.51 2.919,-0.738 0.517,-0.259 0.697,-0.962 0.481,-1.911 -0.222,-1.003 -0.991,-1.742 -2.319,-2.228 -1.087,-0.403 -3.063,-1.646 -4.384,-2.769 -1.322,-1.117 -3.196,-3.496 -4.163,-5.28 -1.46,-2.685 -1.76,-3.952 -1.778,-7.442 -0.018,-3.556 0.252,-4.703 1.76,-7.442 0.979,-1.784 2.997,-4.295 4.481,-5.575 1.484,-1.285 3.784,-2.697 5.106,-3.141 1.321,-0.445 3.886,-0.847 5.706,-0.895 z M 43.518,188.071 c 3.712,0.139 5.088,0.493 7.809,2.001 1.988,1.105 4.192,3.009 5.532,4.781 1.225,1.616 2.553,4.157 2.949,5.646 0.391,1.484 0.577,4.187 0.403,6.007 -0.175,1.82 -0.859,4.385 -1.52,5.706 -0.661,1.322 -2.655,3.706 -4.433,5.292 -1.778,1.592 -4.091,3.214 -5.142,3.604 -1.616,0.607 -1.952,1.081 -2.192,3.117 -0.228,1.881 0.15,3.316 1.724,6.608 1.111,2.312 2.709,6.097 3.55,8.409 0.841,2.313 1.802,5.893 2.733,11.713 h 3.003 c 2.721,0 3.003,-0.126 2.979,-1.351 -0.018,-0.745 0.319,-1.694 0.751,-2.115 0.487,-0.48 2.787,-0.817 11.587,-1.039 l 0.174,2.703 c 0.09,1.484 -0.294,4.055 -0.865,5.706 -0.57,1.652 -1.724,4.193 -2.571,5.641 -0.853,1.453 -1.682,2.727 -1.844,2.829 -0.162,0.102 -1.381,-0.102 -2.703,-0.451 -1.321,-0.348 -2.811,-0.985 -3.303,-1.417 -0.493,-0.433 -2.661,-0.883 -4.806,-0.991 -2.889,-0.151 -3.862,-0.006 -3.754,0.546 0.084,0.415 -0.12,0.751 -0.45,0.751 -0.331,0 -0.601,0.27 -0.601,0.601 0,0.33 -0.312,1.345 -0.691,2.252 -0.384,0.907 -0.787,1.988 -0.901,2.403 -0.114,0.414 0.168,1.087 0.625,1.501 0.462,0.415 2.379,1.971 4.259,3.454 1.88,1.484 4.21,3.989 5.171,5.556 1.682,2.751 1.712,2.902 0.697,4.115 -0.576,0.697 -2.264,1.964 -3.754,2.811 -1.49,0.853 -2.841,1.628 -3.003,1.724 -0.162,0.102 0.132,0.793 0.654,1.544 0.529,0.757 1.406,1.844 1.953,2.42 0.546,0.577 0.859,1.052 0.696,1.052 -0.162,0 0.09,0.606 0.571,1.351 0.48,0.745 1.057,2.433 1.285,3.754 0.265,1.556 0.169,2.559 -0.27,2.853 -0.378,0.247 -1.832,0.024 -3.237,-0.492 -1.406,-0.517 -3.701,-1.73 -5.106,-2.703 -1.406,-0.967 -2.757,-1.754 -3.003,-1.742 -0.247,0.012 -1.262,-0.859 -2.253,-1.928 -0.991,-1.069 -2.817,-3.442 -4.054,-5.274 -1.238,-1.832 -2.253,-3.802 -2.253,-4.379 0,-0.787 1.057,-1.351 4.205,-2.252 2.312,-0.661 4.343,-1.472 4.505,-1.802 0.162,-0.331 -0.913,-1.274 -2.403,-2.103 -2.24,-1.243 -3.129,-1.423 -5.178,-1.051 -2.198,0.403 -2.691,0.823 -4.391,3.754 -1.051,1.82 -2.522,4.523 -3.267,6.007 -0.745,1.484 -1.814,3.43 -2.373,4.313 -0.552,0.889 -2.697,3.928 -4.763,6.757 -2.066,2.829 -3.76,5.352 -3.772,5.598 -0.006,0.247 0.6,1.015 1.351,1.7 0.757,0.685 2.451,1.55 3.772,1.916 1.322,0.367 3.166,1.424 4.091,2.355 0.985,0.985 1.616,2.186 1.502,2.889 -0.145,0.919 -0.823,1.298 -2.89,1.61 -1.489,0.222 -4.865,0.426 -7.508,0.456 -4.793,0.054 -4.811,0.048 -6.992,-2.204 -1.207,-1.249 -2.799,-3.484 -3.544,-4.968 -0.744,-1.483 -1.549,-3.375 -1.789,-4.204 -0.385,-1.292 0.198,-2.235 4.138,-6.716 2.523,-2.871 5.754,-6.793 7.19,-8.709 1.43,-1.922 3.91,-5.52 8.427,-12.506 l -3.411,-0.378 c -1.88,-0.205 -3.893,-0.541 -4.469,-0.751 -0.577,-0.205 -1.052,-0.781 -1.052,-1.274 0,-0.492 0.439,-2.589 0.974,-4.655 0.846,-3.28 0.877,-4.895 0.27,-12.764 -0.379,-4.955 -0.751,-9.454 -0.817,-10.001 -0.072,-0.541 2.204,-3.382 5.046,-6.307 2.847,-2.925 6.228,-6.043 7.508,-6.926 1.285,-0.883 2.835,-2.504 3.448,-3.604 0.606,-1.099 1.015,-2.667 0.901,-3.484 -0.151,-1.075 -1.015,-1.916 -3.094,-3.003 -1.586,-0.835 -3.814,-2.39 -4.955,-3.466 -1.142,-1.075 -2.673,-3.099 -3.406,-4.505 -1.051,-2.006 -1.339,-3.58 -1.352,-7.358 -0.012,-3.358 0.295,-5.436 1.016,-6.907 0.57,-1.154 1.952,-3.184 3.063,-4.505 1.117,-1.322 3.22,-2.992 4.673,-3.707 1.454,-0.72 3.052,-1.459 3.544,-1.645 0.493,-0.181 2.931,-0.259 5.406,-0.169 z m 219.242,0.607 c 2.697,0.09 5.346,0.559 6.608,1.165 1.153,0.559 3.279,2.031 4.715,3.28 1.484,1.291 3.232,3.628 4.054,5.424 1.034,2.265 1.442,4.211 1.436,6.908 -0.006,2.655 -0.414,4.631 -1.399,6.757 -0.769,1.652 -2.397,3.953 -3.616,5.106 -1.226,1.153 -3.364,2.709 -4.758,3.454 -1.393,0.744 -2.871,1.357 -3.285,1.351 -0.433,0 -0.817,0.901 -0.901,2.102 -0.102,1.442 0.42,3.1 1.651,5.256 0.992,1.736 1.887,3.694 1.989,4.355 0.108,0.661 1.015,3.634 2.018,6.607 1.003,2.974 1.862,5.989 1.91,6.692 0.048,0.709 0.228,1.453 0.39,1.646 0.163,0.192 1.586,0.762 3.154,1.267 2.847,0.907 2.853,0.901 3.454,-0.595 0.414,-1.027 1.495,-1.814 3.454,-2.498 2.228,-0.787 3.081,-0.847 3.904,-0.301 0.577,0.385 1.658,0.685 2.403,0.673 0.744,-0.018 1.669,0.318 2.054,0.751 0.384,0.426 0.859,1.52 1.051,2.427 0.192,0.907 0.096,1.988 -0.21,2.402 -0.307,0.415 -0.853,2.511 -1.22,4.655 -0.366,2.145 -0.786,4.109 -0.943,4.355 -0.156,0.246 -0.823,0.451 -1.483,0.451 -0.661,0 -4.511,-1.082 -8.56,-2.397 -4.048,-1.321 -7.376,-2.331 -7.4,-2.252 -0.024,0.078 -0.649,1.765 -1.393,3.748 -0.745,1.982 -1.472,4.012 -1.616,4.505 -0.162,0.54 0.642,1.567 1.994,2.558 1.243,0.907 3.922,3.34 5.959,5.406 2.042,2.061 4.27,4.355 6.21,6.452 l -1.351,1.513 c -0.745,0.835 -2.637,1.982 -4.211,2.553 -1.58,0.571 -2.859,1.243 -2.853,1.49 0,0.246 1.135,2.006 2.517,3.904 1.616,2.228 2.631,4.349 2.853,5.977 0.276,2.054 0.144,2.613 -0.733,3.003 -0.661,0.294 -1.351,0.192 -1.802,-0.282 -0.396,-0.415 -1.267,-0.763 -1.928,-0.763 -0.661,-0.006 -2.078,-0.679 -3.153,-1.496 -1.076,-0.817 -2.091,-1.484 -2.253,-1.484 -0.162,0 -1.309,-1.015 -2.547,-2.252 -1.237,-1.237 -3.399,-3.94 -4.805,-6.007 -1.406,-2.066 -2.493,-4.222 -2.409,-4.787 0.108,-0.727 1.322,-1.351 4.055,-2.084 2.15,-0.577 4.174,-1.316 4.505,-1.634 0.396,-0.384 -0.222,-0.919 -1.802,-1.556 -1.322,-0.534 -3.484,-0.979 -4.806,-0.991 -1.321,-0.012 -3.339,0.072 -4.48,0.186 -1.989,0.193 -2.175,0.427 -4.091,5.01 -1.099,2.643 -3.376,7.917 -5.058,11.713 -1.675,3.796 -3.784,8.391 -4.679,10.211 -1.616,3.268 -1.622,3.322 -0.522,4.956 0.973,1.441 1.507,1.651 4.264,1.675 2.938,0.024 3.328,0.205 5.707,2.703 1.483,1.556 2.426,3.058 2.252,3.58 -0.174,0.517 -1.021,0.901 -2,0.901 -0.937,0 -1.814,0.151 -1.952,0.331 -0.138,0.174 -1.466,0.462 -2.955,0.63 -1.49,0.169 -4.193,0.295 -6.007,0.283 -1.814,-0.012 -4.115,-0.162 -5.106,-0.331 -1.399,-0.24 -2.354,-1.141 -4.276,-4.066 -1.364,-2.066 -2.782,-4.631 -3.154,-5.706 -0.595,-1.712 -0.505,-2.193 0.727,-3.905 0.775,-1.075 3.183,-4.925 5.346,-8.559 2.168,-3.634 5.448,-9.719 7.286,-13.515 1.844,-3.796 3.364,-7.448 3.388,-8.109 0.03,-0.793 -0.625,-1.508 -1.917,-2.102 -1.075,-0.493 -2.57,-1.376 -3.327,-1.953 -1.262,-0.967 -1.316,-1.225 -0.649,-3.303 0.396,-1.238 1.322,-3.196 2.054,-4.355 0.733,-1.159 1.226,-2.643 1.094,-3.304 -0.139,-0.66 -0.511,-4.174 -1.436,-14.416 l 2.391,-3.453 c 1.309,-1.899 2.384,-3.586 2.384,-3.755 0,-0.168 0.835,-1.177 1.856,-2.252 1.015,-1.075 2.361,-2.493 2.986,-3.154 0.624,-0.66 1.681,-2.282 2.354,-3.604 0.673,-1.321 1.22,-3.147 1.22,-4.054 -0.006,-1.315 -0.439,-1.838 -2.109,-2.553 -1.153,-0.498 -3.388,-2.078 -4.955,-3.52 -1.7,-1.561 -3.43,-3.922 -4.277,-5.856 -1.195,-2.709 -1.382,-3.923 -1.141,-7.442 0.192,-2.824 0.727,-4.992 1.634,-6.608 0.744,-1.321 1.796,-2.907 2.342,-3.526 0.547,-0.612 2.072,-1.856 3.394,-2.763 1.321,-0.901 3.213,-1.946 4.205,-2.312 0.991,-0.373 3.832,-0.607 6.306,-0.517 z m -384.425,6.475 c 3.526,-0.036 5.154,0.259 7.509,1.352 1.652,0.775 4.018,2.529 5.256,3.898 1.237,1.376 2.817,3.784 3.513,5.352 0.986,2.235 1.202,3.7 1.004,6.758 -0.187,2.835 -0.739,4.793 -2.013,7.135 -0.967,1.784 -2.565,3.923 -3.556,4.752 -0.991,0.835 -3.153,2.132 -4.805,2.877 -1.928,0.877 -3.159,1.862 -3.448,2.763 -0.24,0.763 -0.444,1.868 -0.45,2.445 0,0.576 1.009,2.318 2.246,3.862 1.238,1.55 3.941,5.604 6.007,9.01 3.658,6.036 3.778,6.163 4.643,4.847 0.793,-1.213 0.781,-1.465 -0.15,-2.438 -0.931,-0.968 -0.949,-1.322 -0.216,-3.304 0.456,-1.22 1.267,-2.697 1.802,-3.286 0.54,-0.588 1.315,-1.063 1.73,-1.051 0.414,0.012 1.555,-0.456 2.546,-1.033 1.634,-0.961 1.94,-0.967 3.454,-0.126 0.913,0.51 1.79,1.592 1.958,2.402 0.168,0.811 1.178,2.763 2.253,4.331 1.075,1.568 1.952,3.262 1.952,3.754 0,0.511 -1.628,1.688 -3.754,2.721 -2.066,1.003 -4.241,2.421 -4.836,3.154 -0.594,0.733 -2.486,2.757 -7.328,7.652 l -1.501,-1.495 c -0.823,-0.823 -1.634,-1.508 -1.802,-1.52 -0.168,-0.018 -0.673,1.67 -1.124,3.742 -0.456,2.072 -1.603,5.454 -2.552,7.52 -0.949,2.067 -1.73,3.887 -1.73,4.055 0,0.168 -0.607,0.841 -1.352,1.502 -1.207,1.069 -1.249,1.279 -0.414,1.952 0.516,0.414 1.123,1.225 1.351,1.802 0.229,0.576 0.685,1.051 1.015,1.051 0.331,0 0.595,0.204 0.589,0.45 -0.006,0.247 1.207,2.613 2.703,5.256 1.49,2.643 3.298,6.289 4.006,8.109 0.715,1.82 1.46,3.49 1.658,3.724 0.192,0.229 1.976,-0.114 3.959,-0.763 1.982,-0.648 4.889,-1.171 6.457,-1.165 1.568,0 3.255,0.138 3.754,0.307 0.499,0.168 0.901,0.708 0.901,1.201 0,0.492 -1.556,2.487 -3.454,4.421 -1.91,1.94 -5.063,4.331 -7.058,5.34 -1.982,1.009 -5.225,2.258 -7.208,2.781 -1.982,0.522 -4.006,0.961 -4.505,0.967 -0.648,0.012 -0.558,-0.216 0.301,-0.799 0.66,-0.445 2.486,-1.123 4.054,-1.502 1.568,-0.384 4.475,-1.507 6.457,-2.499 1.983,-0.991 4.95,-3.087 6.596,-4.655 1.645,-1.567 2.997,-3.189 3.003,-3.604 0.006,-0.45 -0.775,-0.75 -1.94,-0.75 -1.075,-0.007 -3.436,0.402 -5.256,0.906 -1.82,0.499 -4.115,1.076 -5.106,1.274 -1.615,0.33 -1.892,0.156 -2.655,-1.658 -0.468,-1.111 -1.778,-4.048 -2.913,-6.529 -1.129,-2.475 -3.448,-6.475 -5.154,-8.884 -1.699,-2.415 -3.159,-4.373 -3.243,-4.355 -0.084,0.012 -1.165,0.757 -2.403,1.652 -1.237,0.895 -2.318,1.706 -2.402,1.802 -0.085,0.096 0.901,1.46 2.186,3.027 1.291,1.568 3.081,4.337 3.994,6.157 0.907,1.82 2.157,4.787 2.781,6.608 0.625,1.82 1.334,5.267 1.568,7.664 0.277,2.793 0.216,4.361 -0.168,4.361 -0.33,0 -0.805,-1.694 -1.051,-3.76 -0.246,-2.067 -0.895,-5.112 -1.436,-6.764 -0.546,-1.652 -1.327,-3.814 -1.742,-4.805 -0.414,-0.991 -1.057,-2.475 -1.435,-3.304 -0.379,-0.823 -2.03,-3.327 -3.67,-5.556 -1.64,-2.228 -3.382,-4.054 -3.881,-4.054 -0.54,0 -1.76,1.868 -3.039,4.655 -1.171,2.559 -2.523,5.4 -3.003,6.307 -0.475,0.907 -0.661,1.651 -0.415,1.645 0.247,0 -0.09,0.373 -0.751,0.829 -0.66,0.457 -2.823,1.712 -4.805,2.782 -1.982,1.075 -4.211,2.456 -4.955,3.075 -0.745,0.625 -1.082,1.261 -0.751,1.429 0.33,0.169 0.462,0.571 0.3,0.901 -0.162,0.331 -0.03,0.733 0.301,0.901 0.33,0.169 0.6,0.841 0.6,1.502 0,0.721 0.787,1.664 1.952,2.355 1.076,0.636 2.547,1.784 3.28,2.553 0.727,0.768 1.406,2.048 1.502,2.841 0.138,1.153 -0.193,1.555 -1.628,1.982 -0.991,0.3 -3.694,0.546 -6.007,0.558 -2.312,0.007 -4.949,-0.276 -5.856,-0.63 -0.907,-0.355 -2.025,-1.394 -2.475,-2.301 -0.457,-0.907 -1.285,-3.273 -1.85,-5.256 -0.559,-1.982 -1.177,-5.628 -1.73,-12.614 l 4.457,-1.723 c 2.445,-0.949 5.532,-2.415 6.854,-3.268 1.321,-0.847 3.327,-2.505 4.462,-3.682 1.13,-1.177 2.788,-3.76 3.677,-5.742 0.888,-1.983 1.585,-4.391 1.543,-5.346 -0.066,-1.616 -0.27,-1.766 -2.775,-2.007 -1.49,-0.144 -4.054,-0.78 -5.706,-1.423 -1.652,-0.643 -4.289,-1.97 -5.857,-2.949 -1.567,-0.986 -2.847,-1.995 -2.847,-2.241 0.006,-0.246 0.769,-1.934 1.694,-3.754 1.388,-2.733 1.832,-4.751 3.406,-20.044 l 3.003,-2.367 c 1.652,-1.297 5.166,-3.61 7.809,-5.136 2.643,-1.525 5.616,-2.865 6.607,-2.973 0.991,-0.108 2.006,-0.384 2.253,-0.606 0.246,-0.229 0.246,-1.31 0,-2.403 -0.355,-1.58 -1.082,-2.349 -3.454,-3.664 -1.652,-0.919 -3.79,-2.583 -4.745,-3.712 -0.962,-1.124 -2.241,-3.124 -2.842,-4.445 -0.708,-1.55 -1.099,-3.838 -1.111,-6.457 -0.012,-3.16 0.319,-4.685 1.472,-6.908 0.817,-1.568 2.102,-3.532 2.853,-4.361 0.757,-0.829 2.319,-2.162 3.472,-2.967 1.153,-0.805 2.781,-1.658 3.604,-1.898 0.829,-0.234 3.532,-0.451 6.006,-0.475 z m 448.402,0.114 c 5.364,0.127 5.442,0.151 8.289,2.529 1.58,1.322 3.875,3.856 5.1,5.628 2.12,3.076 2.222,3.454 2.21,8.109 -0.006,3.875 -0.288,5.412 -1.351,7.437 -0.739,1.405 -2.084,3.333 -2.991,4.282 -0.907,0.955 -3.07,2.577 -4.806,3.604 -1.736,1.034 -3.141,1.67 -3.129,1.424 0.018,-0.246 -0.403,-0.048 -0.931,0.45 -0.601,0.565 -0.907,1.688 -0.811,3.004 0.096,1.381 0.907,3.033 2.361,4.805 1.213,1.484 3.73,5.34 5.592,8.56 1.856,3.219 3.58,5.868 3.826,5.88 0.246,0.018 0.853,-0.39 1.351,-0.907 0.805,-0.835 0.787,-1.057 -0.132,-1.982 -0.57,-0.571 -1.045,-1.376 -1.051,-1.79 -0.012,-0.415 0.523,-1.97 1.183,-3.454 0.847,-1.904 1.556,-2.703 2.403,-2.703 0.661,0 2.006,-0.474 2.997,-1.051 1.634,-0.961 1.941,-0.967 3.454,-0.126 0.913,0.51 1.796,1.592 1.958,2.402 0.163,0.811 1.178,2.763 2.253,4.331 1.075,1.568 1.952,3.394 1.952,4.055 0,0.889 -0.901,1.597 -3.454,2.709 -2.625,1.141 -4.427,2.583 -7.508,6.006 -2.229,2.475 -4.391,4.493 -4.805,4.487 -0.415,-0.006 -1.502,-0.751 -4.079,-3.291 l 0.018,1.802 c 0.012,0.991 -0.522,3.562 -1.183,5.706 -0.661,2.144 -2.151,5.46 -5.418,10.812 l 2.601,3.754 c 1.429,2.066 3.279,4.974 4.102,6.457 0.829,1.484 2.295,4.541 3.256,6.782 1.309,3.045 1.982,3.988 2.655,3.712 0.498,-0.204 2.523,-0.787 4.505,-1.298 2.15,-0.546 4.691,-0.78 6.307,-0.576 1.489,0.192 2.841,0.504 3.003,0.697 0.162,0.192 -0.24,1.321 -0.901,2.51 -0.661,1.19 -2.415,3.232 -3.904,4.541 -1.49,1.31 -3.917,2.992 -5.406,3.748 -1.49,0.751 -3.989,1.802 -5.556,2.337 -1.568,0.535 -3.803,1.105 -4.956,1.273 -1.682,0.241 -2.222,0.06 -2.703,-0.901 -0.33,-0.66 -0.594,-2.757 -0.588,-4.655 0.006,-1.898 -0.565,-5.346 -1.28,-7.658 -0.709,-2.313 -1.718,-4.878 -2.246,-5.707 -0.529,-0.822 -1.142,-1.633 -1.364,-1.801 -0.216,-0.169 -0.973,-1.382 -1.676,-2.703 -0.696,-1.322 -2.012,-3.298 -2.913,-4.385 -0.991,-1.202 -2.006,-1.862 -2.547,-1.67 -0.498,0.174 -2.252,3.183 -3.904,6.679 -2.883,6.109 -3.148,6.451 -6.607,8.578 -1.983,1.213 -4.355,2.619 -5.274,3.111 -0.919,0.493 -1.652,1.31 -1.64,1.802 0.012,0.493 0.493,1.928 1.069,3.19 0.571,1.255 1.58,2.426 2.241,2.601 0.66,0.174 2.096,1.447 3.189,2.823 1.093,1.375 1.904,2.883 1.802,3.357 -0.102,0.469 -0.997,1.076 -1.988,1.346 -0.991,0.27 -3.694,0.522 -6.007,0.57 -2.685,0.055 -4.859,-0.246 -6.006,-0.816 -1.334,-0.667 -2.163,-1.82 -3.178,-4.433 -0.751,-1.94 -1.652,-5.154 -1.988,-7.136 -0.342,-1.982 -0.535,-4.8 -0.24,-8.92 l 3.934,-1.243 c 2.162,-0.691 5.13,-2.061 6.595,-3.052 1.466,-0.991 3.472,-2.613 4.451,-3.604 0.985,-0.991 2.679,-3.49 3.766,-5.556 1.142,-2.174 1.977,-4.637 1.977,-5.856 0,-2.091 -0.012,-2.103 -2.703,-2.103 -1.49,0 -4.121,-0.528 -5.857,-1.177 -1.736,-0.643 -4.301,-1.994 -5.706,-3.003 -1.406,-1.003 -2.547,-2.301 -2.541,-2.878 0.006,-0.576 0.655,-2.402 1.436,-4.054 1.045,-2.204 1.615,-4.992 2.156,-10.512 0.402,-4.126 0.835,-7.844 0.967,-8.259 0.126,-0.414 2.06,-2.096 4.289,-3.748 2.228,-1.646 6.085,-3.988 8.559,-5.208 2.481,-1.219 5.046,-2.24 5.707,-2.264 0.66,-0.024 1.201,-0.379 1.201,-0.793 0,-0.415 -0.054,-1.358 -0.126,-2.102 -0.084,-0.889 -0.805,-1.646 -2.103,-2.217 -1.087,-0.474 -2.18,-1.219 -2.426,-1.652 -0.246,-0.432 -0.787,-0.793 -1.202,-0.805 -0.414,-0.012 -1.609,-1.159 -2.667,-2.552 -1.051,-1.394 -2.336,-3.55 -2.853,-4.788 -0.516,-1.243 -0.931,-3.934 -0.925,-6.006 0.012,-2.289 0.433,-4.692 1.094,-6.157 0.588,-1.322 2.138,-3.586 3.435,-5.028 1.304,-1.441 3.124,-3.039 4.055,-3.544 0.925,-0.504 2.408,-1.141 3.303,-1.405 0.889,-0.27 4.055,-0.427 7.028,-0.361 z m -161.885,7.995 c 1.49,0.174 4.151,1.039 5.923,1.928 1.766,0.889 4.096,2.697 5.177,4.019 1.082,1.321 2.409,3.484 2.956,4.805 0.564,1.376 0.985,4.007 0.973,6.157 -0.006,2.601 -0.445,4.721 -1.412,6.908 -0.877,1.982 -2.492,4.108 -4.355,5.73 -1.621,1.412 -4.036,2.919 -5.357,3.346 -2.073,0.672 -2.421,1.039 -2.553,2.685 -0.12,1.531 0.198,2.138 1.652,3.105 0.991,0.661 2.006,1.213 2.252,1.225 0.246,0.012 0.721,0.385 1.051,0.823 0.331,0.445 2.853,2.799 5.604,5.232 4.722,4.181 5.064,4.373 6.007,3.394 0.937,-0.973 0.913,-1.135 -1.7,-4.067 l 1.352,-2.21 c 0.744,-1.213 2.564,-3.256 4.054,-4.523 1.49,-1.273 2.907,-2.307 3.154,-2.295 0.246,0.006 0.967,0.763 1.597,1.67 0.631,0.907 1.953,3.274 2.938,5.256 0.979,1.982 1.976,4.956 2.637,9.611 l -2.457,1.051 c -1.358,0.576 -2.937,1.051 -3.514,1.045 -0.577,0 -2.673,1.075 -4.655,2.391 -1.982,1.309 -3.941,2.396 -4.355,2.402 -0.414,0.012 -2.24,-0.654 -4.054,-1.483 -1.815,-0.823 -3.442,-1.502 -3.604,-1.502 -0.163,0 -0.235,1.874 -0.151,4.157 0.084,2.288 -0.06,4.384 -0.318,4.655 -0.258,0.276 -0.463,0.907 -0.463,1.399 0,0.493 -0.985,3.196 -2.192,6.007 -1.213,2.811 -2.625,5.4 -3.141,5.766 -0.835,0.577 -0.787,0.805 0.408,1.952 0.745,0.709 1.352,1.424 1.352,1.592 0,0.168 1.279,2.127 2.841,4.355 1.561,2.228 3.213,4.463 3.67,4.955 0.51,0.553 0.709,1.604 0.516,2.704 -0.174,0.991 -0.871,3.694 -1.549,6.006 -0.679,2.313 -1.244,4.541 -1.256,4.956 -0.012,0.48 0.853,0.75 2.385,0.75 1.321,0 3.352,0.409 4.505,0.901 1.153,0.493 2.769,1.646 3.586,2.553 0.817,0.907 1.489,1.988 1.501,2.403 0.012,0.414 -0.997,1.015 -2.234,1.333 -1.237,0.325 -3.742,0.871 -5.556,1.214 -1.814,0.342 -5.466,0.618 -8.109,0.618 -2.643,0 -6.091,-0.408 -7.659,-0.907 -1.567,-0.498 -2.853,-1.045 -2.853,-1.207 0,-0.162 1.25,-2.937 2.781,-6.157 1.658,-3.496 2.908,-7.064 3.094,-8.86 0.264,-2.534 0.042,-3.507 -1.43,-6.216 -0.955,-1.766 -2.21,-3.658 -2.781,-4.205 -0.985,-0.937 -1.021,-0.787 -0.601,2.739 0.385,3.298 0.301,3.856 -0.762,4.805 -0.661,0.595 -1.742,1.172 -2.403,1.292 -0.661,0.12 -2.619,0.324 -4.355,0.45 -2.3,0.168 -3.153,0.481 -3.153,1.135 0,0.493 0.27,0.901 0.6,0.901 0.331,0 0.439,0.475 0.235,1.052 -0.205,0.576 -0.067,1.255 0.3,1.501 0.366,0.247 0.667,1.67 0.667,3.154 0,2.691 -0.012,2.703 -2.103,2.703 -1.766,0 -2.492,-0.457 -4.529,-2.853 -1.339,-1.568 -2.961,-4.001 -3.604,-5.406 -0.648,-1.406 -1.573,-3.7 -2.054,-5.106 -0.481,-1.406 -1.087,-4.109 -1.351,-6.013 -0.307,-2.228 -0.259,-3.459 0.126,-3.459 0.33,0.006 2.156,0.546 4.054,1.207 1.898,0.667 4.944,1.207 10.061,1.207 v -2.102 c 0,-1.159 -0.564,-3.52 -1.255,-5.256 -0.913,-2.276 -1.159,-3.862 -0.901,-5.706 0.192,-1.406 0.895,-3.772 1.556,-5.256 0.66,-1.484 1.201,-2.973 1.201,-3.304 0,-0.33 0.402,-1.009 0.901,-1.501 0.498,-0.493 1.303,-2.793 1.802,-5.106 0.498,-2.313 0.901,-5.826 0.901,-11.413 l -1.952,0.259 c -1.075,0.138 -3.947,1.015 -6.385,1.952 -2.439,0.931 -4.631,1.964 -4.872,2.294 -0.24,0.331 -1.021,2.896 -1.742,5.707 -1.153,4.511 -1.201,5.159 -0.384,5.556 0.595,0.294 1.039,1.664 1.261,3.904 0.253,2.571 0.114,3.682 -0.528,4.355 -0.481,0.492 -1.039,1.508 -1.244,2.252 -0.204,0.745 -0.798,1.76 -1.315,2.253 -0.523,0.492 -1.604,0.901 -2.403,0.901 -0.859,0 -1.706,-0.493 -2.06,-1.201 -0.33,-0.661 -1.075,-1.202 -1.652,-1.202 -0.576,0.006 -2.132,-0.564 -3.454,-1.261 -1.321,-0.697 -2.619,-1.442 -2.889,-1.652 -0.264,-0.216 0.727,-2.823 2.217,-5.796 1.483,-2.974 3.592,-7.977 4.679,-11.113 1.093,-3.135 2.541,-6.517 3.219,-7.508 0.679,-0.991 3.929,-3.436 7.22,-5.436 3.286,-2 7.599,-4.187 9.581,-4.859 1.982,-0.667 3.682,-1.598 3.778,-2.067 0.102,-0.486 -0.799,-1.333 -2.102,-1.97 -1.25,-0.613 -3.226,-1.862 -4.379,-2.775 -1.153,-0.913 -2.889,-3.111 -3.856,-4.889 -1.262,-2.319 -1.838,-4.337 -2.037,-7.136 -0.21,-3.004 -0.006,-4.529 0.895,-6.607 0.643,-1.484 2.229,-3.887 3.532,-5.328 1.304,-1.442 3.178,-3.052 4.169,-3.574 0.991,-0.517 3.292,-1.286 5.106,-1.7 1.814,-0.415 4.517,-0.619 6.006,-0.451 z"
               fill-rule="evenodd"
               fill="#223860"
               id="path119" />
          </g>
          <g
             opacity="0.992"
             id="g125">
            <path
               d="m -60.097,203.112 c 3.532,0.132 5.364,0.511 6.908,1.424 1.159,0.678 2.979,2.216 4.055,3.405 1.075,1.196 2.366,3.184 2.865,4.421 0.504,1.238 0.913,3.875 0.913,5.857 -0.006,2.414 -0.427,4.499 -1.286,6.307 -0.702,1.483 -1.85,3.345 -2.558,4.126 -0.709,0.781 -2.229,2.037 -3.388,2.781 -1.159,0.751 -3.184,1.568 -4.505,1.814 -1.322,0.247 -2.607,0.547 -2.853,0.667 -0.247,0.12 -0.217,0.559 0.066,0.973 0.288,0.415 0.709,1.97 0.937,3.454 0.228,1.484 0.468,3.039 0.528,3.454 0.066,0.414 0.391,0.739 0.721,0.733 0.331,-0.012 1.4,0.594 2.373,1.351 0.973,0.751 3.159,3.262 4.871,5.574 1.706,2.313 3.676,5.22 5.67,8.71 l 2.854,-2.703 c 1.862,-1.766 3.219,-2.601 3.904,-2.403 0.577,0.163 1.051,0.03 1.051,-0.3 0,-0.33 -0.703,-1.075 -3.135,-2.703 l 1.387,-2.703 c 0.931,-1.814 1.442,-2.361 1.568,-1.652 0.096,0.577 0.336,1.051 0.528,1.051 0.187,0 1.136,-0.811 2.103,-1.802 1.429,-1.471 1.976,-1.693 2.955,-1.201 0.661,0.33 1.213,1.075 1.225,1.652 0.018,0.577 -0.39,1.387 -0.901,1.802 -0.654,0.528 -1.273,0.576 -2.126,0.15 -0.799,-0.402 -1.201,-0.402 -1.201,0 0,0.33 1.243,1.748 2.769,3.154 1.519,1.405 3.009,2.618 3.303,2.703 0.295,0.084 0.403,-0.391 0.235,-1.052 -0.168,-0.66 -0.03,-1.201 0.3,-1.201 0.33,0 0.757,0.607 0.949,1.352 0.186,0.744 0.12,1.519 -0.15,1.723 -0.276,0.205 -1.85,0.865 -3.502,1.472 -1.652,0.601 -4.487,2.367 -6.307,3.91 -1.82,1.55 -4.523,3.412 -8.71,5.454 l -4.505,-4.751 c -2.474,-2.613 -5.249,-5.604 -6.156,-6.655 -0.907,-1.045 -1.922,-1.904 -2.253,-1.904 -0.33,0 -0.601,0.132 -0.601,0.3 0,0.168 1.911,2.397 4.241,4.955 4.049,4.445 4.229,4.764 3.941,7.058 -0.169,1.322 -0.463,3.484 -0.649,4.806 -0.186,1.321 -0.931,3.886 -1.646,5.706 -0.715,1.82 -1.886,4.247 -2.601,5.406 -0.715,1.159 -2.354,3.015 -3.646,4.126 -2.102,1.82 -2.421,1.929 -3.093,1.052 -0.415,-0.535 -0.853,-0.769 -0.973,-0.523 -0.127,0.246 -0.397,1.67 -0.607,3.154 -0.21,1.483 -0.529,4.733 -0.703,7.207 -0.18,2.481 -0.51,4.728 -0.745,4.998 -0.234,0.27 -2.949,0.27 -6.036,0 -3.088,-0.27 -5.719,-0.288 -5.857,-0.042 -0.138,0.246 0.294,0.991 0.955,1.652 0.985,0.985 1.202,2 1.202,5.706 0,2.481 -0.205,4.631 -0.451,4.787 -0.246,0.157 -1.261,-0.528 -2.252,-1.513 -0.992,-0.991 -1.532,-1.79 -1.202,-1.772 0.331,0.012 0.144,-0.325 -0.42,-0.739 -0.559,-0.42 -1.754,-2.247 -2.655,-4.067 -0.901,-1.82 -2.127,-5.195 -2.721,-7.508 -0.601,-2.312 -1.093,-4.475 -1.099,-4.805 0,-0.331 0.6,-0.565 1.345,-0.529 0.739,0.042 1.346,0.132 1.346,0.204 0,0.067 0.54,0.199 1.201,0.289 0.661,0.084 3.286,0.534 5.838,0.997 3.821,0.691 4.77,0.703 5.406,0.054 0.421,-0.433 0.871,-2.325 1.003,-4.205 0.163,-2.366 -0.054,-3.88 -0.69,-4.919 -0.511,-0.823 -1.112,-2.313 -1.334,-3.304 -0.252,-1.087 -0.012,-3.231 0.601,-5.406 0.559,-1.982 1.616,-4.685 2.354,-6.006 0.739,-1.322 1.772,-4.295 2.307,-6.608 0.529,-2.312 1.135,-5.286 1.34,-6.607 0.204,-1.321 0.018,-4.883 -0.421,-7.911 -0.715,-5.015 -0.691,-5.706 0.264,-7.658 0.577,-1.184 1.052,-2.961 1.052,-3.953 0,-1.549 -0.403,-2 -2.854,-3.225 -1.567,-0.787 -3.76,-2.205 -4.859,-3.154 -1.105,-0.955 -2.661,-3.147 -3.454,-4.883 -1.003,-2.186 -1.441,-4.211 -1.435,-6.607 0.006,-2.037 0.462,-4.439 1.111,-5.857 0.6,-1.321 1.88,-3.315 2.841,-4.433 0.955,-1.117 2.499,-2.444 3.43,-2.949 0.925,-0.499 2.408,-1.135 3.303,-1.406 0.889,-0.276 3.779,-0.414 6.421,-0.312 z m 272.402,-8.031 c 2.799,-0.012 5.418,0.349 6.907,0.949 1.322,0.535 3.442,1.964 4.704,3.172 1.267,1.207 2.865,3.279 3.543,4.601 0.889,1.73 1.226,3.496 1.202,6.307 -0.024,2.511 -0.457,4.871 -1.22,6.607 -0.654,1.484 -2.096,3.556 -3.207,4.595 -1.111,1.039 -3.1,2.463 -4.421,3.154 -1.321,0.697 -3.147,1.267 -4.054,1.261 -0.907,0 -1.79,0.27 -1.953,0.601 -0.162,0.33 -0.03,0.733 0.301,0.901 0.33,0.168 0.546,1.177 0.48,2.252 -0.072,1.238 0.781,3.815 2.337,7.058 1.345,2.811 3.189,7.4 4.09,10.211 1.106,3.436 1.658,6.482 1.694,9.311 0.024,2.312 -0.162,5.285 -0.408,6.607 -0.247,1.321 -1.25,4.09 -2.223,6.157 -1.297,2.763 -2.084,3.754 -2.967,3.754 -0.853,0 -1.58,-0.835 -2.499,-2.853 -0.715,-1.568 -1.321,-3.19 -1.351,-3.604 -0.03,-0.415 -0.192,-0.739 -0.355,-0.733 -0.162,0.012 -0.811,-1.273 -1.435,-2.853 -0.625,-1.58 -1.37,-3.208 -1.652,-3.622 -0.306,-0.451 -0.114,-1.898 0.486,-3.604 0.553,-1.568 1.298,-3.202 1.652,-3.628 0.355,-0.433 0.445,-0.769 0.199,-0.751 -0.247,0.012 0.228,-1.934 1.057,-4.331 0.829,-2.396 1.507,-4.691 1.501,-5.105 0,-0.415 -0.21,-0.649 -0.456,-0.529 -0.246,0.126 -1.075,1.952 -1.832,4.054 -0.763,2.109 -1.688,4.511 -2.054,5.334 -0.367,0.829 -0.739,1.91 -0.829,2.403 -0.09,0.493 -0.517,1.91 -0.955,3.147 -0.709,2.025 -0.655,2.523 0.534,5.106 0.727,1.574 2.151,4.817 3.154,7.214 1.694,4.031 1.766,4.463 0.931,5.857 -0.499,0.829 -0.901,1.633 -0.901,1.802 0,0.168 1.015,-0.253 4.505,-2.157 l 1.664,1.676 c 0.919,0.925 1.657,1.886 1.651,2.132 -0.006,0.247 -0.414,0.319 -0.913,0.151 -0.498,-0.169 -0.895,-0.097 -0.889,0.15 0.006,0.246 0.541,1.129 1.19,1.952 0.648,0.829 1.183,2.246 1.189,3.153 0.006,1.058 -0.366,1.772 -1.039,1.977 -0.661,0.21 -1.436,-0.181 -2.09,-1.052 -0.571,-0.756 -1.046,-1.579 -1.052,-1.826 -0.006,-0.246 0.259,-0.582 0.589,-0.75 0.33,-0.169 0.601,-0.709 0.601,-1.202 0,-0.636 -0.973,-0.246 -3.328,1.352 -1.826,1.237 -3.316,2.456 -3.304,2.703 0.012,0.246 0.427,0.45 0.925,0.45 0.499,0 0.901,0.271 0.901,0.601 0,0.33 -0.672,0.601 -1.501,0.601 -1.358,0 -1.526,-0.277 -1.748,-2.854 -0.138,-1.567 -0.247,-3.393 -0.241,-4.054 0.007,-0.661 -1.375,-5.388 -3.057,-10.512 -1.94,-5.886 -2.943,-9.863 -2.733,-10.812 0.186,-0.823 0.421,-2.174 0.523,-3.003 0.096,-0.823 0.42,-2.949 0.714,-4.721 0.295,-1.778 0.739,-3.328 0.986,-3.454 0.246,-0.132 0.336,-0.439 0.198,-0.685 -0.138,-0.246 0.126,-3.021 0.594,-6.157 0.505,-3.417 1.286,-6.307 1.947,-7.208 0.75,-1.027 1.027,-2.258 0.883,-3.904 -0.193,-2.192 -0.433,-2.493 -2.745,-3.412 -1.388,-0.558 -3.761,-2.18 -5.268,-3.604 -1.808,-1.712 -3.082,-3.616 -3.76,-5.598 -0.565,-1.652 -1.028,-4.084 -1.028,-5.406 -0.006,-1.321 0.421,-3.622 0.937,-5.105 0.523,-1.484 1.556,-3.586 2.295,-4.668 0.745,-1.075 2.823,-2.763 4.625,-3.748 2.793,-1.519 3.94,-1.79 7.779,-1.808 z M 42.617,189.687 c 4.073,-0.012 5.304,0.241 8.067,1.646 1.796,0.913 4.036,2.607 4.973,3.76 0.944,1.154 2.121,3.454 2.619,5.106 0.685,2.288 0.769,3.862 0.349,6.607 -0.301,1.982 -0.961,4.415 -1.466,5.406 -0.51,0.991 -1.826,2.649 -2.925,3.688 -1.105,1.039 -3.154,2.457 -4.559,3.154 -1.406,0.697 -3.364,1.267 -4.355,1.267 -0.991,0 -1.802,0.27 -1.802,0.601 0,0.33 0.409,0.733 0.901,0.901 0.589,0.198 0.895,1.075 0.889,2.553 -0.012,1.237 0.408,3.333 0.925,4.655 0.517,1.321 1.442,3.351 2.054,4.505 0.619,1.153 1.892,4.264 2.829,6.907 1.502,4.223 1.712,5.647 1.712,11.713 0,6.662 -0.078,7.058 -2.072,11.113 -1.135,2.312 -2.162,4.336 -2.276,4.505 -0.115,0.168 1.291,1.315 3.123,2.552 1.832,1.238 4.343,3.298 5.58,4.571 1.238,1.274 2.661,3.04 3.154,3.917 0.817,1.453 0.805,1.694 -0.169,2.637 -0.582,0.57 -2.859,1.982 -5.051,3.141 -2.187,1.159 -4.073,2.373 -4.181,2.703 -0.108,0.331 0.547,0.517 1.448,0.415 1.393,-0.163 1.928,0.252 3.502,2.703 1.021,1.585 2.168,3.832 2.547,4.991 0.384,1.159 0.558,2.235 0.396,2.403 -0.168,0.168 -1.586,-0.373 -3.153,-1.195 -1.562,-0.817 -2.986,-1.724 -3.148,-2.001 -0.162,-0.282 -0.505,-0.486 -0.751,-0.462 -0.246,0.03 -1.465,-0.715 -2.703,-1.652 -1.237,-0.937 -3.4,-3.238 -4.805,-5.106 -1.406,-1.868 -2.487,-3.688 -2.403,-4.042 0.084,-0.355 1.64,-1.165 3.454,-1.802 1.814,-0.637 3.712,-1.34 4.205,-1.556 0.492,-0.216 1.105,-0.354 1.351,-0.3 0.246,0.054 0.451,-0.313 0.451,-0.805 0,-0.493 -1.688,-1.898 -3.754,-3.118 -3.166,-1.862 -4.325,-2.216 -10.963,-2.288 l -0.186,-2.102 c -0.102,-1.16 0.138,-2.643 0.529,-3.304 0.6,-1.003 0.462,-1.67 -0.859,-4.055 -0.871,-1.567 -1.856,-2.985 -2.187,-3.153 -0.384,-0.192 -0.396,-0.679 -0.036,-1.352 0.307,-0.576 1.01,-1.994 1.556,-3.153 0.547,-1.159 1.4,-3.184 1.886,-4.505 0.493,-1.321 1.033,-4.295 1.196,-6.607 0.252,-3.502 0.54,-4.403 1.747,-5.406 0.793,-0.661 1.448,-1.538 1.454,-1.952 0,-0.415 -2.306,0.666 -5.124,2.402 -2.823,1.736 -5.82,3.694 -8.175,5.556 l 1.31,6.908 c 0.721,3.796 1.483,7.262 1.7,7.701 0.246,0.51 -0.096,0.883 -0.967,1.051 -0.745,0.144 -1.352,0.528 -1.352,0.859 0,0.33 1.093,0.534 2.421,0.45 2.222,-0.138 2.535,0.036 3.754,2.09 0.745,1.25 1.099,2.439 0.799,2.703 -0.288,0.253 -0.631,0.127 -0.751,-0.288 -0.12,-0.414 -0.42,-0.751 -0.667,-0.745 -0.246,0.006 -0.348,1.286 -0.222,2.853 0.198,2.469 0.054,2.908 -1.051,3.298 -0.805,0.282 -1.466,0.174 -1.784,-0.3 -0.282,-0.415 -0.685,-1.226 -0.901,-1.802 -0.24,-0.637 -0.102,-1.081 0.354,-1.123 0.415,-0.037 0.955,-0.037 1.202,0 0.246,0.042 0.45,-0.337 0.45,-0.829 0,-0.559 -0.396,-0.799 -1.051,-0.637 -0.577,0.15 -2.367,0.486 -3.976,0.751 -1.61,0.27 -3.028,0.69 -3.154,0.937 -0.126,0.246 0.246,0.727 0.823,1.063 0.859,0.505 0.721,0.583 -0.751,0.45 -1.195,-0.108 -1.766,-0.468 -1.688,-1.063 0.06,-0.492 0.517,-2.523 1.009,-4.505 0.787,-3.177 0.787,-4.745 -0.841,-22.825 l 4.662,-4.685 c 2.57,-2.577 6.018,-5.718 7.67,-6.98 1.652,-1.261 3.748,-2.463 4.655,-2.673 0.907,-0.21 1.652,-0.781 1.652,-1.279 0,-0.499 -0.408,-0.901 -0.901,-0.901 -0.655,0 -0.943,-0.781 -1.051,-2.847 -0.144,-2.787 -0.216,-2.878 -3.154,-4.259 -1.651,-0.769 -3.904,-2.259 -5.009,-3.304 -1.099,-1.051 -2.493,-2.853 -3.094,-4.006 -0.594,-1.153 -1.231,-3.454 -1.405,-5.106 -0.174,-1.652 -0.072,-4.222 0.234,-5.706 0.301,-1.49 1.352,-3.844 2.337,-5.238 0.997,-1.423 3.177,-3.334 4.961,-4.349 2.799,-1.597 3.754,-1.814 7.983,-1.826 z m 219.242,0.048 c 1.322,-0.042 3.893,0.397 5.707,0.973 2.27,0.721 4.162,1.899 6.06,3.767 1.929,1.898 3.088,3.724 3.833,6.024 0.919,2.835 0.979,3.863 0.402,7.208 -0.42,2.451 -1.291,4.787 -2.33,6.271 -0.913,1.304 -2.739,3.214 -4.061,4.253 -1.381,1.075 -3.556,2.078 -5.106,2.354 -1.489,0.259 -2.907,0.577 -3.153,0.709 -0.246,0.126 -0.168,0.565 0.18,0.979 0.349,0.415 0.553,1.76 0.451,2.998 -0.096,1.237 0.024,2.252 0.27,2.252 0.246,0.006 1.129,1.225 1.952,2.709 0.829,1.484 1.46,2.907 1.406,3.154 -0.054,0.246 0.06,0.853 0.258,1.351 0.192,0.499 0.619,1.85 0.955,3.003 0.33,1.154 0.757,4.331 1.285,12.014 l 3.154,0.883 c 1.736,0.48 4.042,1.087 5.13,1.351 1.093,0.258 2.096,0.937 2.252,1.52 0.15,0.576 0.547,1.051 0.877,1.051 0.36,0 0.457,-1.015 0.24,-2.553 -0.354,-2.529 -0.33,-2.565 2.103,-3.604 2.342,-1.003 2.45,-1.003 2.174,0 -0.246,0.913 0.084,1.021 2.553,0.823 2.36,-0.186 2.907,-0.036 3.237,0.901 0.223,0.619 0.103,1.466 -0.27,1.88 -0.366,0.415 -1.291,0.751 -2.048,0.751 -0.829,0 -1.382,-0.36 -1.382,-0.901 0,-0.493 -0.402,-0.901 -0.901,-0.901 -0.498,0 -0.901,0.132 -0.901,0.3 0,0.169 0.415,1.856 0.913,3.754 0.505,1.899 1.184,3.725 1.514,4.055 0.397,0.396 0.595,0.246 0.589,-0.451 -0.006,-0.576 0.258,-1.051 0.588,-1.051 0.331,0 0.439,0.607 0.235,1.352 -0.205,0.745 -0.541,1.55 -0.751,1.79 -0.21,0.24 -5.652,-1.334 -12.098,-3.502 -6.445,-2.162 -11.911,-4.253 -12.151,-4.643 -0.246,-0.385 -0.469,-1.922 -0.505,-3.406 -0.03,-1.484 -0.51,-4.847 -1.057,-7.466 -0.636,-3.016 -1.333,-4.872 -1.904,-5.064 -0.727,-0.246 -0.817,0.036 -0.456,1.454 0.246,0.973 0.714,3.117 1.033,4.769 0.324,1.652 0.739,4.625 0.925,6.607 0.186,1.983 0.564,3.875 0.847,4.205 0.276,0.33 2.162,1.207 4.186,1.952 3.268,1.201 3.64,1.502 3.328,2.703 -0.192,0.745 -0.799,2.511 -1.351,3.923 -0.553,1.417 -1.274,2.558 -1.604,2.54 -0.331,-0.024 -0.409,0.168 -0.168,0.427 0.234,0.258 0.036,1.213 -0.451,2.12 -0.486,0.907 -1.76,2.619 -2.835,3.796 -1.213,1.34 -2.859,2.373 -4.355,2.739 -1.682,0.415 -2.493,0.397 -2.703,-0.06 -0.162,-0.354 -0.775,-0.51 -1.351,-0.336 -0.577,0.174 -0.937,0.522 -0.793,0.769 0.144,0.246 -0.307,1.67 -0.991,3.153 -0.691,1.484 -1.31,2.974 -1.376,3.304 -0.066,0.33 -1.213,3.171 -2.547,6.307 -1.333,3.135 -3.556,8.139 -4.937,11.112 -1.388,2.973 -2.871,6.085 -3.31,6.908 -0.721,1.381 -0.63,1.658 1.099,3.394 1.436,1.429 2.613,1.976 4.896,2.252 1.652,0.198 3.273,0.637 3.604,0.973 0.402,0.409 0.3,0.607 -0.3,0.607 -0.799,0 -0.799,0.06 0,0.546 0.72,0.433 0.75,0.703 0.156,1.34 -0.415,0.438 -0.547,1.027 -0.301,1.309 0.247,0.277 -0.228,0.439 -1.057,0.361 -0.823,-0.084 -2.042,0.072 -2.703,0.336 -0.661,0.264 -3.093,0.294 -5.406,0.06 -2.661,-0.264 -4.601,-0.799 -5.286,-1.441 -0.594,-0.565 -1.946,-2.715 -3.003,-4.776 -1.79,-3.496 -1.862,-3.856 -1.021,-5.231 0.499,-0.811 2.727,-4.463 4.955,-8.109 2.229,-3.653 5.4,-9.275 7.046,-12.494 1.652,-3.22 3.004,-6.193 3.004,-6.608 0.006,-0.414 0.348,-0.744 0.762,-0.732 0.415,0.006 0.547,-0.127 0.301,-0.301 -0.247,-0.174 0.066,-1.465 0.69,-2.871 0.679,-1.52 1.208,-4.253 1.31,-6.757 0.09,-2.313 0.595,-5.286 1.123,-6.608 0.529,-1.321 1.478,-3.345 2.115,-4.505 0.636,-1.159 1.225,-2.372 1.309,-2.703 0.084,-0.33 0.565,-2.763 1.057,-5.406 0.631,-3.345 0.823,-7.13 0.631,-12.463 -0.174,-4.89 -0.06,-7.659 0.324,-7.659 0.331,0 0.601,-1.484 0.601,-6.607 l -2.853,-1.232 c -1.568,-0.678 -3.754,-2.096 -4.86,-3.153 -1.099,-1.057 -2.498,-2.871 -3.099,-4.024 -0.607,-1.154 -1.292,-3.454 -1.52,-5.106 -0.294,-2.078 -0.126,-4.067 0.547,-6.457 0.733,-2.601 1.682,-4.175 3.826,-6.367 1.982,-2.019 3.766,-3.19 5.857,-3.839 1.651,-0.51 4.084,-0.967 5.405,-1.009 z M -7.839,195.91 c 2.691,0.126 5.07,0.631 6.608,1.406 1.321,0.666 3.423,2.402 4.673,3.85 1.243,1.448 2.565,3.586 2.931,4.739 0.366,1.153 0.553,3.995 0.408,6.307 -0.198,3.124 -0.684,4.938 -1.886,7.058 -0.895,1.568 -2.228,3.165 -2.973,3.544 -0.745,0.378 -1.49,0.883 -1.652,1.117 -0.162,0.234 -1.652,1.009 -3.303,1.724 -1.652,0.715 -3.478,1.297 -4.055,1.285 -0.577,-0.006 -1.051,0.259 -1.051,0.589 0,0.33 0.27,0.601 0.601,0.601 0.33,0 0.6,0.811 0.6,1.802 0,0.991 0.925,3.628 2.055,5.856 1.129,2.229 2.462,5.274 2.967,6.758 0.504,1.483 0.793,2.907 0.649,3.153 -0.145,0.246 0.006,0.451 0.336,0.451 0.33,0 0.793,1.015 1.027,2.252 0.234,1.238 0.511,2.931 0.613,3.754 0.102,0.829 0.216,3.124 0.258,5.106 0.042,1.982 -0.366,5.022 -0.913,6.757 -0.541,1.736 -1.321,3.166 -1.736,3.178 -0.414,0.018 -1.087,-0.39 -1.502,-0.901 -0.468,-0.577 -1.261,-0.793 -2.102,-0.577 -1.165,0.295 -1.622,-0.162 -3.304,-3.303 -1.075,-2.013 -1.886,-3.724 -1.802,-3.815 0.085,-0.09 -0.462,-0.834 -1.213,-1.651 -0.751,-0.823 -1.357,-1.622 -1.351,-1.79 0.012,-0.169 0.991,-2.193 2.18,-4.505 1.195,-2.313 2.937,-5.286 3.88,-6.608 0.943,-1.321 1.526,-2.613 1.286,-2.865 -0.235,-0.252 -1.099,0.307 -1.928,1.244 -0.823,0.943 -2.643,3.85 -4.037,6.469 -1.393,2.619 -2.547,5.099 -2.553,5.514 -0.012,0.414 1.466,3.454 3.286,6.757 2.739,4.986 3.177,6.163 2.553,6.92 -0.415,0.505 -0.547,1.111 -0.301,1.351 0.253,0.241 1.064,-0.162 1.802,-0.901 0.745,-0.732 1.622,-1.345 1.953,-1.345 0.33,-0.006 1.411,0.655 2.402,1.466 1.382,1.135 1.556,1.483 0.751,1.495 -0.577,0.012 -1.051,0.433 -1.051,0.925 0,0.493 0.336,0.895 0.751,0.883 0.414,-0.006 1.159,0.685 1.652,1.538 0.636,1.099 0.726,1.838 0.3,2.511 -0.33,0.522 -0.871,1.039 -1.201,1.147 -0.331,0.108 -1.274,-0.318 -2.103,-0.955 -1.483,-1.147 -1.489,-1.171 -0.3,-2.042 0.661,-0.487 1.009,-1.106 0.769,-1.382 -0.234,-0.276 -1.796,0.583 -3.46,1.904 -1.67,1.322 -3.027,2.607 -3.027,2.853 0.006,0.247 0.348,0.547 0.762,0.667 0.415,0.12 0.613,0.367 0.451,0.547 -0.162,0.18 -0.835,0.42 -1.49,0.528 -0.654,0.114 -1.195,-0.108 -1.201,-0.492 -0.006,-0.385 -0.222,-0.925 -0.481,-1.202 -0.258,-0.276 -0.456,-1.105 -0.45,-1.85 0.012,-0.744 -0.535,-2.907 -1.213,-4.805 -0.673,-1.898 -1.286,-3.724 -1.352,-4.054 -0.066,-0.331 -0.27,-0.733 -0.456,-0.901 -0.187,-0.169 -1.508,-3.004 -5.539,-12.314 l 3.989,-8.259 c 2.192,-4.541 4.259,-8.259 4.589,-8.259 0.33,0 0.468,-0.403 0.3,-0.901 -0.246,-0.733 -0.474,-0.763 -1.225,-0.15 -0.811,0.654 -0.925,0.438 -0.889,-1.652 0.024,-1.322 0.45,-2.805 0.943,-3.304 0.565,-0.565 0.781,-1.52 0.589,-2.553 -0.247,-1.267 -1.052,-2.012 -3.472,-3.195 -1.736,-0.853 -3.923,-2.271 -4.86,-3.154 -0.937,-0.883 -2.198,-2.559 -2.793,-3.712 -0.6,-1.153 -1.285,-3.183 -1.519,-4.505 -0.241,-1.321 -0.271,-3.754 -0.066,-5.406 0.246,-2.054 1.045,-3.988 2.51,-6.109 1.184,-1.711 3.004,-3.604 4.049,-4.204 1.045,-0.607 2.853,-1.43 4.018,-1.838 1.172,-0.415 3.995,-0.655 6.319,-0.547 z m -113.225,0.589 c 3.027,0.132 5.292,0.6 6.908,1.423 1.321,0.673 3.327,2.271 4.457,3.55 1.129,1.28 2.45,3.28 2.931,4.433 0.48,1.153 0.883,3.454 0.889,5.106 0.012,1.652 -0.427,4.355 -0.967,6.006 -0.541,1.652 -1.934,4.019 -3.094,5.256 -1.165,1.238 -3.129,2.769 -4.366,3.394 -1.238,0.631 -3.268,1.303 -4.505,1.502 -1.238,0.198 -2.253,0.63 -2.253,0.961 0,0.33 0.27,0.6 0.601,0.6 0.33,0 0.6,1.352 0.6,3.004 0,2.607 0.265,3.261 1.983,4.955 1.093,1.075 3.219,3.983 4.721,6.457 1.501,2.481 3.442,5.791 4.319,7.359 0.877,1.567 1.796,2.853 2.042,2.853 0.246,0 0.991,-0.811 1.652,-1.796 0.793,-1.19 1.555,-1.694 2.252,-1.502 0.577,0.162 1.051,0.09 1.057,-0.156 0,-0.246 -0.817,-1.123 -3.634,-3.454 l 1.063,-2.571 c 0.583,-1.411 1.268,-2.565 1.514,-2.553 0.246,0.012 0.451,0.427 0.451,0.919 0,0.493 0.27,0.901 0.6,0.901 0.331,0 0.721,-0.474 0.865,-1.051 0.15,-0.576 0.691,-1.387 1.202,-1.802 0.516,-0.414 1.477,-0.618 2.138,-0.45 0.751,0.186 1.207,0.805 1.213,1.652 0.006,0.744 -0.336,1.675 -0.751,2.078 -0.516,0.492 -1.099,0.54 -1.814,0.15 -0.75,-0.408 -1.045,-0.36 -1.033,0.174 0.012,0.415 1.298,1.628 2.853,2.697 2.169,1.49 2.872,1.742 2.986,1.051 0.084,-0.492 0.354,-0.895 0.6,-0.895 0.247,-0.006 0.787,0.535 1.202,1.202 0.414,0.66 0.685,1.303 0.6,1.429 -0.084,0.126 -1.772,1.039 -3.754,2.025 -2.294,1.147 -4.481,2.859 -6.006,4.703 -1.322,1.597 -2.944,3.393 -3.604,3.994 -1.178,1.069 -1.334,0.955 -8.265,-5.982 -3.881,-3.887 -7.046,-6.8 -7.04,-6.47 0.012,0.331 1.91,2.697 8.397,9.911 l -0.27,3.454 c -0.15,1.898 -0.319,3.862 -0.379,4.355 -0.054,0.492 -1.147,3.129 -2.426,5.856 -1.286,2.727 -2.601,4.956 -2.932,4.956 -0.33,0 -0.468,0.27 -0.3,0.601 0.168,0.33 -0.691,1.345 -1.904,2.252 -1.58,1.177 -2.997,1.676 -4.956,1.748 -1.513,0.048 -2.955,0.12 -3.201,0.15 -0.246,0.03 -0.445,0.391 -0.433,0.805 0.012,0.415 -1.309,3.586 -5.88,13.365 l -4.727,2.499 c -2.601,1.369 -5.064,2.925 -5.478,3.453 -0.613,0.781 -0.505,1.574 0.6,4.349 0.841,2.115 2.031,3.868 3.154,4.655 0.991,0.691 2.072,1.274 2.402,1.286 0.331,0.018 0.523,0.426 0.427,0.907 -0.096,0.48 0.174,1.075 0.601,1.321 0.612,0.355 0.588,0.565 -0.127,0.997 -0.498,0.301 -2.793,0.589 -5.105,0.637 -2.313,0.048 -4.878,-0.198 -5.706,-0.553 -0.823,-0.348 -1.839,-1.309 -2.253,-2.132 -0.414,-0.829 -1.159,-3.262 -1.652,-5.406 -0.492,-2.144 -0.907,-5.46 -0.925,-10.812 l 3.466,-1.141 c 1.904,-0.625 4.817,-2 6.469,-3.057 1.652,-1.052 3.886,-2.974 4.962,-4.265 1.081,-1.292 2.703,-3.832 3.604,-5.652 0.907,-1.82 1.79,-3.436 1.97,-3.604 0.174,-0.169 0.33,-2.193 0.336,-4.505 0.012,-3.25 0.397,-5.094 1.694,-8.109 0.919,-2.145 2.247,-5.388 2.937,-7.208 1.118,-2.902 1.274,-4.601 1.292,-14.014 0.018,-8.788 0.186,-10.836 0.925,-11.412 0.6,-0.469 0.853,-1.556 0.751,-3.256 -0.145,-2.463 -0.271,-2.613 -3.604,-4.271 -1.898,-0.943 -4.229,-2.637 -5.178,-3.754 -0.949,-1.117 -2.132,-2.847 -2.637,-3.838 -0.499,-0.991 -1.045,-3.286 -1.207,-5.106 -0.199,-2.168 0.03,-4.337 0.672,-6.307 0.649,-2.012 1.923,-3.94 3.833,-5.838 1.579,-1.556 3.946,-3.244 5.267,-3.748 1.604,-0.607 3.899,-0.847 6.908,-0.721 z m 225.85,0.186 c 1.159,0.156 3.153,0.607 4.439,0.997 1.291,0.397 3.423,1.664 4.739,2.817 1.321,1.153 2.967,3.184 3.658,4.505 0.961,1.838 1.255,3.466 1.231,6.908 -0.018,3.382 -0.336,5.105 -1.285,6.907 -0.697,1.322 -2.168,3.322 -3.268,4.439 -1.105,1.118 -3.153,2.541 -4.559,3.154 -1.405,0.613 -3.159,1.117 -3.904,1.123 -1.255,0.006 -1.34,0.234 -1.147,3.154 0.108,1.73 0.558,3.958 1.003,4.949 0.438,0.991 0.889,2.199 0.997,2.691 0.108,0.487 0.535,1.231 0.949,1.652 0.414,0.42 0.751,1.171 0.751,1.664 0,0.492 -0.024,1.105 -0.054,1.351 -0.024,0.246 0.204,0.583 0.516,0.751 0.307,0.168 1.142,1.988 1.85,4.055 0.709,2.066 1.556,5.442 1.88,7.508 0.355,2.246 0.385,5.081 0.079,7.058 -0.283,1.82 -0.871,3.982 -1.31,4.805 -0.438,0.829 -0.895,2.042 -1.009,2.703 -0.114,0.661 -0.529,1.399 -0.931,1.64 -0.397,0.246 -0.517,0.45 -0.27,0.45 0.246,0.006 0.072,0.757 -0.385,1.664 -0.462,0.907 -1.61,2.391 -4.271,4.95 l 3.178,4.054 c 1.742,2.235 3.159,4.397 3.153,4.811 -0.012,0.415 0.247,0.751 0.577,0.751 0.33,0 1.946,2.769 3.592,6.157 1.646,3.388 2.997,6.427 2.997,6.757 0.006,0.331 0.415,1.208 1.82,3.304 l 2.553,-1.147 c 1.406,-0.637 4.043,-1.346 5.857,-1.586 2.234,-0.288 3.448,-0.21 3.754,0.252 0.264,0.403 -0.733,1.965 -2.457,3.833 -2.036,2.21 -4.415,3.904 -7.959,5.664 -2.781,1.381 -6.066,2.667 -7.304,2.853 -1.579,0.24 -2.252,0.12 -2.258,-0.408 0,-0.415 -0.271,-3.046 -0.595,-5.857 -0.33,-2.811 -1.261,-6.865 -2.078,-9.01 -0.817,-2.144 -2.529,-5.526 -3.796,-7.508 -1.274,-1.982 -3.574,-5.022 -5.124,-6.758 -1.55,-1.736 -2.883,-3.021 -2.967,-2.865 -0.084,0.156 -1.364,-0.937 -2.853,-2.432 -2.529,-2.541 -2.703,-2.92 -2.661,-5.839 0.018,-1.724 0.552,-4.613 1.183,-6.433 0.625,-1.82 1.49,-3.64 1.91,-4.055 0.42,-0.414 1.105,-2.036 1.508,-3.604 0.408,-1.567 0.883,-2.985 1.051,-3.153 0.174,-0.168 0.408,-0.709 0.522,-1.201 0.121,-0.493 0.253,-3.244 0.301,-6.103 0.048,-2.865 0.3,-5.43 0.558,-5.706 0.259,-0.277 0.457,-0.841 0.451,-1.256 -0.012,-0.576 -0.577,-0.54 -2.421,0.15 -1.321,0.493 -2.607,0.847 -2.853,0.781 -0.246,-0.06 -1.802,0.511 -3.454,1.28 -1.652,0.769 -3.748,1.904 -4.655,2.522 -1.622,1.1 -1.652,1.256 -1.802,7.881 -0.144,6.511 -0.198,6.764 -1.502,6.908 -0.744,0.084 -1.357,0.486 -1.363,0.901 -0.006,0.54 0.631,0.637 2.252,0.348 2.211,-0.39 2.289,-0.342 3.304,2.103 0.571,1.375 0.895,2.636 0.721,2.805 -0.18,0.168 -0.583,-0.109 -0.895,-0.601 -0.385,-0.613 -0.517,0.252 -0.415,2.703 0.151,3.538 0.121,3.604 -1.501,3.754 -0.997,0.09 -1.658,-0.144 -1.658,-0.601 -0.006,-0.414 -0.144,-1.357 -0.3,-2.102 -0.229,-1.051 -0.024,-1.351 0.907,-1.351 0.66,0 1.201,-0.271 1.201,-0.601 0,-0.33 -0.27,-0.601 -0.601,-0.601 -0.33,0 -2.018,0.301 -3.754,0.673 -1.736,0.366 -3.292,0.769 -3.454,0.889 -0.162,0.114 0.108,0.637 0.601,1.153 0.799,0.835 0.799,0.937 0,0.907 -0.493,-0.018 -1.267,-0.234 -1.718,-0.48 -0.685,-0.367 -0.655,-0.937 0.168,-3.442 0.547,-1.652 1.406,-6.649 1.916,-11.112 0.505,-4.463 1.027,-9.191 1.166,-10.512 0.246,-2.313 0.48,-2.541 6.12,-6.097 3.226,-2.03 7.551,-4.529 9.617,-5.556 2.096,-1.039 4.283,-1.73 4.955,-1.562 0.799,0.199 1.202,0 1.202,-0.6 0,-0.499 -0.409,-0.901 -0.901,-0.901 -0.631,0 -0.901,-0.637 -0.901,-2.103 0,-1.958 -0.216,-2.198 -3.106,-3.453 -1.892,-0.823 -4.012,-2.403 -5.43,-4.055 -1.279,-1.484 -2.619,-3.652 -2.985,-4.805 -0.36,-1.153 -0.553,-4.145 -0.426,-6.65 0.204,-3.934 0.474,-4.859 2.036,-6.889 0.991,-1.292 2.342,-2.847 3.003,-3.466 0.661,-0.613 2.012,-1.538 3.004,-2.048 0.991,-0.511 3.015,-1.141 4.504,-1.4 1.49,-0.252 3.647,-0.336 4.806,-0.18 z m 219.543,-0.384 c 2.312,0 5.153,0.264 6.307,0.582 1.153,0.319 3.051,1.28 4.204,2.145 1.153,0.859 2.901,2.691 3.886,4.072 1.502,2.114 1.821,3.214 2.031,7.01 0.156,2.781 -0.048,5.424 -0.535,6.907 -0.438,1.322 -1.892,3.592 -3.237,5.046 -1.346,1.454 -3.797,3.28 -5.448,4.049 -1.652,0.774 -3.61,1.405 -4.355,1.411 -0.745,0.006 -1.352,0.276 -1.352,0.607 0,0.33 0.337,0.594 0.751,0.588 0.559,-0.006 0.637,0.697 0.3,2.703 -0.432,2.589 -0.348,2.818 1.814,4.968 1.244,1.237 4.079,5.292 6.307,9.01 2.223,3.718 4.043,7.028 4.043,7.358 0,0.33 0.27,0.601 0.601,0.601 0.33,0 1.141,-0.673 1.801,-1.502 0.661,-0.823 1.742,-1.502 2.403,-1.502 0.661,0 1.201,-0.204 1.207,-0.45 0,-0.246 -0.822,-1.123 -1.832,-1.952 -1.826,-1.496 -1.832,-1.514 -0.907,-3.754 0.511,-1.238 1.202,-2.385 1.532,-2.553 0.331,-0.168 0.601,0.108 0.601,0.6 0,0.493 0.204,0.901 0.45,0.895 0.247,0 0.925,-0.811 1.502,-1.802 0.577,-0.985 1.526,-1.808 2.102,-1.82 0.577,-0.018 1.388,0.391 1.802,0.901 0.607,0.745 0.577,1.214 -0.15,2.427 -0.739,1.231 -1.117,1.394 -2.102,0.901 -0.883,-0.438 -1.196,-0.402 -1.184,0.15 0.013,0.415 1.298,1.616 2.854,2.679 1.561,1.057 2.973,1.796 3.135,1.646 0.162,-0.156 -0.306,-0.823 -1.051,-1.478 -0.745,-0.654 -1.352,-1.465 -1.352,-1.796 0,-0.33 0.271,-0.732 0.601,-0.901 0.33,-0.168 1.412,0.919 2.403,2.403 0.991,1.484 1.736,2.805 1.652,2.931 -0.084,0.126 -1.772,1.039 -3.755,2.031 -2.618,1.309 -4.505,2.883 -6.907,5.772 -1.814,2.18 -3.64,3.97 -4.055,3.976 -0.414,0 -0.817,-0.264 -0.901,-0.594 -0.084,-0.337 -2.991,-3.454 -6.457,-6.926 -3.466,-3.478 -6.373,-6.319 -6.457,-6.307 -0.084,0.012 -0.156,0.222 -0.162,0.469 -0.006,0.246 0.811,1.393 1.82,2.552 1.015,1.16 2.913,3.25 4.223,4.655 2.264,2.433 2.366,2.703 2.102,5.707 -0.156,1.736 -0.403,3.694 -0.559,4.355 -0.15,0.66 -0.294,1.267 -0.318,1.351 -0.03,0.084 -0.048,0.282 -0.048,0.451 0,0.168 -0.451,1.447 -1.003,2.853 -0.547,1.405 -1.964,4.012 -3.154,5.79 -1.321,1.994 -3.015,3.67 -4.403,4.355 -1.237,0.613 -3.075,1.051 -4.084,0.967 -1.412,-0.114 -2.024,0.192 -2.685,1.352 -0.469,0.828 -2.078,4.138 -3.574,7.358 -1.496,3.219 -3.063,5.922 -3.49,6.006 -0.42,0.084 -2.853,1.37 -5.4,2.854 -3.34,1.946 -4.625,3.039 -4.625,3.904 0.006,0.661 0.679,2.619 1.496,4.355 0.817,1.736 1.76,3.021 2.09,2.853 0.33,-0.168 0.601,-0.03 0.601,0.3 0,0.33 0.27,0.469 0.6,0.3 0.331,-0.168 0.601,-0.03 0.601,0.301 0,0.33 0.336,0.6 0.751,0.594 0.414,0 1.021,0.775 1.351,1.73 0.547,1.586 0.469,1.766 -0.901,2.049 -0.823,0.168 -3.484,0.264 -5.904,0.216 -3.652,-0.072 -4.553,-0.288 -5.28,-1.286 -0.487,-0.66 -1.316,-2.685 -1.844,-4.505 -0.535,-1.82 -0.997,-5.436 -1.087,-12.782 l 4.324,-1.868 c 2.379,-1.027 5.557,-2.745 7.058,-3.82 1.502,-1.075 3.748,-3.508 4.986,-5.406 1.237,-1.898 2.523,-3.652 2.853,-3.892 0.33,-0.247 0.396,-0.451 0.15,-0.451 -0.246,-0.006 -0.138,-0.618 0.246,-1.363 0.379,-0.745 0.739,-3.244 0.793,-5.556 0.054,-2.313 0.433,-5.016 0.847,-6.007 0.415,-0.991 0.733,-1.868 0.709,-1.952 -0.024,-0.084 0.607,-1.436 1.4,-3.004 0.792,-1.567 1.904,-4.613 2.474,-6.757 0.835,-3.166 0.967,-5.502 0.703,-12.314 -0.258,-6.619 -0.144,-8.763 0.529,-10.061 0.474,-0.907 0.835,-2.799 0.805,-4.204 -0.049,-2.415 -0.181,-2.601 -2.469,-3.454 -1.334,-0.499 -3.376,-1.712 -4.541,-2.703 -1.166,-0.991 -2.751,-2.883 -3.526,-4.205 -0.775,-1.321 -1.586,-3.886 -1.796,-5.706 -0.228,-1.934 -0.09,-4.547 0.33,-6.307 0.445,-1.838 1.598,-4.055 2.98,-5.706 1.243,-1.49 3.453,-3.31 4.913,-4.055 2.012,-1.021 3.688,-1.351 6.866,-1.345 z m -160.978,8.631 c 3.826,0.15 5.351,0.499 7.508,1.73 1.49,0.841 3.412,2.439 4.277,3.544 0.871,1.105 2.024,3.087 2.57,4.409 0.547,1.321 0.986,3.622 0.986,5.105 -0.006,1.484 -0.469,4.055 -1.034,5.707 -0.666,1.97 -2.012,3.988 -3.91,5.856 -2.18,2.157 -3.766,3.112 -6.475,3.905 -3.292,0.967 -3.568,1.177 -3.328,2.552 0.144,0.829 1.58,4.337 3.196,7.809 1.616,3.472 3.418,8.067 4,10.211 0.589,2.145 1.099,5.935 1.129,8.41 0.048,3.393 -0.294,5.466 -1.381,8.409 -0.799,2.144 -1.856,4.583 -2.355,5.406 -0.492,0.829 -1.411,2.042 -2.03,2.703 -0.991,1.051 -1.033,1.387 -0.342,2.691 0.438,0.817 1.087,1.766 1.447,2.102 0.355,0.337 2.091,2.643 3.851,5.118 1.898,2.673 3.279,5.298 3.399,6.457 0.114,1.075 -0.066,1.952 -0.396,1.952 -0.331,0 -0.601,0.943 -0.601,2.102 0,1.16 -0.54,3.586 -1.201,5.406 -0.661,1.82 -0.997,3.448 -0.751,3.622 0.246,0.175 1.4,0.313 2.553,0.313 1.153,0 3.183,0.246 4.505,0.552 1.321,0.307 2.805,1.106 3.303,1.766 0.499,0.661 1.142,1.015 1.436,0.781 0.288,-0.234 0.427,-0.054 0.3,0.397 -0.132,0.456 -1.723,1.213 -3.538,1.688 -1.814,0.474 -5.327,0.901 -7.808,0.949 -2.475,0.042 -5.178,0 -6.007,-0.103 -0.823,-0.102 -2.246,-0.288 -3.153,-0.42 -1.328,-0.186 -1.61,-0.499 -1.43,-1.586 0.126,-0.745 0.907,-2.703 1.742,-4.355 0.835,-1.651 2.054,-4.763 3.88,-10.812 l -1.754,-3.604 c -0.967,-1.982 -3.297,-5.159 -5.177,-7.063 -1.88,-1.904 -3.893,-3.46 -4.469,-3.454 -0.577,0.006 -1.862,-0.805 -2.853,-1.796 -1.628,-1.628 -1.79,-2.132 -1.652,-5.166 0.084,-1.85 0.354,-3.472 0.6,-3.604 0.247,-0.132 0.313,-0.51 0.151,-0.841 -0.163,-0.33 0.474,-2.156 1.423,-4.054 0.949,-1.898 2.181,-4.938 2.733,-6.758 0.559,-1.82 1.141,-4.655 1.304,-6.307 0.162,-1.652 0.354,-4.126 0.546,-7.989 l -2.703,0.265 c -1.489,0.144 -3.85,0.661 -5.256,1.141 -1.405,0.481 -3.7,1.4 -5.105,2.042 -1.406,0.643 -2.865,1.526 -3.238,1.952 -0.378,0.433 -1.345,3.22 -2.138,6.193 -1.238,4.595 -1.652,5.43 -2.769,5.556 -0.721,0.085 -1.177,0.421 -1.015,0.751 0.162,0.331 1.111,0.601 2.102,0.601 0.991,0 1.904,0.204 2.03,0.45 0.132,0.247 0.427,1.67 0.667,3.154 0.36,2.258 0.294,2.577 -0.384,1.94 -0.445,-0.414 -1.016,-0.757 -1.262,-0.751 -0.246,0.006 -0.456,0.757 -0.456,1.664 -0.006,0.907 -0.211,2.277 -0.451,3.045 -0.306,0.95 -0.823,1.328 -1.646,1.202 -0.817,-0.132 -1.249,-0.721 -1.351,-1.844 -0.084,-0.907 -0.421,-1.652 -0.751,-1.652 -0.33,0 -0.601,0.408 -0.601,0.901 0,0.492 -0.27,0.901 -0.6,0.901 -0.331,0 -0.739,-0.27 -0.901,-0.601 -0.162,-0.33 -0.775,-0.594 -1.352,-0.588 -0.576,0.006 -1.543,-0.337 -2.144,-0.751 -1.027,-0.721 -0.937,-1.075 1.61,-6.169 1.489,-2.973 3.303,-7.166 4.036,-9.31 0.739,-2.145 1.838,-5.052 2.445,-6.457 0.865,-1.989 2.006,-3.124 5.165,-5.154 2.229,-1.436 4.932,-3.058 6.007,-3.604 1.075,-0.553 1.946,-0.799 1.934,-0.553 -0.012,0.246 0.463,0 1.051,-0.552 0.589,-0.547 2.739,-1.358 4.788,-1.802 3.676,-0.793 3.712,-0.817 3.375,-2.601 -0.18,-0.991 -0.774,-2.145 -1.309,-2.565 -0.541,-0.415 -1.315,-0.757 -1.73,-0.751 -0.414,0.006 -0.751,-0.258 -0.751,-0.589 0,-0.33 -0.27,-0.468 -0.6,-0.3 -0.331,0.168 -0.601,0.03 -0.601,-0.3 0,-0.331 -0.336,-0.595 -0.751,-0.589 -0.414,0 -1.736,-1.009 -2.937,-2.252 -1.201,-1.25 -2.619,-3.142 -3.154,-4.217 -0.612,-1.231 -0.967,-3.502 -0.967,-6.157 0,-3.129 0.349,-4.925 1.352,-7.01 0.745,-1.549 2.45,-3.778 3.796,-4.955 1.345,-1.183 3.376,-2.481 4.505,-2.877 1.177,-0.415 4.127,-0.649 6.866,-0.547 z m 91.847,27.45 c 0.294,-0.024 0.649,0.697 0.787,1.604 0.132,0.907 0.174,2.871 0.096,4.355 -0.126,2.301 -0.534,3.081 -2.739,5.256 -1.676,1.652 -2.493,2.925 -2.312,3.604 0.156,0.576 0.576,2.943 0.943,5.256 0.636,4.048 0.594,4.336 -1.034,7.706 -1.465,3.034 -1.892,3.478 -3.189,3.304 -0.871,-0.114 -1.562,-0.637 -1.652,-1.25 -0.114,-0.756 0.204,-1.009 1.129,-0.901 0.709,0.085 1.382,-0.186 1.502,-0.6 0.12,-0.415 -0.186,-0.751 -0.685,-0.751 -0.57,0 -0.919,-0.607 -0.949,-1.652 -0.024,-0.907 -0.36,-4.439 -0.751,-7.845 -0.444,-3.94 -0.498,-6.559 -0.138,-7.208 0.313,-0.558 1.496,-2.234 2.631,-3.718 1.129,-1.483 2.901,-3.694 3.934,-4.907 1.034,-1.207 2.127,-2.222 2.427,-2.253 z m -383.92,1.784 c 0.246,-0.018 0.45,1.724 0.45,3.875 0,3.201 -0.162,3.85 -0.901,3.604 -0.498,-0.168 -0.967,-0.018 -1.051,0.33 -0.084,0.354 -1.772,1.37 -3.754,2.271 -1.982,0.895 -4.211,1.964 -4.956,2.366 -1.279,0.703 -1.351,1.099 -1.351,14.554 h -1.502 c -0.823,0 -1.64,0.409 -1.802,0.901 -0.174,0.517 -0.877,0.835 -1.646,0.751 -0.744,-0.084 -1.417,-0.619 -1.501,-1.201 -0.114,-0.757 0.204,-1.009 1.129,-0.901 0.709,0.084 1.381,-0.186 1.502,-0.601 0.132,-0.456 -0.367,-0.751 -1.286,-0.751 -1.381,0 -1.477,-0.174 -1.225,-2.252 0.156,-1.238 0.444,-4.013 0.649,-6.157 0.204,-2.144 0.552,-4.697 0.774,-5.664 0.295,-1.28 1.544,-2.559 4.607,-4.727 2.313,-1.634 5.827,-3.737 7.809,-4.674 1.982,-0.937 3.808,-1.712 4.055,-1.724 z m 446.221,0.571 c 0.967,0 1.093,0.439 0.967,3.394 -0.096,2.276 -0.438,3.556 -1.045,3.886 -0.499,0.276 -3.063,1.538 -10.512,5.106 l -0.3,14.043 h -1.502 c -0.823,0 -1.64,0.409 -1.802,0.901 -0.168,0.505 -0.871,0.835 -1.603,0.751 -0.721,-0.084 -1.394,-0.486 -1.502,-0.901 -0.12,-0.45 0.396,-0.751 1.303,-0.751 0.937,0 1.502,-0.342 1.502,-0.901 0,-0.492 -0.553,-0.967 -1.225,-1.051 -0.673,-0.084 -1.232,-0.42 -1.244,-0.751 -0.012,-0.33 0.144,-3.171 0.349,-6.307 0.21,-3.135 0.498,-6.313 0.648,-7.057 0.163,-0.805 1.79,-2.427 4.025,-4.007 2.066,-1.459 5.346,-3.484 7.292,-4.505 1.946,-1.015 4.036,-1.85 4.649,-1.85 z m -189.287,1.213 c 0.162,0 0.901,0.871 1.64,1.947 0.738,1.069 1.345,2.216 1.345,2.546 0,0.331 -0.877,1.484 -1.946,2.565 -1.063,1.081 -2.145,1.958 -2.391,1.952 -0.246,-0.006 -0.991,-0.955 -1.652,-2.114 -0.66,-1.159 -1.255,-2.487 -1.321,-2.961 -0.066,-0.469 0.811,-1.55 1.952,-2.397 1.141,-0.847 2.211,-1.538 2.373,-1.538 z m -196.267,3.592 c 0.534,0 0.696,0.992 0.384,6.908 l -6.055,2.102 c -3.333,1.154 -6.421,2.505 -6.859,3.004 -0.445,0.492 -0.961,2.522 -1.147,4.505 -0.187,1.982 -0.463,4.619 -0.613,5.856 -0.27,2.229 -0.3,2.247 -2.379,1.802 -1.7,-0.366 -2.24,-0.234 -2.853,0.673 -0.625,0.931 -0.985,1.009 -2.102,0.45 -0.745,-0.366 -1.352,-1.081 -1.352,-1.573 0,-0.673 0.421,-0.805 1.652,-0.535 1.418,0.312 1.598,0.204 1.274,-0.751 -0.205,-0.612 0.336,-4.186 2.781,-14.758 l 5.706,-3.045 c 4.144,-2.211 6.445,-3.076 8.409,-3.154 1.676,-0.066 2.643,-0.366 2.553,-0.793 -0.084,-0.378 0.186,-0.691 0.601,-0.691 z m 178.097,1.214 c 0.246,0 1.333,0.883 2.414,1.952 1.081,1.063 1.958,2.415 1.952,2.991 -0.006,0.577 0.397,1.051 0.889,1.051 0.493,0 1.58,0.811 2.403,1.802 0.829,0.991 1.976,1.802 2.553,1.802 0.577,0.006 1.387,-0.534 1.802,-1.201 0.619,-0.985 1.153,-1.135 3.003,-0.823 1.238,0.21 2.301,0.415 2.355,0.451 0.054,0.042 0.258,0.817 0.45,1.724 0.235,1.111 0.102,1.645 -0.402,1.627 -0.415,-0.012 -1.069,-0.486 -1.454,-1.051 -0.384,-0.564 -0.859,-0.823 -1.051,-0.576 -0.192,0.246 -0.036,0.925 0.342,1.501 0.583,0.883 0.319,1.406 -1.651,3.286 -1.286,1.231 -2.481,2.246 -2.643,2.258 -0.162,0.018 -1.79,-0.859 -3.604,-1.94 -1.814,-1.081 -3.31,-2.234 -3.316,-2.559 0,-0.324 -0.168,-0.865 -0.366,-1.195 -0.199,-0.33 -0.973,-2.493 -1.718,-4.805 -0.745,-2.313 -1.598,-4.475 -1.892,-4.806 -0.295,-0.33 -0.535,-0.805 -0.529,-1.051 0.006,-0.246 0.216,-0.444 0.463,-0.438 z m 12.884,0.588 c 0.414,0 1.303,1.22 1.97,2.709 0.667,1.484 1.075,2.836 0.913,2.992 -0.162,0.156 -1.243,-0.643 -2.403,-1.784 -1.423,-1.4 -1.964,-2.373 -1.663,-2.998 0.234,-0.504 0.768,-0.919 1.183,-0.919 z m 66.205,0.006 c 0.354,0 1.249,0.877 1.988,1.953 0.739,1.069 1.346,2.282 1.352,2.697 0.006,0.414 -0.391,0.883 -0.889,1.051 -0.499,0.168 -0.979,-0.036 -1.075,-0.451 -0.133,-0.546 -0.421,-0.486 -1.052,0.204 -0.804,0.871 -0.961,0.871 -1.844,0 -0.534,-0.522 -1.111,-1.363 -1.279,-1.856 -0.168,-0.492 0.246,-1.507 0.925,-2.252 0.673,-0.745 1.514,-1.352 1.874,-1.346 z m -56.853,1.622 c 0.415,0.589 0.757,1.28 0.751,1.526 -0.006,0.246 -0.889,1.237 -1.964,2.204 -1.52,1.364 -2.126,1.592 -2.727,1.051 -0.433,-0.39 -0.823,-0.961 -0.877,-1.273 -0.054,-0.318 0.835,-1.478 1.976,-2.577 1.934,-1.868 2.132,-1.934 2.841,-0.931 z m 36.629,1.376 c 0.246,0 3.219,2.432 12.764,10.812 l 1.483,-1.352 c 1.226,-1.111 1.646,-1.219 2.403,-0.6 0.505,0.414 1.322,0.618 1.82,0.45 0.535,-0.18 1.165,0.246 1.556,1.051 0.354,0.745 0.486,1.76 0.288,2.253 -0.294,0.732 -0.643,0.618 -1.868,-0.601 -1.261,-1.255 -1.508,-1.327 -1.496,-0.451 0.012,0.577 0.289,1.184 0.619,1.352 0.33,0.168 0.601,0.505 0.601,0.751 0,0.246 -1.153,1.195 -5.106,3.754 l -4.367,-1.952 c -4.336,-1.934 -4.379,-1.976 -5.37,-5.256 -0.552,-1.82 -1.627,-4.721 -2.39,-6.457 -0.763,-1.736 -1.388,-3.286 -1.388,-3.454 0,-0.168 0.204,-0.3 0.451,-0.3 z m -35.692,2.426 c 0.271,-0.012 0.541,0.673 0.601,1.52 0.072,1.141 -0.336,1.778 -1.55,2.403 -0.907,0.474 -1.79,0.859 -1.952,0.859 -0.162,0 -0.444,-0.475 -0.619,-1.051 -0.204,-0.679 0.271,-1.52 1.352,-2.379 0.919,-0.733 1.892,-1.34 2.168,-1.352 z m 50.961,-0.024 c 0.408,0 1.225,1.148 1.82,2.553 0.594,1.406 0.937,2.685 0.762,2.853 -0.174,0.169 -1.153,-0.51 -2.174,-1.501 -1.231,-1.196 -1.736,-2.157 -1.502,-2.853 0.199,-0.577 0.691,-1.052 1.094,-1.052 z m -114.229,0.745 c 2,0.15 2.097,0.258 1.982,2.259 -0.072,1.159 -0.27,2.438 -0.45,2.853 -0.204,0.456 -1.508,0.751 -3.334,0.751 -1.652,0 -3.009,-0.205 -3.015,-0.451 -0.006,-0.246 0.312,-1.393 0.703,-2.553 0.39,-1.159 1.003,-2.306 1.357,-2.558 0.361,-0.253 1.598,-0.385 2.757,-0.301 z m 122.836,0.09 c 0.33,0.084 0.667,0.883 0.751,1.766 0.114,1.202 -0.318,1.946 -1.718,2.956 -1.598,1.159 -1.94,1.225 -2.391,0.45 -0.288,-0.493 -0.528,-1.171 -0.534,-1.502 -0.006,-0.33 0.733,-1.327 1.64,-2.216 0.907,-0.889 1.922,-1.544 2.252,-1.454 z m 1.304,4.571 c 0.486,0 0.798,0.703 0.798,1.802 0,1.49 -0.288,1.856 -1.651,2.127 -0.907,0.174 -1.923,0.042 -2.253,-0.295 -0.402,-0.414 -0.12,-1.111 0.853,-2.126 0.799,-0.829 1.814,-1.508 2.253,-1.508 z M 55.063,252.757 H 58 c 2.409,0 2.931,0.192 2.907,1.051 -0.012,0.577 0.565,1.46 1.286,1.952 1.117,0.769 1.213,1.106 0.63,2.253 -0.378,0.745 -0.955,1.351 -1.285,1.351 -0.33,0 -0.601,-0.672 -0.601,-1.501 0,-0.823 -0.27,-1.502 -0.6,-1.502 -0.331,0 -0.805,0.565 -1.052,1.255 -0.384,1.07 -0.762,1.196 -2.552,0.847 -1.16,-0.222 -2.175,-0.45 -2.259,-0.504 -0.084,-0.054 0.018,-1.244 0.222,-2.649 z m 12.734,1.784 c 1.345,-0.006 2.631,0.162 2.847,0.378 0.216,0.223 0.144,0.901 -0.15,1.52 -0.415,0.853 -1.207,1.123 -3.25,1.123 -2.186,0 -2.721,-0.21 -2.805,-1.099 -0.054,-0.607 0.126,-1.285 0.403,-1.502 0.276,-0.222 1.603,-0.408 2.955,-0.42 z m -1.454,4.223 c 1.526,0 2.397,0.276 2.391,0.75 0,0.415 -0.204,1.088 -0.451,1.502 -0.3,0.511 -1.057,0.607 -2.402,0.3 -1.31,-0.3 -1.964,-0.798 -1.952,-1.501 0.006,-0.823 0.534,-1.051 2.414,-1.051 z m -205.577,4.192 c 2.397,0.012 3.153,0.229 3.153,0.913 0,0.715 -0.522,0.829 -2.552,0.541 -1.406,-0.198 -2.823,-0.613 -3.154,-0.913 -0.372,-0.336 0.613,-0.547 2.553,-0.541 z m 447.044,0.012 c 2.457,0 3.004,0.193 3.016,1.051 0.006,0.895 -0.325,0.986 -2.253,0.607 -1.243,-0.246 -2.601,-0.444 -3.015,-0.45 -0.415,-0.006 -0.751,-0.277 -0.751,-0.607 0,-0.33 1.351,-0.601 3.003,-0.601 z m -455.976,0.613 c 0.204,0 0.685,0.234 1.069,0.511 0.391,0.288 0.589,1.447 0.451,2.691 -0.138,1.207 -0.451,2.198 -0.697,2.21 -0.246,0.012 -0.931,-0.463 -1.52,-1.051 -0.895,-0.895 -0.955,-1.334 -0.372,-2.721 0.384,-0.907 0.865,-1.646 1.069,-1.64 z m 130.615,-0.012 c 0.372,0 1.405,2.096 2.3,4.655 0.895,2.559 1.898,6.007 2.223,7.659 0.33,1.651 0.486,3.135 0.354,3.303 -0.132,0.168 -0.589,0 -1.009,-0.366 -0.421,-0.367 -1.436,-0.823 -2.265,-1.015 -0.991,-0.229 -1.958,-1.232 -2.841,-2.938 -0.733,-1.423 -1.339,-2.997 -1.345,-3.489 -0.006,-0.493 0.426,-2.457 0.955,-4.355 0.528,-1.898 1.261,-3.454 1.628,-3.454 z m 316.88,0.144 c 0.655,0.144 0.853,0.841 0.727,2.577 -0.096,1.309 -0.289,2.517 -0.433,2.685 -0.138,0.168 -0.799,-0.24 -1.465,-0.901 -1.064,-1.051 -1.124,-1.412 -0.475,-2.877 0.427,-0.967 1.123,-1.592 1.646,-1.484 z m -443.518,1.057 c 1.399,0 1.501,0.199 1.501,3.004 0,1.651 -0.27,3.003 -0.6,3.003 -0.331,0 -1.01,-0.132 -1.502,-0.3 -0.625,-0.211 -0.901,-1.136 -0.901,-3.004 0,-2.48 0.12,-2.703 1.502,-2.703 z m 51.909,0.156 c 0.691,0.151 0.883,0.811 0.745,2.577 -0.102,1.304 -0.313,2.505 -0.463,2.673 -0.144,0.168 -0.811,-0.24 -1.477,-0.901 -1.064,-1.051 -1.124,-1.411 -0.475,-2.877 0.439,-0.997 1.117,-1.592 1.67,-1.472 z m 7.742,0.199 c 1.22,0.222 2.691,0.636 3.268,0.925 0.577,0.288 1.051,0.793 1.051,1.123 0,0.33 -0.27,0.733 -0.6,0.901 -0.331,0.168 -1.076,0.03 -1.652,-0.3 -0.577,-0.331 -1.796,-0.871 -2.703,-1.202 -0.907,-0.33 -1.64,-0.883 -1.616,-1.231 0.018,-0.39 0.853,-0.475 2.252,-0.216 z m 288.8,1.447 c 0.426,1.16 1.111,3.322 1.525,4.806 0.421,1.483 0.769,2.973 0.787,3.303 0.012,0.331 0.193,0.733 0.391,0.901 0.204,0.168 0.691,2.733 1.075,5.707 0.39,2.973 0.865,6.487 1.051,7.808 0.192,1.328 -0.114,4.685 -0.679,7.508 -0.558,2.812 -1.189,5.376 -1.399,5.707 -0.21,0.33 -0.397,0.871 -0.415,1.201 -0.018,0.331 -0.258,1.544 -0.534,2.703 -0.277,1.159 -0.745,2.439 -1.039,2.853 -0.367,0.517 -0.108,0.871 0.823,1.136 0.744,0.21 2.564,0.444 4.054,0.522 1.49,0.072 3.31,0.445 4.055,0.817 0.744,0.372 1.219,0.883 1.057,1.129 -0.162,0.247 -0.03,0.787 0.3,1.202 0.39,0.498 0.39,0.853 -0.006,1.051 -0.33,0.168 -0.601,0.03 -0.601,-0.301 0,-0.33 -0.402,-0.192 -0.901,0.301 -0.498,0.492 -2.456,1.069 -4.354,1.279 -1.899,0.21 -5.671,0.276 -8.374,0.15 -2.709,-0.126 -5.213,-0.498 -5.568,-0.829 -0.45,-0.42 -0.174,-1.663 0.943,-4.204 0.871,-1.982 2.229,-5.496 3.016,-7.809 0.792,-2.312 1.994,-6.775 2.678,-9.911 0.685,-3.135 1.358,-8.205 1.496,-11.262 0.204,-4.559 0.078,-5.743 -0.733,-6.608 -0.787,-0.847 -0.919,-1.88 -0.66,-5.309 0.18,-2.337 0.528,-4.638 0.78,-5.106 0.325,-0.607 0.673,-0.252 1.232,1.255 z m 41.133,-1.802 c 0.937,0 1.148,0.439 1.148,2.403 0,1.321 -0.205,2.409 -0.451,2.415 -0.246,0.006 -0.943,-0.337 -1.538,-0.751 -0.811,-0.565 -0.991,-1.19 -0.702,-2.415 0.264,-1.087 0.786,-1.652 1.543,-1.652 z m 57.682,0 c 0.901,0 1.051,0.481 0.949,3.004 -0.066,1.657 -0.324,3.009 -0.571,3.003 -0.246,0 -0.852,-0.132 -1.351,-0.3 -0.565,-0.187 -0.937,-1.16 -1.003,-2.601 -0.054,-1.268 0.126,-2.487 0.402,-2.703 0.277,-0.222 0.985,-0.403 1.574,-0.403 z m -54.45,0.601 c 0.667,0 0.853,0.667 0.751,2.703 -0.084,1.694 -0.415,2.709 -0.883,2.703 -0.487,0 -0.751,-0.943 -0.751,-2.703 0,-1.976 0.234,-2.703 0.883,-2.703 z m 59.622,0.847 c 2.222,0.745 2.354,0.919 2.45,3.424 0.061,1.447 -0.036,2.769 -0.216,2.937 -0.18,0.168 -1.327,0.03 -2.547,-0.3 -2.048,-0.553 -2.24,-0.793 -2.408,-3.004 -0.096,-1.321 -0.054,-2.727 0.096,-3.123 0.21,-0.559 0.811,-0.541 2.625,0.066 z m -448.234,-0.246 c 0.829,0 2.181,0.27 3.003,0.6 1.25,0.499 1.502,1.003 1.502,3.004 0,1.321 -0.27,2.534 -0.601,2.703 -0.33,0.168 -1.681,0.168 -5.406,-0.301 v -3.003 c 0,-2.805 0.103,-3.003 1.502,-3.003 z m 51.387,0.6 c 0.643,0 1.291,0.205 1.43,0.451 0.144,0.246 0.012,1.598 -0.301,3.003 -0.306,1.406 -0.895,2.547 -1.309,2.541 -0.415,0 -1.111,-0.204 -1.55,-0.451 -0.565,-0.306 -0.679,-1.057 -0.384,-2.54 0.234,-1.16 0.54,-2.307 0.684,-2.553 0.139,-0.246 0.787,-0.451 1.43,-0.451 z m 2.673,1.202 c 0.168,0 1.52,0.54 3.003,1.201 1.862,0.829 2.607,1.484 2.403,2.102 -0.168,0.493 -0.306,1.376 -0.312,1.952 0,0.577 -0.205,1.406 -0.451,1.844 -0.36,0.649 -0.889,0.649 -3.045,0 -2.469,-0.75 -2.589,-0.889 -2.247,-2.594 0.198,-0.991 0.361,-2.409 0.355,-3.154 0,-0.745 0.126,-1.351 0.294,-1.351 z m 355.707,0.6 c 0.433,0 3.352,2.499 6.481,5.556 3.13,3.058 5.701,5.893 5.707,6.307 0.006,0.415 -0.865,1.286 -1.94,1.941 -1.076,0.654 -2.974,1.399 -4.217,1.651 -1.243,0.253 -2.247,0.733 -2.229,1.064 0.018,0.33 0.95,1.82 2.073,3.303 1.117,1.484 2.456,3.718 2.979,4.956 0.517,1.237 0.943,2.522 0.943,2.853 0,0.33 -0.402,0.6 -0.901,0.6 -0.498,0 -1.982,-0.54 -3.304,-1.201 -1.321,-0.661 -3.519,-2.216 -4.883,-3.454 -1.369,-1.237 -3.31,-3.471 -4.319,-4.955 -1.009,-1.484 -1.85,-3.039 -1.874,-3.454 -0.018,-0.414 -0.24,-0.751 -0.486,-0.751 -0.247,0 -0.457,-0.204 -0.463,-0.45 -0.006,-0.247 1.55,-0.907 3.454,-1.466 1.904,-0.565 4.006,-1.417 5.868,-2.781 l -1.201,-1.279 c -0.661,-0.703 -2.487,-1.67 -6.908,-3.034 l 2.217,-2.703 c 1.225,-1.483 2.577,-2.703 3.003,-2.703 z m -235.274,5.508 c 0.162,-0.036 0.841,0.331 1.502,0.817 1.195,0.877 1.195,0.895 -0.228,3.436 -0.793,1.406 -1.736,2.823 -2.103,3.154 -0.372,0.33 -0.673,0.871 -0.673,1.201 0,0.33 -1.555,3.171 -3.459,6.307 -1.898,3.135 -4.674,7.394 -8.854,13.214 l 1.952,2.127 c 1.075,1.165 2.763,2.276 3.754,2.469 0.991,0.192 2.547,0.792 3.46,1.333 0.913,0.535 1.658,1.315 1.652,1.73 -0.006,0.468 -0.691,0.697 -1.802,0.601 -0.985,-0.084 -1.796,0.054 -1.802,0.3 -0.006,0.246 -2.301,0.45 -5.112,0.45 -4.307,0 -5.292,-0.186 -6.307,-1.201 -0.661,-0.661 -2.012,-2.889 -3.003,-4.955 -0.991,-2.067 -1.796,-4.025 -1.79,-4.355 0,-0.331 2.054,-2.895 4.553,-5.707 2.505,-2.811 6.547,-7.94 8.986,-11.412 2.439,-3.472 4.859,-6.896 5.376,-7.617 0.51,-0.72 1.531,-1.423 2.264,-1.567 0.733,-0.144 1.472,-0.289 1.634,-0.325 z m -153.169,5.298 c 0.168,-0.024 1.694,1.922 3.393,4.337 1.706,2.409 4.025,6.409 5.154,8.884 1.135,2.481 2.445,5.418 2.913,6.529 0.763,1.814 1.04,1.988 2.655,1.658 0.991,-0.198 3.286,-0.775 5.106,-1.274 1.82,-0.504 4.181,-0.913 5.256,-0.906 1.165,0 1.946,0.3 1.94,0.75 -0.006,0.415 -1.358,2.037 -3.003,3.604 -1.646,1.568 -4.547,3.634 -6.446,4.589 -1.898,0.955 -4.673,2.049 -6.156,2.427 -1.484,0.384 -2.883,1.273 -5.106,2.397 q -0.12,0.162 -0.372,-0.853 c -0.187,-0.745 0.14,-1.416 0.222,-0.895 0.571,0.006 0.649,-1.039 0.318,-4.355 -0.234,-2.397 -0.943,-5.844 -1.568,-7.664 -0.624,-1.821 -1.874,-4.788 -2.781,-6.608 -0.913,-1.82 -2.775,-4.619 -4.144,-6.235 -2.006,-2.36 -2.313,-3.015 -1.586,-3.393 0.499,-0.253 1.58,-1.022 2.403,-1.706 0.829,-0.679 1.634,-1.262 1.802,-1.286 z m 102.713,0.006 c 0.331,0 1.46,0.715 2.505,1.58 1.454,1.213 1.844,1.952 1.652,3.153 -0.144,0.907 -0.691,1.628 -1.304,1.718 -0.654,0.096 -1.057,-0.24 -1.063,-0.895 -0.006,-0.889 -0.09,-0.913 -0.528,-0.15 -0.289,0.493 -0.829,0.697 -1.196,0.451 -0.366,-0.247 -0.666,-1.67 -0.666,-3.154 0,-1.483 0.27,-2.703 0.6,-2.703 z m 10.962,0.024 c 0.247,-0.012 1.244,1.262 2.217,2.829 0.973,1.568 2.318,4.073 2.991,5.557 0.673,1.483 1.232,3.039 1.238,3.453 0.006,0.415 -0.595,0.949 -1.34,1.19 -0.745,0.24 -1.622,0.468 -1.952,0.504 -0.33,0.042 -1.412,0.403 -2.403,0.805 -0.991,0.403 -2.745,0.811 -3.904,0.907 -1.159,0.096 -2.439,0.348 -2.853,0.565 -0.415,0.21 -0.751,0.654 -0.751,0.985 0,0.33 0.408,0.6 0.901,0.6 0.492,0 1.021,0.607 1.171,1.352 0.15,0.745 0.216,2.613 0.15,4.151 -0.066,1.537 -0.324,3.027 -0.576,3.303 -0.253,0.277 -1.28,-0.306 -2.289,-1.297 -1.003,-0.991 -2.462,-2.883 -3.237,-4.205 -0.781,-1.321 -1.508,-2.811 -1.622,-3.304 -0.114,-0.492 -0.373,-1.033 -0.577,-1.201 -0.204,-0.168 -0.925,-1.52 -1.598,-3.003 -0.672,-1.484 -1.435,-3.784 -1.693,-5.106 -0.289,-1.483 -0.253,-2.246 0.096,-1.988 0.312,0.228 1.646,0.589 2.967,0.799 1.321,0.216 4.229,0.775 6.457,1.237 2.229,0.469 4.325,0.721 4.655,0.553 0.349,-0.174 0.12,-0.985 -0.546,-1.952 -0.637,-0.907 -1.718,-2.259 -2.403,-3.004 -0.691,-0.744 -1.255,-1.483 -1.255,-1.651 0,-0.169 0.336,-0.217 0.75,-0.115 0.415,0.109 1.694,-0.288 2.854,-0.877 1.159,-0.582 2.306,-1.075 2.552,-1.087 z m 333.369,0.03 c 0.246,-0.03 1.37,1.232 2.493,2.799 1.123,1.568 3.093,4.884 4.385,7.359 1.285,2.48 3.075,6.192 5.586,12.013 l 3.454,-1.25 c 1.898,-0.684 5.009,-1.429 6.913,-1.651 2.583,-0.301 3.46,-0.211 3.454,0.348 -0.006,0.414 -1.291,2.06 -2.859,3.652 -1.568,1.598 -4.343,3.67 -6.157,4.607 -1.814,0.943 -4.997,2.132 -7.07,2.655 -2.072,0.523 -3.904,0.817 -4.072,0.649 -0.168,-0.168 -0.307,-1.382 -0.307,-2.703 -0.006,-1.322 -0.354,-4.025 -0.78,-6.007 -0.427,-1.982 -1.568,-5.364 -2.529,-7.508 -0.961,-2.145 -3.034,-5.592 -4.607,-7.659 -1.574,-2.066 -2.793,-3.868 -2.709,-4.012 0.084,-0.138 1.099,-0.925 2.252,-1.748 1.153,-0.823 2.307,-1.52 2.553,-1.544 z M 92.61,279.805 c 0.253,0.012 1.274,0.709 4.067,3.093 l -2.643,4.902 c -1.454,2.697 -2.943,5.274 -3.304,5.73 -0.366,0.451 -2.216,1.604 -4.114,2.553 -1.898,0.949 -3.995,1.724 -4.655,1.724 -0.661,0 -1.61,0.132 -2.103,0.3 -0.492,0.168 -0.901,0.709 -0.901,1.201 0,0.493 0.541,2.121 1.202,3.604 0.871,1.959 1.808,2.992 3.411,3.755 1.22,0.576 2.499,1.531 2.854,2.12 0.486,0.811 0.426,1.207 -0.259,1.64 -0.492,0.318 -2.925,0.582 -5.406,0.594 -2.727,0.012 -4.907,-0.282 -5.526,-0.738 -0.558,-0.421 -1.435,-2.589 -1.952,-4.818 -0.511,-2.228 -0.931,-6.078 -0.931,-8.559 0,-4.271 0.072,-4.505 1.351,-4.517 0.745,-0.006 2.385,-0.343 3.64,-0.751 1.941,-0.625 2.379,-0.601 2.848,0.162 0.306,0.493 0.558,0.697 0.558,0.451 0.006,-0.247 0.078,-0.727 0.162,-1.063 0.084,-0.337 1.568,-1.286 3.304,-2.103 2.036,-0.961 3.814,-2.39 5.016,-4.042 1.021,-1.406 2.102,-3.16 2.39,-3.905 0.289,-0.744 0.739,-1.345 0.991,-1.333 z m -148.051,2.403 c 0.246,-0.012 1.7,1.669 3.225,3.736 1.526,2.066 3.484,5.159 5.935,10.007 l -1.652,4.078 c -0.907,2.247 -1.646,4.421 -1.652,4.836 0,0.414 0.475,0.756 1.051,0.762 0.577,0 2.877,0.541 5.106,1.202 2.228,0.655 4.054,1.459 4.054,1.79 0,0.33 0.271,0.468 0.601,0.3 0.33,-0.168 0.733,-0.03 0.901,0.3 0.168,0.331 -0.919,0.871 -2.403,1.202 -1.483,0.33 -6.216,0.6 -10.511,0.6 -6.836,0 -7.875,-0.132 -8.337,-1.051 -0.385,-0.763 -0.012,-1.868 1.381,-4.054 1.045,-1.652 2.547,-4.223 4.763,-8.409 l -1.129,-3.004 c -0.619,-1.652 -2.024,-4.355 -5.118,-9.01 l 1.67,-1.634 c 0.913,-0.901 1.868,-1.645 2.115,-1.651 z m 209.151,3.574 c 0.018,-0.006 0.907,0.264 1.982,0.6 1.183,0.373 2.193,1.208 2.553,2.115 0.33,0.828 0.601,3.123 0.601,5.105 0,3.598 -0.006,3.604 -2.253,4.535 -1.526,0.625 -3.268,0.823 -5.406,0.601 -2.3,-0.24 -3.153,-0.126 -3.147,0.42 0.006,0.415 0.414,2.103 0.907,3.754 0.498,1.652 0.901,3.881 0.895,4.956 0,1.075 -0.211,1.958 -0.457,1.964 -0.246,0 -1.447,-1.009 -2.661,-2.252 -1.219,-1.25 -2.883,-3.616 -3.7,-5.268 -0.823,-1.652 -1.898,-4.355 -2.403,-6.007 -0.498,-1.652 -1.063,-3.88 -1.255,-4.955 -0.186,-1.075 -0.276,-1.958 -0.192,-1.965 0.084,-0.005 1.363,0.415 2.853,0.938 1.49,0.528 4.733,1.003 11.713,1.177 l -0.03,-2.853 c -0.018,-1.568 -0.018,-2.859 0,-2.865 z m 64.487,0.3 c 2.361,0.012 2.541,0.12 2.241,1.363 -0.229,0.949 -0.054,1.352 0.576,1.352 0.499,0 0.859,0.474 0.805,1.051 -0.048,0.577 0.222,1.796 0.601,2.703 0.384,0.907 0.697,1.922 0.697,2.252 0,0.361 -1.736,0.541 -4.301,0.451 -2.367,-0.084 -4.403,-0.42 -4.523,-0.751 -0.114,-0.33 -0.883,-0.534 -1.7,-0.45 -0.817,0.084 -1.496,0.216 -1.502,0.3 -0.012,0.084 0.667,1.976 1.502,4.205 0.829,2.228 1.514,4.733 1.514,5.556 0,0.829 -0.205,1.495 -0.451,1.483 -0.246,-0.012 -0.925,-0.414 -1.501,-0.901 -0.577,-0.486 -0.913,-1.153 -0.751,-1.483 0.162,-0.331 -0.102,-0.871 -0.601,-1.202 -0.739,-0.492 -0.841,-1.669 -0.583,-6.457 0.169,-3.219 0.511,-6.054 0.751,-6.295 0.234,-0.246 1.244,-0.192 2.235,0.108 0.991,0.307 2.012,0.373 2.27,0.145 0.258,-0.229 0.397,-1.094 0.307,-1.928 -0.145,-1.406 0.024,-1.514 2.414,-1.502 z m -237.599,9.941 c 0.247,-0.012 0.583,0.456 0.745,1.033 0.162,0.577 0.313,1.321 0.343,1.652 0.024,0.33 0.438,0.805 0.907,1.051 0.636,0.336 0.775,1.189 0.534,3.304 -0.306,2.709 -0.252,2.841 1.051,2.625 0.757,-0.121 2.319,0.222 3.478,0.762 1.16,0.547 2.511,0.991 3.004,0.991 0.492,0 1.579,0.511 3.904,2.265 l -3.604,0.715 c -2.06,0.414 -6.733,0.63 -10.914,0.51 -4.019,-0.114 -7.466,-0.414 -7.659,-0.66 -0.192,-0.247 0.943,-2.409 2.529,-4.806 1.58,-2.396 3.406,-5.496 4.055,-6.889 0.648,-1.4 1.381,-2.547 1.627,-2.553 z"
               fill-rule="evenodd"
               fill="#ebebeb"
               id="path123" />
          </g>
        </g>
      </g>
    </g>
  </g>
</svg>
