<?xml version="1.0" encoding="UTF-8" standalone="no"?>
<svg
   id="visual"
   viewBox="0 0 454 454"
   width="454"
   height="454"
   version="1.1"
   sodipodi:docname="wave_haikei.svg"
   inkscape:version="1.1.1 (3bf5ae0d25, 2021-09-20)"
   xmlns:inkscape="http://www.inkscape.org/namespaces/inkscape"
   xmlns:sodipodi="http://sodipodi.sourceforge.net/DTD/sodipodi-0.dtd"
   xmlns="http://www.w3.org/2000/svg"
   xmlns:svg="http://www.w3.org/2000/svg">
  <defs
     id="defs7" />
  <sodipodi:namedview
     id="namedview5"
     pagecolor="#ffffff"
     bordercolor="#666666"
     borderopacity="1.0"
     inkscape:pageshadow="2"
     inkscape:pageopacity="0.0"
     inkscape:pagecheckerboard="0"
     showgrid="false"
     inkscape:zoom="1.8303965"
     inkscape:cx="226.72684"
     inkscape:cy="226.72684"
     inkscape:window-width="1920"
     inkscape:window-height="1017"
     inkscape:window-x="1912"
     inkscape:window-y="-8"
     inkscape:window-maximized="1"
     inkscape:current-layer="visual" />
  <path
     d="M0 382L4 380.2C8 378.3 16 374.7 24 373C32 371.3 40 371.7 48 370.2C56 368.7 64 365.3 72 360.7C80 356 88 350 95.8 350.7C103.7 351.3 111.3 358.7 119.2 364.5C127 370.3 135 374.7 143 369.3C151 364 159 349 167 346.7C175 344.3 183 354.7 191 364.3C199 374 207 383 215 379.8C223 376.7 231 361.3 239 360C247 358.7 255 371.3 263 378C271 384.7 279 385.3 287 379.5C295 373.7 303 361.3 311 356.2C319 351 327 353 334.8 356.5C342.7 360 350.3 365 358.2 360.7C366 356.3 374 342.7 382 338.8C390 335 398 341 406 347.3C414 353.7 422 360.3 430 362.7C438 365 446 363 450 362L454 361L454 455L450 455C446 455 438 455 430 455C422 455 414 455 406 455C398 455 390 455 382 455C374 455 366 455 358.2 455C350.3 455 342.7 455 334.8 455C327 455 319 455 311 455C303 455 295 455 287 455C279 455 271 455 263 455C255 455 247 455 239 455C231 455 223 455 215 455C207 455 199 455 191 455C183 455 175 455 167 455C159 455 151 455 143 455C135 455 127 455 119.2 455C111.3 455 103.7 455 95.8 455C88 455 80 455 72 455C64 455 56 455 48 455C40 455 32 455 24 455C16 455 8 455 4 455L0 455Z"
     fill="#006699"
     stroke-linecap="round"
     stroke-linejoin="miter"
     id="path2"
     style="fill:#006699;fill-opacity:0.639485" />
</svg>
