# Blender 4.2.3 LTS
# www.blender.org
mtllib windmill.mtl
o 平面
v 0.000000 0.051320 -0.300000
v 1.414213 1.465533 0.000000
v -1.414214 1.465533 -0.300000
v 0.000000 2.879747 0.000000
vn 0.1049 0.1049 -0.9889
vt 0.000000 0.000000
vt 0.000000 1.000000
vt 1.000000 1.000000
vt 1.000000 0.000000
s 0
usemtl Yellow
f 1/1/1 3/2/1 4/3/1 2/4/1
o 平面.001
v 0.000000 0.051320 0.300000
v 1.414213 1.465533 0.000000
v -1.414214 1.465533 0.300000
v 0.000000 2.879747 0.000000
vn 0.1049 0.1049 0.9889
vt 0.000000 0.000000
vt 1.000000 0.000000
vt 1.000000 1.000000
vt 0.000000 1.000000
s 0
usemtl Yellow_Shadow
f 5/5/2 6/6/2 8/7/2 7/8/2
o 平面.009
v 0.000014 2.879700 0.000000
v -1.414200 4.293913 0.300000
v -1.414200 1.465486 -0.300000
v -2.828413 2.879700 0.000000
vn -0.0000 0.2075 -0.9782
vt 0.000000 0.000000
vt 0.000000 1.000000
vt 1.000000 1.000000
vt 1.000000 0.000000
s 0
usemtl Face_Yellow.001
f 9/9/3 11/10/3 12/11/3 10/12/3
o 平面.011
v 0.000014 2.879700 0.000000
v -1.414200 4.293913 -0.300000
v -1.414200 1.465486 0.300000
v -2.828413 2.879700 0.000000
vn -0.0000 0.2075 0.9782
vt 0.000000 0.000000
vt 1.000000 0.000000
vt 1.000000 1.000000
vt 0.000000 1.000000
s 0
usemtl Face_Yellow_Shadow.001
f 13/13/4 14/14/4 16/15/4 15/16/4
o 平面.002
v -1.465500 1.414214 0.000000
v -2.879713 0.000000 0.000000
v -0.051286 -0.000000 -0.300000
v -1.465500 -1.414214 -0.300000
vn -0.1049 0.1049 -0.9889
vt 0.000000 0.000000
vt 0.000000 1.000000
vt 1.000000 1.000000
vt 1.000000 0.000000
s 0
usemtl Red
f 17/17/5 19/18/5 20/19/5 18/20/5
o 平面.003
v -0.051380 -0.016290 0.300000
v -1.449210 1.414120 0.000000
v -1.481790 -1.414120 0.300000
v -2.879620 0.016290 0.000000
vn -0.1037 0.1061 0.9889
vt 0.000000 0.000000
vt 1.000000 0.000000
vt 1.000000 1.000000
vt 0.000000 1.000000
s 0
usemtl Red_Shadow
f 21/21/6 22/22/6 24/23/6 23/24/6
o 平面.008
v -2.879600 0.000014 0.000000
v -4.293813 -1.414200 -0.300000
v -1.465386 -1.414200 0.300000
v -2.879600 -2.828413 0.000000
vn -0.2075 -0.0000 0.9782
vt 0.000000 0.000000
vt 1.000000 0.000000
vt 1.000000 1.000000
vt 0.000000 1.000000
s 0
usemtl Face_Red_Shadow
f 25/25/7 26/26/7 28/27/7 27/28/7
o 平面.010
v -2.879600 0.000014 0.000000
v -4.293813 -1.414200 0.300000
v -1.465386 -1.414200 -0.300000
v -2.879600 -2.828413 0.000000
vn -0.2075 -0.0000 -0.9782
vt 0.000000 0.000000
vt 0.000000 1.000000
vt 1.000000 1.000000
vt 1.000000 0.000000
s 0
usemtl Face_Red
f 29/29/8 31/30/8 32/31/8 30/32/8
o 平面.004
v -1.414118 -1.481937 0.000000
v 0.016437 -2.879618 0.000000
v -0.016437 -0.051382 -0.300000
v 1.414118 -1.449063 -0.300000
vn -0.1037 -0.1061 -0.9889
vt 0.000000 0.000000
vt 0.000000 1.000000
vt 1.000000 1.000000
vt 1.000000 0.000000
s 0
usemtl Green
f 33/33/9 35/34/9 36/35/9 34/36/9
o 平面.005
v -0.000147 -0.051286 0.300000
v -1.414214 -1.465647 0.000000
v 1.414214 -1.465353 0.300000
v 0.000147 -2.879714 0.000000
vn -0.1049 -0.1049 0.9889
vt 0.000000 0.000000
vt 1.000000 0.000000
vt 1.000000 1.000000
vt 0.000000 1.000000
s 0
usemtl Green_Shadow
f 37/37/10 38/38/10 40/39/10 39/40/10
o 平面.012
v -0.000113 -2.879000 0.000000
v 1.414100 -4.293214 0.300000
v 1.414100 -1.464787 -0.300000
v 2.828313 -2.879001 0.000000
vn -0.0000 -0.2075 -0.9782
vt 0.000000 0.000000
vt 0.000000 1.000000
vt 1.000000 1.000000
vt 1.000000 0.000000
s 0
usemtl Face_Green
f 41/41/11 43/42/11 44/43/11 42/44/11
o 平面.013
v -0.000114 -2.879000 0.000000
v 1.414099 -4.293213 -0.300000
v 1.414100 -1.464786 0.300000
v 2.828313 -2.879000 0.000000
vn -0.0000 -0.2075 0.9782
vt 0.000000 0.000000
vt 1.000000 0.000000
vt 1.000000 1.000000
vt 0.000000 1.000000
s 0
usemtl Face_Green_Shadow
f 45/45/12 46/46/12 48/47/12 47/48/12
o 平面.006
v 1.502398 -1.413732 0.000000
v 2.879232 0.036899 0.000000
v 0.051768 -0.036898 -0.300000
v 1.428602 1.413732 -0.300000
vn 0.1076 -0.1021 -0.9889
vt 0.000000 0.000000
vt 0.000000 1.000000
vt 1.000000 1.000000
vt 1.000000 0.000000
s 0
usemtl Blue
f 49/49/13 51/50/13 52/51/13 50/52/13
o 平面.007
v 0.051437 -0.020612 0.300000
v 1.486112 -1.414063 0.000000
v 1.444888 1.414063 0.300000
v 2.879563 0.020612 0.000000
vn 0.1064 -0.1034 0.9889
vt 0.000000 0.000000
vt 1.000000 0.000000
vt 1.000000 1.000000
vt 0.000000 1.000000
s 0
usemtl Blue_Shadow
f 53/53/14 54/54/14 56/55/14 55/56/14
o 平面.014
v 2.879600 -0.000514 0.000000
v 4.293813 1.413700 0.300000
v 1.465386 1.413700 -0.300000
v 2.879600 2.827914 0.000000
vn 0.2075 -0.0000 -0.9782
vt 0.000000 0.000000
vt 0.000000 1.000000
vt 1.000000 1.000000
vt 1.000000 0.000000
s 0
usemtl Face_Blue
f 57/57/15 59/58/15 60/59/15 58/60/15
o 平面.015
v 2.879600 -0.000514 -0.000000
v 4.293813 1.413700 -0.300000
v 1.465386 1.413700 0.300000
v 2.879600 2.827914 -0.000000
vn 0.2075 -0.0000 0.9782
vt 0.000000 0.000000
vt 1.000000 0.000000
vt 1.000000 1.000000
vt 0.000000 1.000000
s 0
usemtl Face_Blue_Shadow
f 61/61/16 62/62/16 64/63/16 63/64/16
o windmill_nail
v -0.200000 -0.200000 -0.320000
v 0.200000 -0.200000 -0.320000
v -0.200000 0.200000 -0.320000
v 0.200000 0.200000 -0.320000
vn -0.0000 -0.0000 -1.0000
vt 0.000000 0.000000
vt 0.000000 1.000000
vt 1.000000 1.000000
vt 1.000000 0.000000
s 0
usemtl nail
f 65/65/17 67/66/17 68/67/17 66/68/17
