# Blender 4.2.1 LTS
# www.blender.org
mtllib prism.mtl
o prism1
v -0.634379 -0.043443 -0.964167
v -0.634379 -1.051882 -0.964167
v -1.152132 -0.043443 -0.067389
v -1.152134 -1.051882 -0.067389
vn -0.8660 -0.0000 -0.5000
vt 1.000000 0.000000
vt 1.000000 1.000000
vt 0.000000 1.000000
vt 0.000000 0.000000
s 0
usemtl prism1
f 1/1/1 2/2/1 4/3/1 3/4/1
o prism0
v 0.517755 -0.043443 -1.031498
v 0.517755 -1.051882 -1.031498
v -0.517755 -0.043443 -1.031498
v -0.517755 -1.051882 -1.031498
vn -0.0000 -0.0000 -1.0000
vt 1.000000 0.000000
vt 1.000000 1.000000
vt 0.000000 1.000000
vt 0.000000 0.000000
s 0
usemtl prism0
f 5/5/2 6/6/2 8/7/2 7/8/2
o prism4
v 0.634378 -0.043443 0.964051
v 0.634378 -1.051882 0.964051
v 1.152133 -0.043443 0.067273
v 1.152133 -1.051882 0.067273
vn 0.8660 -0.0000 0.5000
vt 1.000000 0.000000
vt 1.000000 1.000000
vt 0.000000 1.000000
vt 0.000000 0.000000
s 0
usemtl prism4
f 9/9/3 10/10/3 12/11/3 11/12/3
o prism5
v 1.152133 -0.043443 -0.067389
v 1.152133 -1.051882 -0.067389
v 0.634378 -0.043443 -0.964167
v 0.634378 -1.051882 -0.964167
vn 0.8660 -0.0000 -0.5000
vt 1.000000 0.000000
vt 1.000000 1.000000
vt 0.000000 1.000000
vt 0.000000 0.000000
s 0
usemtl prism5
f 13/13/4 14/14/4 16/15/4 15/16/4
o prism3
v -0.517755 -0.043443 1.031382
v -0.517755 -1.051882 1.031382
v 0.517755 -0.043443 1.031382
v 0.517755 -1.051882 1.031382
vn -0.0000 -0.0000 1.0000
vt 1.000000 0.000000
vt 1.000000 1.000000
vt 0.000000 1.000000
vt 0.000000 0.000000
s 0
usemtl prism3
f 17/17/5 18/18/5 20/19/5 19/20/5
o prism2
v -0.634379 -0.043443 0.964051
v -0.634379 -1.051882 0.964051
v -1.152132 -0.043443 0.067273
v -1.152132 -1.051882 0.067273
vn -0.8660 -0.0000 0.5000
vt 1.000000 0.000000
vt 1.000000 1.000000
vt -0.000000 1.000000
vt 0.000000 0.000000
s 0
usemtl prism2
f 23/21/6 24/22/6 22/23/6 21/24/6
o prism1_convert
v -0.634380 1.051763 -0.964167
v -0.634380 0.043324 -0.964167
v -1.152133 1.051763 -0.067389
v -1.152133 0.043324 -0.067389
vn -0.8660 -0.0000 -0.5000
vt 1.000000 1.000000
vt 1.000000 0.000000
vt 0.000000 0.000000
vt 0.000000 1.000000
s 0
usemtl convert1
f 25/25/7 26/26/7 28/27/7 27/28/7
o prism0_convert
v 0.517755 1.051763 -1.031498
v 0.517755 0.043324 -1.031498
v -0.517755 1.051763 -1.031498
v -0.517755 0.043324 -1.031498
vn -0.0000 -0.0000 -1.0000
vt 1.000000 1.000000
vt 1.000000 0.000000
vt 0.000000 0.000000
vt 0.000000 1.000000
s 0
usemtl convert0
f 29/29/8 30/30/8 32/31/8 31/32/8
o prism4_convert
v 0.634379 1.051763 0.964051
v 0.634379 0.043324 0.964051
v 1.152134 1.051763 0.067273
v 1.152134 0.043324 0.067273
vn 0.8660 -0.0000 0.5000
vt 1.000000 1.000000
vt 1.000000 0.000000
vt 0.000000 0.000000
vt 0.000000 1.000000
s 0
usemtl convert4
f 33/33/9 34/34/9 36/35/9 35/36/9
o prism5_convert
v 1.152134 1.051763 -0.067389
v 1.152134 0.043324 -0.067389
v 0.634379 1.051763 -0.964167
v 0.634379 0.043324 -0.964167
vn 0.8660 -0.0000 -0.5000
vt 1.000000 1.000000
vt 1.000000 0.000000
vt 0.000000 0.000000
vt 0.000000 1.000000
s 0
usemtl convert5
f 37/37/10 38/38/10 40/39/10 39/40/10
o prism3_convert
v -0.517755 1.051763 1.031382
v -0.517755 0.043324 1.031382
v 0.517755 1.051763 1.031382
v 0.517755 0.043324 1.031382
vn -0.0000 -0.0000 1.0000
vt 1.000000 1.000000
vt 1.000000 0.000000
vt 0.000000 0.000000
vt 0.000000 1.000000
s 0
usemtl convert3
f 41/41/11 42/42/11 44/43/11 43/44/11
o prism2_convert
v -0.634380 1.051763 0.964051
v -0.634380 0.043324 0.964051
v -1.152132 1.051763 0.067273
v -1.152132 0.043324 0.067273
vn -0.8660 -0.0000 0.5000
vt 1.000000 1.000000
vt 1.000000 0.000000
vt 0.000000 0.000000
vt 0.000000 1.000000
s 0
usemtl conver2
f 47/45/12 48/46/12 46/47/12 45/48/12
